<?xml version="1.0" encoding="utf-8"?>
<svg version="1.1" id="Layer_1" x="0px" y="0px" viewBox="0 0 1000 400" style="enable-background:new 0 0 1920 1080;" xmlns="http://www.w3.org/2000/svg">
  <style type="text/css">
	.st0{fill:#3BC8F4;}
	.st1{fill:#1A1A1A;}
	.st2{fill:url(#SVGID_1_);}
	.st3{fill:url(#SVGID_2_);}
	.st4{fill:url(#SVGID_3_);}
</style>
  <g transform="matrix(1, 0, 0, 1, -467.09549, -354.570282)">
    <g>
      <path class="st0" d="M732.62,526.61h51.95c10.85,0.77,16.64,6.54,17.37,17.32l-0.05,8.58c0,5.83-2.11,9.68-6.32,11.54 c4.21,1.32,6.32,4.8,6.32,10.45l0.05,15.61c-0.73,10.81-6.52,16.58-17.37,17.32h-51.95V526.61z M780.67,558.22 c6.49,0.18,9.71-2.66,9.68-8.52v-2.86c0-5.79-2.88-8.69-8.63-8.69h-37.55v57.73h37.55c5.75-0.07,8.63-2.91,8.63-8.52v-10.01 c0-5.24-3.43-7.86-10.28-7.86h-29.41v-11.27H780.67z" style="fill: rgb(255, 255, 255);"/>
      <path class="st0" d="M833.14,526.61h34.64c11.58,0,17.37,5.72,17.37,17.15v46.29c-0.04,11.58-5.83,17.37-17.37,17.37h-34.64 c-11.54,0-17.32-5.77-17.32-17.32v-46.18C815.83,532.38,821.6,526.61,833.14,526.61z M827.37,546.4v41.78 c0,5.13,2.55,7.7,7.64,7.7h30.95c5.06,0,7.59-2.53,7.59-7.59V545.9c0-5.17-2.58-7.75-7.75-7.75h-30.68 C829.96,538.15,827.37,540.9,827.37,546.4z" style="fill: rgb(255, 255, 255);"/>
      <path class="st0" d="M916.35,526.61h34.64c11.58,0,17.37,5.72,17.37,17.15v46.29c-0.04,11.58-5.83,17.37-17.37,17.37h-34.64 c-11.54,0-17.32-5.77-17.32-17.32v-46.18C899.04,532.38,904.81,526.61,916.35,526.61z M910.58,546.4v41.78 c0,5.13,2.55,7.7,7.64,7.7h30.95c5.06,0,7.59-2.53,7.59-7.59V545.9c0-5.17-2.58-7.75-7.75-7.75h-30.68 C913.17,538.15,910.58,540.9,910.58,546.4z" style="fill: rgb(255, 255, 255);"/>
      <path class="st0" d="M993.68,607.37l-11.44,0.05v-80.82h11.44V607.37z M999.57,563.5l34.86-36.72h14.9l-35.41,37.05l35.62,43.6 h-13.91L999.57,563.5z" style="fill: rgb(255, 255, 255);"/>
      <path class="st1" d="M1059.69,526.61h51.95c10.85,0.77,16.64,6.54,17.37,17.32l-0.05,8.58c0,5.83-2.11,9.68-6.32,11.54 c4.21,1.32,6.32,4.8,6.32,10.45l0.05,15.61c-0.73,10.81-6.52,16.58-17.37,17.32h-51.95V526.61z M1107.74,558.22 c6.49,0.18,9.71-2.66,9.68-8.52v-2.86c0-5.79-2.88-8.69-8.63-8.69h-37.55v57.73h37.55c5.75-0.07,8.63-2.91,8.63-8.52v-10.01 c0-5.24-3.43-7.86-10.28-7.86h-29.41v-11.27H1107.74z" style="fill: rgb(255, 255, 255);"/>
      <path class="st1" d="M1177.64,607.48h-11.49v-37.77l-31.39-43.1h13.91l23.26,32.11l23.04-32.11h14.29l-31.61,43.1V607.48z" style="fill: rgb(255, 255, 255);"/>
      <path class="st0" d="M1240.73,584.33h15.56l10.23,11.54c3.85-0.22,5.77-2.58,5.77-7.09v-42.94c0-5.09-2.58-7.66-7.75-7.7h-30.57 c-5.24,0.04-7.86,2.64-7.86,7.81v42.22c0,5.17,2.6,7.75,7.81,7.75h10.06l10.23,11.54h-22.32c-11.54,0-17.32-5.77-17.32-17.32 v-46.18c0-11.54,5.77-17.32,17.32-17.32h34.64c11.58,0,17.37,5.72,17.37,17.15v46.29c-0.04,11.58-5.83,17.37-17.37,17.37h-4.34 L1240.73,584.33z" style="fill: rgb(255, 255, 255);"/>
      <path class="st0" d="M1315.42,569.6v-11.38h32.05c5.35,0.22,8.03-2.18,8.03-7.2v-5.5c0-4.91-2.47-7.37-7.42-7.37h-38.76v69.16 h-11.49v-80.71h51.9c11.47,0.11,17.23,5.9,17.26,17.37v8.14c0,11.66-5.75,17.5-17.26,17.54h-17.48l36.23,37.71h-15.5 L1315.42,569.6z" style="fill: rgb(255, 255, 255);"/>
    </g>
    <g>
      <path class="st2" d="M581.69,627.75v-17.22h91.34v-91.34h17.22c7.18,0,13,5.82,13,13v108.56H594.69 C587.51,640.75,581.69,634.93,581.69,627.75z" style="fill: rgb(255, 255, 255);"/>
    </g>
    <path class="st3" d="M581.75,488.99v-57.93c0-7.18-5.82-13-13-13h-4.22c-7.18,0-13,5.82-13,13v57.93v0.11v108.44 c0,7.18,5.82,13,13,13h17.22v-91.34h91.34v-17.22c0-7.18-5.82-13-13-13H581.75z" style="fill: rgb(255, 255, 255);"/>
    <path class="st4" d="M651.35,610.75l21.79-20.95l46.62,47.02c5.06,5.1,5.02,13.33-0.08,18.38l-3,2.97 c-5.1,5.05-13.33,5.02-18.38-0.08L651.35,610.75z" style="fill: rgb(255, 255, 255);"/>
  </g>
</svg>