<?xml version="1.0" encoding="utf-8"?>
<!-- Generator: Adobe Illustrator 21.1.0, SVG Export Plug-In . SVG Version: 6.00 Build 0)  -->
<svg version="1.0" id="Layer_1" xmlns="http://www.w3.org/2000/svg" xmlns:xlink="http://www.w3.org/1999/xlink" x="0px" y="0px"
	 viewBox="0 0 40 40" style="enable-background:new 0 0 40 40;" xml:space="preserve">
<style type="text/css">
	.st0{fill:none;}
	.st1{fill:#3D2FE7;}
	.st2{fill:#E7C917;}
</style>
<g>
	<rect class="st0" width="40" height="40"/>
	<g>
		<path class="st1" d="M32.4,35.7H7.6c-0.2,0-0.5-0.2-0.5-0.5V4.8c0-0.2,0.2-0.5,0.5-0.5h20.9c0.1,0,0.2,0,0.3,0.1l3.8,3.7
			c0.1,0.1,0.1,0.2,0.1,0.3v26.7C32.8,35.5,32.6,35.7,32.4,35.7z M8.1,34.8h23.8v-26l-3.6-3.5H8.1V34.8z"/>
		<path class="st2" d="M19.3,17.4h-8c-0.2,0-0.5-0.2-0.5-0.5v-7c0-0.2,0.2-0.5,0.5-0.5h8c0.2,0,0.5,0.2,0.5,0.5v7
			C19.8,17.2,19.6,17.4,19.3,17.4z M11.8,16.5h7.1v-6.1h-7.1V16.5z"/>
		<path class="st1" d="M26.6,10.4h-4.7c-0.2,0-0.5-0.2-0.5-0.5s0.2-0.5,0.5-0.5h4.7c0.2,0,0.5,0.2,0.5,0.5S26.8,10.4,26.6,10.4z"/>
		<path class="st1" d="M24.9,14.1H22c-0.2,0-0.5-0.2-0.5-0.5s0.2-0.5,0.5-0.5h2.9c0.2,0,0.5,0.2,0.5,0.5S25.1,14.1,24.9,14.1z"/>
		<path class="st1" d="M27.6,17.4H22c-0.2,0-0.5-0.2-0.5-0.5s0.2-0.5,0.5-0.5h5.6c0.2,0,0.5,0.2,0.5,0.5S27.9,17.4,27.6,17.4z"/>
		<path class="st1" d="M29.2,20.8H11c-0.2,0-0.5-0.2-0.5-0.5s0.2-0.5,0.5-0.5h18.2c0.2,0,0.5,0.2,0.5,0.5S29.5,20.8,29.2,20.8z"/>
		<path class="st1" d="M27.5,24.2H11c-0.2,0-0.5-0.2-0.5-0.5s0.2-0.5,0.5-0.5h16.6c0.2,0,0.5,0.2,0.5,0.5S27.8,24.2,27.5,24.2z"/>
		<path class="st1" d="M29.2,27.6H11c-0.2,0-0.5-0.2-0.5-0.5s0.2-0.5,0.5-0.5h18.2c0.2,0,0.5,0.2,0.5,0.5S29.5,27.6,29.2,27.6z"/>
		<path class="st1" d="M23.9,30.9H11c-0.2,0-0.5-0.2-0.5-0.5S10.7,30,11,30h13c0.2,0,0.5,0.2,0.5,0.5S24.2,30.9,23.9,30.9z"/>
		<path class="st1" d="M32.4,9h-3.9c-0.2,0-0.5-0.2-0.5-0.5V4.9c0-0.2,0.1-0.3,0.3-0.4c0.2-0.1,0.4,0,0.5,0.1l3.9,3.6
			c0.1,0.1,0.2,0.3,0.1,0.5C32.7,8.9,32.6,9,32.4,9z M29,8.1h2.3L29,6V8.1z"/>
		<path class="st1" d="M35.5,29c-0.2,0-0.5-0.2-0.5-0.5v-5c0-0.2,0.2-0.5,0.5-0.5s0.5,0.2,0.5,0.5v5C36,28.7,35.7,29,35.5,29z"/>
	</g>
</g>
</svg>
