<?xml version="1.0" encoding="utf-8"?>
<!-- Generator: Adobe Illustrator 21.1.0, SVG Export Plug-In . SVG Version: 6.00 Build 0)  -->
<svg version="1.0" id="Layer_1" xmlns="http://www.w3.org/2000/svg" xmlns:xlink="http://www.w3.org/1999/xlink" x="0px" y="0px"
	 viewBox="0 0 60 60" style="enable-background:new 0 0 60 60;" xml:space="preserve">
<style type="text/css">
	.st0{fill:none;}
	.st1{fill:#E7C917;}
	.st2{fill:#36325D;}
</style>
<g>
	<rect x="-0.5" y="-0.5" class="st0" width="60" height="60"/>
	<g>
		<g>
			<path class="st1" d="M24.2,6.7c-0.3,0-0.6-0.3-0.6-0.6V1.7c0-0.3,0.3-0.6,0.6-0.6s0.6,0.3,0.6,0.6v4.4
				C24.8,6.4,24.5,6.7,24.2,6.7z"/>
			<path class="st1" d="M18.8,8.5c-0.2,0-0.3-0.1-0.4-0.2l-3.1-3.1C15,5,15,4.6,15.2,4.3c0.2-0.2,0.6-0.2,0.8,0l3.1,3.1
				c0.2,0.2,0.2,0.6,0,0.8C19.1,8.4,18.9,8.5,18.8,8.5z"/>
			<path class="st1" d="M29.7,8.5c-0.2,0-0.3-0.1-0.4-0.2c-0.2-0.2-0.2-0.6,0-0.8l3.5-3.5c0.2-0.2,0.6-0.2,0.8,0
				c0.2,0.2,0.2,0.6,0,0.8l-3.5,3.5C30,8.4,29.8,8.5,29.7,8.5z"/>
		</g>
		<g>
			<path class="st2" d="M23.9,56.9c-0.2,0-0.4-0.1-0.5-0.3l-4.1-7.1c-0.2-0.3-0.1-0.7,0.2-0.8c0.3-0.2,0.7-0.1,0.8,0.2l4.1,7.1
				c0.2,0.3,0.1,0.7-0.2,0.8C24.1,56.8,24,56.9,23.9,56.9z"/>
			<path class="st2" d="M45.9,56.9c-0.3,0-0.6-0.3-0.6-0.6v-25c0-1.3-1.1-2.4-2.4-2.4s-2.4,1.1-2.4,2.4c0,0.3-0.3,0.6-0.6,0.6
				s-0.6-0.3-0.6-0.6c0-1.3-1.1-2.4-2.4-2.4s-2.4,1.1-2.4,2.4c0,0.3-0.3,0.6-0.6,0.6s-0.6-0.3-0.6-0.6c0-1.3-1.1-2.4-2.4-2.4
				s-2.4,1.1-2.4,2.4c0,0.3-0.3,0.6-0.6,0.6s-0.6-0.3-0.6-0.6v-17c0-1.3-1.1-2.4-2.4-2.4s-2.4,1.1-2.4,2.4v23c0,0.2-0.2,0.5-0.4,0.6
				c-0.2,0.1-0.5,0-0.7-0.2l-6.8-7.6c-0.9-0.9-2.5-0.9-3.4,0c-0.9,0.9-0.8,1.9,0.1,3.5l6.1,10.5c0.2,0.3,0.1,0.7-0.2,0.8
				c-0.3,0.2-0.7,0.1-0.8-0.2l-6.1-10.5c-0.8-1.3-1.6-3.3,0.1-5c1.4-1.4,3.7-1.4,5.1,0l5.8,6.4V14.3c0-2,1.6-3.6,3.6-3.6
				s3.6,1.6,3.6,3.6v14.3c0.6-0.6,1.5-0.9,2.4-0.9c1.3,0,2.4,0.6,3,1.6c0.6-1,1.7-1.6,3-1.6s2.4,0.6,3,1.6c0.6-1,1.7-1.6,3-1.6
				c2,0,3.6,1.6,3.6,3.6v25C46.5,56.6,46.3,56.9,45.9,56.9z"/>
			<path class="st2" d="M49.9,48.9c-0.3,0-0.6-0.3-0.6-0.6v-7c0-0.3,0.3-0.6,0.6-0.6s0.6,0.3,0.6,0.6v7
				C50.5,48.6,50.3,48.9,49.9,48.9z"/>
		</g>
	</g>
</g>
</svg>
