<?xml version="1.0" encoding="utf-8"?>
<!-- Generator: Adobe Illustrator 21.1.0, SVG Export Plug-In . SVG Version: 6.00 Build 0)  -->
<svg version="1.0" id="Layer_1" xmlns="http://www.w3.org/2000/svg" xmlns:xlink="http://www.w3.org/1999/xlink" x="0px" y="0px"
	 viewBox="0 0 139 179" style="enable-background:new 0 0 139 179;" xml:space="preserve">
<style type="text/css">
	.st0{fill:#3D30E7;}
</style>
<g>
	<path class="st0" d="M69.8,23.9c-24.8,0-44.9,20.2-44.9,44.9c0,24.8,20.2,44.9,44.9,44.9c24.8,0,44.9-20.2,44.9-44.9
		S94.6,23.9,69.8,23.9 M69.8,121.4c-29,0-52.6-23.6-52.6-52.6c0-29,23.6-52.6,52.6-52.6c29,0,52.6,23.6,52.6,52.6
		C122.4,97.8,98.8,121.4,69.8,121.4"/>
	<path class="st0" d="M72.9,48.2v-7.1h-3.8v7.1H54.5v5.7h22.9L52.5,91.4v0.3h16.6v6.7h3.8v-6.7h14.3V86H63l24.9-37.5v-0.3H72.9z"/>
	<path class="st0" d="M74.4,137.1c-2.7,0-5.5-0.7-8-2.1c-3.3-1.9-7.3-2.4-10.7-1.4c-6.6,1.8-13.7-0.8-17.7-6.4
		c-2.1-3.1-5.4-5.2-9.2-5.9c-6.9-1.3-12.1-6.7-13.1-13.5c-0.6-3.6-2.6-7-5.7-9.3c-5.5-3.9-7.9-11.1-6-17.9c1.1-3.7,0.7-7.4-1.1-10.9
		c-3.2-6.2-2.3-13.5,2.4-18.7c2.5-2.8,3.8-6.4,3.7-10.2C8.7,34,12.7,27.6,19.1,25c3.6-1.5,6.4-4.2,7.8-7.6
		c2.8-6.4,9.3-10.3,16.1-9.8c3.8,0.3,7.5-1,10.3-3.5c5.2-4.6,12.7-5.3,18.7-1.9c3.3,1.9,7.3,2.4,10.7,1.4c6.6-1.8,13.7,0.8,17.7,6.4
		c2.1,3.1,5.4,5.2,9.2,5.9c6.9,1.3,12.1,6.7,13.1,13.5c0.6,3.6,2.6,7,5.7,9.3c5.5,3.9,7.9,11.1,6,17.9c-1.1,3.7-0.7,7.4,1.1,10.9
		c3.3,6.2,2.3,13.5-2.4,18.7c-2.5,2.8-3.8,6.4-3.7,10.2c0.3,6.8-3.8,13.2-10.2,15.8c-3.6,1.5-6.4,4.2-7.8,7.6
		c-2.9,6.4-9.4,10.3-16.1,9.8l0,0c-3.8-0.3-7.5,1-10.3,3.5C82.1,135.7,78.3,137.1,74.4,137.1z M59.3,131.1c2.8,0,5.6,0.7,8.1,2.2
		c5.3,3,11.8,2.3,16.4-1.7c3.2-2.9,7.5-4.3,11.8-4c5.9,0.4,11.6-3,14.2-8.6c1.6-3.9,4.7-7,8.9-8.7c5.6-2.3,9.2-7.9,8.9-13.8
		c-0.2-4.3,1.3-8.4,4.2-11.6c4.1-4.6,5-11,2.1-16.4c-2.1-3.9-2.6-8.3-1.3-12.4c1.7-5.9-0.4-12.2-5.2-15.7c-3.5-2.6-5.8-6.5-6.5-10.6
		c-0.8-6-5.4-10.7-11.5-11.9c-4.3-0.8-8-3.2-10.5-6.8c-3.5-4.9-9.8-7.2-15.6-5.6c-4,1.1-8.5,0.5-12.3-1.6c-5.3-3-11.8-2.3-16.4,1.7
		c-3.2,2.9-7.5,4.3-11.8,4c-6-0.4-11.7,3-14.1,8.6c-1.6,3.9-4.7,7-8.9,8.7c-5.6,2.3-9.2,7.9-8.9,13.8c0.2,4.3-1.3,8.4-4.2,11.6
		c-4.1,4.6-5,11-2.1,16.4c2.1,3.9,2.6,8.3,1.3,12.4C4.2,87,6.3,93.3,11.2,96.7c3.5,2.6,5.8,6.5,6.5,10.6c0.8,6,5.4,10.7,11.5,11.9
		c4.3,0.8,8,3.2,10.5,6.8c3.5,4.9,9.8,7.2,15.6,5.6C56.5,131.3,57.9,131.1,59.3,131.1z"/>
	<path class="st0" d="M96,177c-0.2,0-0.4-0.1-0.6-0.2L67,157.2l-27.7,19.6c-0.3,0.2-0.7,0.2-1,0.1c-0.3-0.2-0.5-0.5-0.5-0.9v-49.4
		c0-0.4,0.3-0.8,0.7-1c0.4-0.1,0.9,0,1.1,0.4c3.5,4.9,9.8,7.2,15.6,5.7c4-1.1,8.5-0.5,12.3,1.6c5.3,3,11.8,2.3,16.4-1.7
		c3.2-2.9,7.5-4.4,11.8-4c0.5,0,0.9,0.5,0.9,1L97,176c0,0.4-0.2,0.7-0.5,0.9C96.3,177,96.2,177,96,177z M67,155
		c0.2,0,0.4,0.1,0.6,0.2L95,174.1l-0.4-44.6c-3.4,0-6.8,1.2-9.4,3.6c-5.2,4.6-12.7,5.3-18.7,1.9c-3.3-1.9-7.3-2.4-10.7-1.4
		c-5.7,1.5-11.8-0.2-15.9-4.3v44.8l26.7-18.9C66.6,155.1,66.8,155,67,155z"/>
</g>
</svg>
