<?xml version="1.0" encoding="utf-8"?>
<!-- Generator: Adobe Illustrator 21.1.0, SVG Export Plug-In . SVG Version: 6.00 Build 0)  -->
<svg version="1.0" id="Layer_1" xmlns="http://www.w3.org/2000/svg" xmlns:xlink="http://www.w3.org/1999/xlink" x="0px" y="0px"
	 viewBox="0 0 60 60" style="enable-background:new 0 0 60 60;" xml:space="preserve">
<style type="text/css">
	.st0{fill:none;}
	.st1{fill:#E7C917;}
	.st2{fill:#3D2FE7;}
</style>
<g>
	<rect x="-0.5" y="-0.5" class="st0" width="60" height="60"/>
	<g>
		<g>
			<g>
				<path class="st1" d="M29.3,9.6c-0.3,0-0.6-0.3-0.6-0.6V4.6C28.7,4.3,29,4,29.3,4s0.6,0.3,0.6,0.6V9C29.9,9.3,29.6,9.6,29.3,9.6z
					"/>
				<path class="st1" d="M23.8,11.3c-0.2,0-0.3-0.1-0.4-0.2l-3.1-3.1c-0.2-0.2-0.2-0.6,0-0.8c0.2-0.2,0.6-0.2,0.8,0l3.1,3.1
					c0.2,0.2,0.2,0.6,0,0.8C24.1,11.3,24,11.3,23.8,11.3z"/>
				<path class="st1" d="M34.7,11.3c-0.2,0-0.3-0.1-0.4-0.2c-0.2-0.2-0.2-0.6,0-0.8l3.5-3.5c0.2-0.2,0.6-0.2,0.8,0
					c0.2,0.2,0.2,0.6,0,0.8l-3.5,3.5C35,11.3,34.9,11.3,34.7,11.3z"/>
			</g>
		</g>
		<path class="st2" d="M44.3,55h-6.3c-0.3,0-0.6-0.3-0.6-0.6s0.3-0.6,0.6-0.6h6.1c4.7-4,7.3-9.8,7.3-15.9C51.4,26.3,42,17,30.5,17
			S9.6,26.3,9.6,37.9c0,1.8,0.2,3.5,0.7,5.2c0.4,1.6,1,3.2,1.9,4.7c1.2,2.3,2.9,4.3,4.8,6h13.6c0.3,0,0.6,0.3,0.6,0.6
			S30.8,55,30.5,55H16.7c-0.1,0-0.3,0-0.4-0.1c-2.2-1.8-3.9-4-5.3-6.5c-0.9-1.6-1.5-3.3-2-5c-0.5-1.8-0.7-3.6-0.7-5.5
			c0-12.2,9.9-22.1,22.1-22.1s22.1,9.9,22.1,22.1c0,6.6-2.9,12.8-7.9,17C44.6,54.9,44.4,55,44.3,55z"/>
		<path class="st2" d="M7.6,48.7c-0.2,0-0.4-0.1-0.5-0.3c-0.9-1.6-1.5-3.3-2-5c-0.1-0.3,0.1-0.6,0.4-0.7c0.3-0.1,0.6,0.1,0.7,0.4
			c0.4,1.6,1,3.2,1.9,4.7c0.2,0.3,0,0.7-0.2,0.8C7.8,48.7,7.7,48.7,7.6,48.7z"/>
		<path class="st2" d="M30.5,50.3c-1.6,0-3-1.3-3-2.9c0-1.6,1.3-3,3-3s3,1.3,3,3C33.5,48.9,32.1,50.3,30.5,50.3z M30.5,45.6
			c-1,0-1.8,0.8-1.8,1.8s0.8,1.8,1.8,1.8s1.8-0.8,1.8-1.8S31.5,45.6,30.5,45.6z"/>
		<path class="st2" d="M30.5,45c-0.3,0-0.6-0.3-0.6-0.6v-15c0-0.3,0.3-0.6,0.6-0.6s0.6,0.3,0.6,0.6v15C31.1,44.7,30.8,45,30.5,45z"
			/>
		<path class="st2" d="M30.5,25.2c-0.3,0-0.6-0.3-0.6-0.6v-4.1c0-0.3,0.3-0.6,0.6-0.6s0.6,0.3,0.6,0.6v4.1
			C31.1,25,30.8,25.2,30.5,25.2z"/>
		<path class="st2" d="M17.3,38.5h-4.1c-0.3,0-0.6-0.3-0.6-0.6s0.3-0.6,0.6-0.6h4.1c0.3,0,0.6,0.3,0.6,0.6S17.6,38.5,17.3,38.5z"/>
		<path class="st2" d="M47,38.5h-4.1c-0.3,0-0.6-0.3-0.6-0.6s0.3-0.6,0.6-0.6H47c0.3,0,0.6,0.3,0.6,0.6S47.4,38.5,47,38.5z"/>
		<path class="st2" d="M39.4,29.2c-0.2,0-0.3-0.1-0.4-0.2c-0.2-0.2-0.2-0.6,0-0.8l2.9-2.9c0.2-0.2,0.6-0.2,0.8,0
			c0.2,0.2,0.2,0.6,0,0.8L39.8,29C39.7,29.1,39.5,29.2,39.4,29.2z"/>
		<path class="st2" d="M20.8,29.2c-0.2,0-0.3-0.1-0.4-0.2l-2.9-2.9c-0.2-0.2-0.2-0.6,0-0.8c0.2-0.2,0.6-0.2,0.8,0l2.9,2.9
			c0.2,0.2,0.2,0.6,0,0.8C21.1,29.1,21,29.2,20.8,29.2z"/>
	</g>
</g>
</svg>
