<?xml version="1.0" encoding="utf-8"?>
<!-- Generator: Adobe Illustrator 24.3.0, SVG Export Plug-In . SVG Version: 6.00 Build 0)  -->
<svg version="1.1" id="Ebene_1" xmlns="http://www.w3.org/2000/svg" xmlns:xlink="http://www.w3.org/1999/xlink" x="0px" y="0px"
	 viewBox="0 0 1009 854" style="enable-background:new 0 0 1009 854;" xml:space="preserve">
<style type="text/css">
	.st0{fill:none;stroke:#E7C917;stroke-width:1.5;stroke-linecap:round;stroke-linejoin:round;stroke-miterlimit:10;}
	.st1{fill:none;stroke:#3D2FE7;stroke-width:1.5;stroke-linecap:round;stroke-linejoin:round;stroke-miterlimit:10;}
	.st2{fill:none;stroke:#3D2FE7;stroke-width:2;stroke-linecap:round;stroke-linejoin:round;stroke-miterlimit:10;}
	.st3{fill:#FFFFFF;}
	.st4{display:none;fill:none;stroke:#3D2FE7;stroke-width:2;stroke-linecap:round;stroke-linejoin:round;stroke-miterlimit:10;}
	.st5{fill:none;stroke:#E7C917;stroke-width:2;stroke-linecap:round;stroke-linejoin:round;stroke-miterlimit:10;}
</style>
<line class="st0" x1="872.28" y1="163.4" x2="871.43" y2="70.13"/>
<path class="st1" d="M426.58,230.12"/>
<line class="st2" x1="91.45" y1="784.45" x2="150.84" y2="706.93"/>
<line class="st2" x1="79" y1="784" x2="111" y2="706.93"/>
<circle class="st0" cx="872.28" cy="40.59" r="20.45"/>
<g>
	<g>
		<path class="st3" d="M-131.56-6.5c1.93,0,1.93-3,0-3C-133.49-9.5-133.49-6.5-131.56-6.5L-131.56-6.5z"/>
	</g>
</g>
<path class="st4" d="M958.94,703H81.06C64.46,703,51,689.54,51,672.94V201.06C51,184.46,64.46,171,81.06,171h877.89
	c16.6,0,30.06,13.46,30.06,30.06v471.89C989,689.54,975.54,703,958.94,703z"/>
<path class="st5" d="M29,243.69v-48.73C29,170.13,49.13,150,73.96,150h61.46"/>
<line class="st2" x1="885.84" y1="706.88" x2="945.41" y2="784.59"/>
<line class="st2" x1="925.67" y1="706.88" x2="957.67" y2="783.96"/>
</svg>
