<?xml version="1.0" encoding="utf-8"?>
<!-- Generator: Adobe Illustrator 21.1.0, SVG Export Plug-In . SVG Version: 6.00 Build 0)  -->
<svg version="1.0" id="Layer_1" xmlns="http://www.w3.org/2000/svg" xmlns:xlink="http://www.w3.org/1999/xlink" x="0px" y="0px"
	 viewBox="0 0 60 60" style="enable-background:new 0 0 60 60;" xml:space="preserve">
<style type="text/css">
	.st0{fill:none;}
	.st1{fill:#E7C917;}
	.st2{fill:#36325D;}
</style>
<g>
	<g>
		<rect x="-0.5" y="-0.5" class="st0" width="60" height="60"/>
		<g>
			<g>
				<path class="st1" d="M49.4,10.9c-0.2,0-0.3-0.1-0.4-0.2c-0.2-0.2-0.2-0.6,0-0.8l3.1-3.1c0.2-0.2,0.6-0.2,0.8,0
					c0.2,0.2,0.2,0.6,0,0.8l-3.1,3.1C49.7,10.9,49.6,10.9,49.4,10.9z"/>
				<path class="st1" d="M44.3,8.3c-0.3,0-0.6-0.3-0.6-0.6V3.3c0-0.3,0.3-0.6,0.6-0.6s0.6,0.3,0.6,0.6v4.4C44.9,8,44.7,8.3,44.3,8.3
					z"/>
				<path class="st1" d="M57,16h-5c-0.3,0-0.6-0.3-0.6-0.6s0.3-0.6,0.6-0.6h5c0.3,0,0.6,0.3,0.6,0.6S57.3,16,57,16z"/>
			</g>
		</g>
	</g>
	<g>
		<path class="st2" d="M10.2,37.9c-0.1,0-0.1,0-0.2,0l-6.1-2.3c-0.2-0.1-0.3-0.2-0.4-0.4c-0.1-0.2,0-0.4,0.1-0.5
			c10.1-13.3,18.8-8.7,19.2-8.5c0.3,0.2,0.4,0.5,0.2,0.8c-0.2,0.3-0.5,0.4-0.8,0.2c-0.3-0.2-7.9-4.1-17.2,7.5l5.4,2
			c0.3,0.1,0.5,0.5,0.4,0.8C10.7,37.8,10.5,37.9,10.2,37.9z"/>
		<path class="st2" d="M11.9,43.5c-0.2,0-0.3-0.1-0.4-0.2c-0.2-0.2-0.2-0.6,0-0.8l3.1-3.1c0.2-0.2,0.6-0.2,0.8,0
			c0.2,0.2,0.2,0.6,0,0.8l-3.1,3.1C12.2,43.4,12,43.5,11.9,43.5z"/>
		<path class="st2" d="M6.5,56.3c-0.3,0-0.7,0-1-0.1C5.3,56.2,5.1,56,5,55.8c-0.5-2,0.8-4.9,2.3-6.4c1.5-1.5,4.5-2.8,6.4-2.3
			c0.2,0.1,0.4,0.2,0.4,0.4c0.5,2-0.8,4.9-2.3,6.4C10.6,55.2,8.3,56.3,6.5,56.3z M6.1,55.1c1.5,0.2,3.8-0.9,4.9-2
			c1.2-1.2,2.2-3.4,2-4.9c-1.5-0.2-3.8,0.9-4.9,2C7,51.3,6,53.6,6.1,55.1z"/>
		<path class="st2" d="M22.1,47.6c-0.2,0-0.3-0.1-0.4-0.2l-8.1-8.1c-0.2-0.2-0.2-0.5-0.1-0.7C26,17.5,37,13.8,42.5,13.5
			c0.3,0,0.6,0.2,0.6,0.6c0,0.3-0.2,0.6-0.6,0.6c-5.2,0.3-15.7,3.9-27.7,24.1l7.5,7.5c28.5-17,23.9-31,23.8-31.2
			c-0.1-0.3,0-0.7,0.4-0.8c0.3-0.1,0.7,0,0.8,0.4c0.2,0.6,5.2,15.2-24.7,32.9C22.4,47.6,22.3,47.6,22.1,47.6z"/>
		<path class="st2" d="M26,57.5c-0.1,0-0.1,0-0.2,0c-0.2-0.1-0.3-0.2-0.4-0.4l-3.8-9.9c-0.1-0.3,0-0.7,0.3-0.8
			c0.3-0.1,0.7,0,0.8,0.3l3.5,9.2c11.6-9.3,7.7-16.8,7.5-17.2c-0.2-0.3,0-0.7,0.2-0.8c0.3-0.2,0.7-0.1,0.8,0.2
			c0.2,0.4,4.8,9.1-8.5,19.2C26.2,57.5,26.1,57.5,26,57.5z"/>
		<path class="st2" d="M18.2,49.7c-0.2,0-0.3-0.1-0.4-0.2c-0.2-0.2-0.2-0.6,0-0.8l3.1-3.1c0.2-0.2,0.6-0.2,0.8,0
			c0.2,0.2,0.2,0.6,0,0.8l-3.1,3.1C18.5,49.7,18.3,49.7,18.2,49.7z"/>
		<path class="st2" d="M35.5,29.7c-1,0-2-0.4-2.7-1.1c-1.5-1.5-1.5-3.9,0-5.4c1.5-1.5,3.9-1.5,5.4,0c1.5,1.5,1.5,3.9,0,5.4
			C37.4,29.3,36.4,29.7,35.5,29.7z M35.5,23.2c-0.7,0-1.4,0.3-1.9,0.8c-1,1-1,2.7,0,3.7c1,1,2.7,1,3.7,0c1-1,1-2.7,0-3.7
			C36.8,23.5,36.1,23.2,35.5,23.2z"/>
		
			<rect x="41.7" y="13.6" transform="matrix(0.7071 -0.7071 0.7071 0.7071 -1.0242 35.4999)" class="st2" width="1.2" height="10.8"/>
	</g>
	<path class="st2" d="M42.5,35.1c-0.2,0-0.3-0.1-0.4-0.2c-0.2-0.2-0.2-0.6,0-0.8c1.9-1.9,3.9-5.8,3.9-5.8c0.1-0.3,0.5-0.4,0.8-0.3
		s0.4,0.5,0.3,0.8c-0.1,0.2-2.1,4.1-4.1,6.2C42.8,35,42.7,35.1,42.5,35.1z"/>
</g>
</svg>
