<?xml version="1.0" encoding="utf-8"?>
<!-- Generator: Adobe Illustrator 21.1.0, SVG Export Plug-In . SVG Version: 6.00 Build 0)  -->
<svg version="1.0" id="Layer_1" xmlns="http://www.w3.org/2000/svg" xmlns:xlink="http://www.w3.org/1999/xlink" x="0px" y="0px"
	 viewBox="0 0 40 40" style="enable-background:new 0 0 40 40;" xml:space="preserve">
<style type="text/css">
	.st0{fill:none;}
	.st1{fill:#3D2FE7;}
	.st2{fill:#E7C917;}
</style>
<g>
	<rect class="st0" width="40" height="40"/>
	<g>
		<g>
			<path class="st1" d="M21.7,6c-0.2,0-0.5-0.2-0.5-0.5v-1c0-0.2,0.2-0.5,0.5-0.5h1.1V3h-5.2v1.1h1.1c0.2,0,0.5,0.2,0.5,0.5v1
				c0,0.2-0.2,0.5-0.5,0.5s-0.5-0.2-0.5-0.5V5h-1.1c-0.2,0-0.5-0.2-0.5-0.5v-2c0-0.2,0.2-0.5,0.5-0.5h6.1c0.2,0,0.5,0.2,0.5,0.5v2
				c0,0.2-0.2,0.5-0.5,0.5h-1.1v0.6C22.1,5.8,21.9,6,21.7,6z"/>
			<path class="st2" d="M33.5,13c-0.1,0-0.2,0-0.3-0.1l-2.5-2.5c-0.2-0.2-0.2-0.5,0-0.6l1.5-1.5c0.2-0.2,0.5-0.2,0.6,0l2.5,2.5
				c0.1,0.1,0.1,0.2,0.1,0.3s0,0.2-0.1,0.3l-1.5,1.5C33.8,13,33.7,13,33.5,13z M31.6,10l1.9,1.9l0.9-0.9l-1.9-1.9L31.6,10z"/>
			<path class="st1" d="M20.1,20.6c-0.2,0-0.5-0.2-0.5-0.5v-8.2c0-0.2,0.2-0.5,0.5-0.5s0.5,0.2,0.5,0.5v8.2
				C20.6,20.4,20.4,20.6,20.1,20.6z"/>
			<path class="st1" d="M25.2,22.8h-2.7c-0.2,0-0.5-0.2-0.5-0.5s0.2-0.5,0.5-0.5h2.7c0.2,0,0.5,0.2,0.5,0.5S25.5,22.8,25.2,22.8z"/>
			<path class="st1" d="M20.1,25.1c-1.5,0-2.7-1.2-2.7-2.7s1.2-2.7,2.7-2.7c1.5,0,2.7,1.2,2.7,2.7S21.6,25.1,20.1,25.1z M20.1,20.6
				c-1,0-1.8,0.8-1.8,1.8s0.8,1.8,1.8,1.8s1.8-0.8,1.8-1.8S21.1,20.6,20.1,20.6z"/>
			<path class="st1" d="M20.1,34.9c-6.9,0-12.5-5.6-12.5-12.5S13.3,9.9,20.1,9.9c6.9,0,12.5,5.6,12.5,12.5S27,34.9,20.1,34.9z
				 M20.1,10.8c-6.4,0-11.6,5.2-11.6,11.6S13.8,34,20.1,34c6.4,0,11.6-5.2,11.6-11.6S26.5,10.8,20.1,10.8z"/>
			<path class="st1" d="M20.1,38c-8.6,0-15.6-7-15.6-15.6s7-15.6,15.6-15.6c8.6,0,15.6,7,15.6,15.6S28.7,38,20.1,38z M20.1,7.7
				c-8.1,0-14.7,6.6-14.7,14.7S12.1,37,20.1,37s14.7-6.6,14.7-14.7S28.2,7.7,20.1,7.7z"/>
			<path class="st1" d="M6.7,34.8c-0.1,0-0.2,0-0.3-0.1c-1.3-1.2-2.3-2.6-3-4.3c-0.1-0.2,0-0.5,0.2-0.6c0.2-0.1,0.5,0,0.6,0.2
				c0.7,1.5,1.6,2.9,2.8,4c0.2,0.2,0.2,0.5,0,0.6C6.9,34.8,6.8,34.8,6.7,34.8z"/>
		</g>
	</g>
</g>
</svg>
