<svg enable-background="new 0 0 192 90" viewBox="0 0 192 90" xmlns="http://www.w3.org/2000/svg"><path d="m45.9 47.4c-.4 0-.7.1-1 .1.4 1.3.6 2.7.6 4.2 0 1.3-.2 2.6-.5 3.9.3.1.6.1 1 .1 2.3 0 4.2-1.9 4.2-4.2-.1-2.2-2-4.1-4.3-4.1z" fill="#e7c917"/><path d="m49.9 52-.4-.9c.2-.1 6.1-2.5 14.3-1.3l-.2 1c-7.9-1.2-13.7 1.2-13.7 1.2z" fill="#e7c917"/><path d="m118.9 58.1c.4 0 .1-.1.4-.1-.4-1.3 0-7 0-8.1-.3-.1-.1-.1-.4-.1-2.3 0-4.2 1.9-4.2 4.2.1 2.3 1.9 4.1 4.2 4.1z" fill="#e7c917"/><path d="m105.8 56.1c-1.6 0-3.5-.1-5.4-.5l.2-1c8.3 1.5 14.3-1.1 14.4-1.1l.4.9c-.2.1-4 1.7-9.6 1.7z" fill="#e7c917"/><path d="m31.1 66.6c-8.2 0-14.8-6.7-14.8-14.8 0-8.2 6.7-14.8 14.8-14.8s14.8 6.7 14.8 14.8-6.6 14.8-14.8 14.8zm0-28.8c-7.7 0-13.9 6.3-13.9 13.9s6.3 13.9 13.9 13.9 13.9-6.2 13.9-13.9-6.2-13.9-13.9-13.9z" fill="#3d2fe7"/><path d="m20.5 15.5c-1.2 0-2.1-1-2.1-2.1s1-2.1 2.1-2.1 2.1 1 2.1 2.1-.9 2.1-2.1 2.1zm0-3.2c-.6 0-1.1.5-1.1 1.1s.5 1.1 1.1 1.1 1.1-.5 1.1-1.1-.5-1.1-1.1-1.1z" fill="#3d2fe7"/><circle cx="119.9" cy="14.2" fill="#e6e6e6" r="1.3"/><path d="m163.6 16.2c-.3 0-.5-.2-.5-.5l-.1-4.2c0-.3.2-.5.5-.5s.5.2.5.5l.1 4.2c0 .3-.2.5-.5.5z" fill="#e7c917"/><path d="m161.5 14.1c-.3 0-.5-.2-.5-.5s.2-.5.5-.5l4.2-.1c.3 0 .5.2.5.5s-.2.5-.5.5z" fill="#e7c917"/><path d="m131.6 82.2c-.3 0-.5-.2-.5-.5l-.1-4.2c0-.3.2-.5.5-.5s.5.2.5.5l.1 4.2c0 .3-.2.5-.5.5z" fill="#3d2fe7"/><path d="m129.5 80.1c-.3 0-.5-.2-.5-.5s.2-.5.5-.5l4.2-.1c.3 0 .5.2.5.5s-.2.5-.5.5z" fill="#3d2fe7"/><path d="m48.1 25.6c-.1 0-.3 0-.3-.1-.2-.2-.2-.5 0-.7l2.9-3c.2-.2.5-.2.7 0s.2.5 0 .7l-2.9 3c-.1.1-.3.1-.4.1z" fill="#e6e6e6"/><path d="m51.1 25.6c-.1 0-.3 0-.3-.1l-3-2.9c-.2-.2-.2-.5 0-.7s.5-.2.7 0l3 2.9c.2.2.2.5 0 .7-.1 0-.3.1-.4.1z" fill="#e6e6e6"/><path d="m44.4 79.4c-.8 0-1.2-.3-1.5-.6-.3-.2-.5-.4-.9-.4s-.6.2-.9.4c-.3.3-.7.6-1.5.6s-1.2-.3-1.5-.6c-.3-.2-.5-.4-.9-.4-.2 0-.5-.2-.5-.5s.2-.5.5-.5c.8 0 1.2.3 1.5.6.3.2.5.4.9.4s.6-.2.9-.4c.3-.3.7-.6 1.5-.6s1.2.3 1.5.6c.3.2.5.4.9.4s.6-.2.9-.4c.3-.3.7-.6 1.5-.6.2 0 .5.2.5.5s-.2.5-.5.5c-.4 0-.6.2-.9.4-.4.3-.8.6-1.5.6z" fill="#e7c917"/><path d="m166.2 55.2h-42c-.2 0-.4-.2-.4-.4s.2-.4.4-.4h42c.2 0 .4.2.4.4s-.2.4-.4.4z" fill="#3d2fe7"/><path d="m119.4 69.9c-.2 0-.4-.2-.4-.4v-33.4c0-.2.2-.4.4-.4s.4.2.4.4v33.4c0 .2-.2.4-.4.4z" fill="#3d2fe7"/><path d="m170.6 72.1c-.2 0-.4-.2-.4-.4v-33.4c0-.2.2-.4.4-.4s.4.2.4.4v33.5c0 .2-.2.3-.4.3z" fill="#3d2fe7"/><path d="m136.8 72.1c-.2 0-.4-.2-.4-.4v-11.3h-9.1v11.4c0 .2-.2.4-.4.4s-.4-.2-.4-.4v-11.8c0-.2.2-.4.4-.4h9.8c.2 0 .4.2.4.4v11.7c.1.3-.1.4-.3.4z" fill="#e7c917"/><path d="m163 72.1c-.2 0-.4-.2-.4-.4v-11.3h-9.1v11.4c0 .2-.2.4-.4.4s-.4-.2-.4-.4v-11.8c0-.2.2-.4.4-.4h9.8c.2 0 .4.2.4.4v11.7c.1.3-.1.4-.3.4z" fill="#e7c917"/><path d="m129 49.6h-4.8c-.2 0-.4-.2-.4-.4v-5.8c0-1.5 1.2-2.8 2.8-2.8s2.8 1.2 2.8 2.8v5.8c0 .3-.2.4-.4.4zm-4.4-.7h4.1v-5.5c0-1.1-.9-2.1-2.1-2.1s-2.1.9-2.1 2.1v5.5z" fill="#3d2fe7"/><path d="m166.2 49.6h-4.8c-.2 0-.4-.2-.4-.4v-5.8c0-1.5 1.2-2.8 2.8-2.8 1.5 0 2.8 1.2 2.8 2.8v5.8c0 .3-.2.4-.4.4zm-4.4-.7h4.1v-5.5c0-1.1-.9-2.1-2.1-2.1s-2.1.9-2.1 2.1v5.5z" fill="#3d2fe7"/><path d="m146.8 72.1c-.2 0-.4-.2-.4-.4v-13.5c0-.2.2-.4.4-.4s.4.2.4.4v13.6c0 .2-.2.3-.4.3z" fill="#3d2fe7"/><path d="m142.8 72.1c-.2 0-.4-.2-.4-.4v-13.5c0-.2.2-.4.4-.4s.4.2.4.4v13.6c0 .2-.2.3-.4.3z" fill="#3d2fe7"/><path d="m173.8 36.4h-57.6c-.1 0-.2-.1-.3-.2s-.1-.2 0-.3l4-8.8c.1-.1.2-.2.3-.2h49.6c.1 0 .3.1.3.2l4 8.8v.3s-.1.2-.3.2zm-57-.7h56.5l-3.7-8.1h-49.2z" fill="#e7c917"/><path d="m167 32.4c-1.1 0-1.7-.5-2.2-.9s-.9-.7-1.8-.7-1.3.3-1.8.7-1.1.9-2.2.9-1.7-.5-2.2-.9-.9-.7-1.8-.7-1.3.3-1.8.7-1.1.9-2.2.9-1.7-.5-2.2-.9-.9-.7-1.8-.7-1.3.3-1.8.7-1.1.9-2.2.9-1.7-.5-2.2-.9-.9-.7-1.8-.7-1.3.3-1.8.7-1.1.9-2.2.9-1.7-.5-2.2-.9-.9-.7-1.8-.7-1.3.3-1.8.7-1.1.9-2.2.9-1.7-.5-2.2-.9-.9-.7-1.8-.7c-.2 0-.4-.2-.4-.4s.2-.4.4-.4c1.1 0 1.7.5 2.2.9s.9.7 1.8.7 1.3-.3 1.8-.7 1.1-.9 2.2-.9 1.7.5 2.2.9.9.7 1.8.7 1.3-.3 1.8-.7 1.1-.9 2.2-.9 1.7.5 2.2.9.9.7 1.8.7 1.3-.3 1.8-.7 1.1-.9 2.2-.9 1.7.5 2.2.9.9.7 1.8.7 1.3-.3 1.8-.7 1.1-.9 2.2-.9 1.7.5 2.2.9.9.7 1.8.7 1.3-.3 1.8-.7 1.1-.9 2.2-.9 1.7.5 2.2.9.9.7 1.8.7c.2 0 .4.2.4.4s-.2.4-.4.4z" fill="#e7c917"/><g fill="#3d2fe7"><path d="m135.3 40.8h-1.8c-.1 0-.2.1-.2.2v3.5c0 .1.1.2.2.2h.5c.1 0 .2-.1.2-.2v-1.2h1c.1 0 .2-.1.2-.2v-.4c0-.1-.1-.2-.2-.2h-1v-.9h1.2c.1 0 .2-.1.2-.2v-.4c-.2-.2-.2-.2-.3-.2z"/><path d="m137.9 40.8h-.5c-.1 0-.2.1-.2.2v3.5c0 .1.1.2.2.2h.5c.1 0 .2-.1.2-.2v-3.5c0-.2-.1-.2-.2-.2z"/><path d="m142.7 40.8h-.5c-.1 0-.2.1-.2.2v1.9l-1-2c0-.1-.1-.1-.2-.1h-.4c-.1 0-.2.1-.2.2v3.5c0 .1.1.2.2.2h.5c.1 0 .2-.1.2-.2v-1.9l1 1.9c.1.1.1.2.2.2h.4c.1 0 .2-.1.2-.2v-3.5c0-.2-.1-.2-.2-.2z"/><path d="m146.6 40.8h-.8c-.1 0-.2.1-.2.2l-.9 3.5v.2s.1.1.1.1h.6.1s0-.1.1-.1l.1-.6h1l.1.6c0 .1 0 .1.1.1 0 0 .1.1.1.1h.6c.1 0 .1 0 .1-.1 0 0 0-.1 0-.2l-.9-3.4c0-.3-.1-.4-.2-.4zm-.1 2.3h-.7l.3-1.3z"/><path d="m152 40.8h-.5c-.1 0-.2.1-.2.2v1.9l-1-2c0-.1-.1-.1-.2-.1h-.4c-.1 0-.2.1-.2.2v3.5c0 .1.1.2.2.2h.5c.1 0 .2-.1.2-.2v-1.9l1 1.9c.1.1.1.2.2.2h.4c.1 0 .2-.1.2-.2v-3.5c0-.2-.1-.2-.2-.2z"/><path d="m156.5 43.8h-1.3l1.4-2c.1-.1.1-.2.1-.3v-.5c0-.1-.1-.2-.2-.2h-2c-.1 0-.2.1-.2.2v.4c0 .1.1.2.2.2h1.3l-1.5 2.2c-.1.1-.1.2-.1.3v.3c0 .1.1.2.2.2h2.2c.1 0 .2-.1.2-.2v-.4c-.1-.1-.2-.2-.3-.2z"/><path d="m140.3 45.8h-.8c-.1 0-.2.1-.2.2l-.9 3.5v.2s.1.1.1.1h.6.1s0-.1.1-.1l.1-.6h1l.1.6c0 .1 0 .1.1.1 0 0 .1.1.1.1h.6c.1 0 .1 0 .1-.1 0 0 0-.1 0-.2l-.9-3.4c0-.3-.1-.4-.2-.4zm-.1 2.3h-.7l.3-1.3z"/><path d="m146.6 45.8h-.9c-.1 0-.2 0-.2.1l-.6 1.9-.6-1.9c0-.1-.1-.1-.2-.1h-.9c-.1 0-.2.1-.2.2v3.5c0 .1.1.2.2.2h.5s.1 0 .2-.1v-.1-2.3l.5 1.6c0 .1.1.2.2.2h.5c.1 0 .2-.1.2-.2l.5-1.5v2.3c0 .1.1.2.2.2h.5c.1 0 .2-.1.2-.2v-3.6c0-.2 0-.2-.1-.2z"/><path d="m150.8 45.8h-2.2c-.1 0-.2.1-.2.2v.4c0 .1.1.2.2.2h.6v2.9c0 .1.1.2.2.2h.5c.1 0 .2-.1.2-.2v-2.9h.7c.1 0 .2-.1.2-.2v-.4c0-.2-.1-.2-.2-.2z"/><path d="m129.8 72.1h-15.2c-.2 0-.4-.2-.4-.4s.2-.4.4-.4h15.2c.2 0 .4.2.4.4s-.2.4-.4.4z"/><path d="m175.4 72.1h-16c-.2 0-.4-.2-.4-.4s.2-.4.4-.4h16c.2 0 .4.2.4.4s-.2.4-.4.4z"/><path d="m156.2 72.1h-5.6c-.2 0-.4-.2-.4-.4s.2-.4.4-.4h5.6c.2 0 .4.2.4.4s-.2.4-.4.4z"/><path d="m37.2 44.6h-5.3v-2.1h-1.5v2.1h-4v1.6h7.7l-9 11.7h5.3v2.3h1.5v-2.3h4v-1.6h-7.7z"/></g><path d="m82.4 70.6c-10.4 0-18.8-8.4-18.8-18.8s8.4-18.8 18.8-18.8 18.8 8.4 18.8 18.8c.1 10.3-8.4 18.8-18.8 18.8zm0-36.8c-9.9 0-17.9 8-17.9 17.9s8 17.9 17.9 17.9 17.9-8 17.9-17.9-8-17.9-17.9-17.9z" fill="#e7c917"/><path d="m82.8 27.1c-.2 0-.5-.2-.5-.5v-4.5c0-.2.2-.5.5-.5s.5.2.5.5v4.5c-.1.3-.3.5-.5.5z" fill="#3d2fe7"/><path d="m87.9 29.8c-.1 0-.2 0-.3-.1-.2-.2-.2-.5 0-.6l3.2-3.2c.2-.2.5-.2.6 0s.2.5 0 .6l-3.2 3.2c0 .1-.1.1-.3.1z" fill="#3d2fe7"/><path d="m77.6 29.8c-.1 0-.2 0-.3-.1l-3.2-3.2c-.2-.2-.2-.5 0-.6s.5-.2.6 0l3.2 3.2c.2.2.2.5 0 .6-.1.1-.2.1-.3.1z" fill="#3d2fe7"/><path d="m79.9 57c-.1 0-.2 0-.3-.1l-4.8-4.8c-.2-.2-.2-.5 0-.6s.5-.2.6 0l4.5 4.5 10-10c.2-.2.5-.2.6 0s.2.5 0 .6l-10.3 10.3c-.1.1-.2.1-.3.1z" fill="#3d2fe7"/><circle cx="105.1" cy="68.9" fill="#fff" r=".9"/><circle cx="83.1" cy="10.9" fill="#fff" r=".9"/></svg>