<svg enable-background="new 0 0 192 90" viewBox="0 0 192 90" xmlns="http://www.w3.org/2000/svg"><path d="m58.4 54.4c-1 0-1.9-.8-1.9-1.9 0-1 .8-1.9 1.9-1.9s1.9.8 1.9 1.9c-.1 1-.9 1.9-1.9 1.9zm0-2.7c-.5 0-.9.4-.9.9s.4.9.9.9.9-.4.9-.9-.5-.9-.9-.9z" fill="#3d2fe7"/><circle cx="124.2" cy="74.2" fill="#e6e6e6" r="1.3"/><circle cx="70.8" cy="22.7" fill="#fff" r="1.3"/><path d="m55.9 32.2c-.3 0-.5-.2-.5-.5l-.1-4.2c0-.3.2-.5.5-.5s.5.2.5.5l.1 4.2c0 .3-.2.5-.5.5z" fill="#e7c917"/><path d="m53.8 30.1c-.3 0-.5-.2-.5-.5s.2-.5.5-.5l4.2-.1c.3 0 .5.2.5.5s-.2.5-.5.5z" fill="#e7c917"/><path d="m95.1 79.7c-16.2 0-29.5-13.2-29.5-29.5 0-14.4 10.8-27 25-29.1.2 0 .5.1.5.4s-.1.4-.3.5c-13.8 2.1-24.2 14.2-24.2 28.2 0 15.7 12.8 28.6 28.6 28.6 10.8 0 20.5-6 25.4-15.6.1-.2.4-.3.6-.2s.3.4.2.6c-5.1 9.9-15.2 16.1-26.3 16.1z" fill="#3d2fe7"/><path d="m120.2 36.1c-.2 0-.3-.1-.4-.2-4.4-7.6-12.2-12.8-20.9-14-.2 0-.4-.3-.4-.5s.3-.4.5-.4c8.9 1.2 17 6.6 21.5 14.4.1.2.1.5-.2.6.1.1 0 .1-.1.1z" fill="#3d2fe7"/><path d="m95.1 74.5c-13.4 0-24.3-10.9-24.3-24.3s10.9-24.3 24.3-24.3c8.4 0 16.1 4.2 20.6 11.3.1.2.1.5-.1.6s-.5.1-.6-.1c-4.3-6.8-11.7-10.9-19.8-10.9-12.9 0-23.4 10.5-23.4 23.4s10.5 23.4 23.4 23.4c8.5 0 16.3-4.6 20.4-12 .1-.2.4-.3.6-.2s.3.4.2.6c-4.4 7.7-12.5 12.5-21.3 12.5z" fill="#3d2fe7"/><path d="m109.5 63.4c-.1 0-.2 0-.3-.1-.2-.2-.2-.4 0-.6.4-.5.8-1 1.2-1.5.1-.2.4-.2.6-.1s.2.4.1.6c-.4.6-.8 1.1-1.3 1.6-.1 0-.2.1-.3.1z" fill="#e7c917"/><path d="m95.6 69.9c-.2 0-.4-.2-.4-.4s.2-.5.4-.5c1.3 0 2.6-.2 3.8-.5.2-.1.5.1.5.3.1.2-.1.5-.3.5-1.3.4-2.7.5-4 .6zm-4-.3c-1.4-.2-2.7-.6-4-1.1-.2-.1-.3-.4-.2-.6s.4-.3.6-.2c1.2.5 2.4.8 3.7 1.1.2 0 .4.3.4.5-.1.1-.3.3-.5.3zm11.6-1.5c-.2 0-.3-.1-.4-.3s0-.5.2-.6c1.2-.5 2.3-1.2 3.3-2 .2-.2.5-.1.6.1s.1.5-.1.6c-1.1.8-2.2 1.5-3.5 2.1 0 .1 0 .1-.1.1zm-18.8-1.5c-.1 0-.2 0-.3-.1-1.1-.8-2.2-1.6-3.1-2.6-.2-.2-.2-.5 0-.6.2-.2.5-.2.6 0 .9.9 1.9 1.8 3 2.5.2.1.3.4.1.6-.1.1-.2.2-.3.2zm-5.5-5.6c-.1 0-.3-.1-.4-.2-.7-1.1-1.3-2.4-1.8-3.6-.1-.2 0-.5.3-.6.2-.1.5 0 .6.3.5 1.2 1 2.4 1.7 3.4.1.2.1.5-.1.6s-.2.1-.3.1zm-2.8-7.4c-.2 0-.4-.2-.4-.4-.2-1-.2-2-.2-3 0-.3 0-.7 0-1 0-.2.2-.4.5-.4.2 0 .4.2.4.5v.9c0 1 .1 2 .2 2.9 0 .3-.2.5-.5.5zm.4-7.8h-.1c-.2-.1-.4-.3-.3-.5.3-1.3.8-2.6 1.4-3.8.1-.2.4-.3.6-.2s.3.4.2.6c-.6 1.2-1 2.4-1.4 3.6 0 .2-.2.3-.4.3zm3.5-7c-.1 0-.2 0-.3-.1-.2-.2-.2-.4-.1-.6.8-1.1 1.8-2 2.8-2.9.2-.2.5-.1.6.1.2.2.1.5-.1.6-1 .8-1.9 1.8-2.7 2.8.1 0-.1.1-.2.1zm24.9-4.6c-.1 0-.2 0-.2-.1-1.1-.7-2.3-1.2-3.5-1.6-.2-.1-.4-.3-.3-.6.1-.2.3-.4.6-.3 1.3.4 2.5 1 3.7 1.7.2.1.3.4.2.6-.2.2-.3.3-.5.3zm-18.9-.5c-.2 0-.3-.1-.4-.2-.1-.2 0-.5.2-.6 1.2-.6 2.4-1.2 3.7-1.5.2-.1.5.1.6.3s-.1.5-.3.6c-1.2.4-2.4.9-3.6 1.5 0-.1-.1-.1-.2-.1zm11.5-2.1c-1.3-.2-2.6-.2-3.9-.1-.2 0-.5-.2-.5-.4s.2-.5.4-.5c1.3-.1 2.7-.1 4 .1.2 0 .4.3.4.5s-.2.4-.4.4z" fill="#e7c917"/><path d="m109.5 38c-.1 0-.2-.1-.3-.2-.4-.5-.9-1-1.4-1.4-.2-.2-.2-.5 0-.6.2-.2.5-.2.6 0 .5.5 1 1 1.4 1.5.2.2.1.5 0 .6s-.2.1-.3.1z" fill="#e7c917"/><path d="m106.7 37.7v-.5l2.7.2v-2.6h.5v3.2z" fill="#e7c917"/><path d="m91 19.9c-.1 0-.2 0-.3-.1s-.1-.2-.1-.3v-2.3h-3.6c-.2 0-.5-.2-.5-.5v-5.5c0-.2.2-.5.5-.5h16.3c.2 0 .5.2.5.5v5.5c0 .2-.2.5-.5.5h-3.6v2.3c0 .1 0 .2-.1.3s-.2.1-.3.1c-3.6 0-8.3 0-8.3 0zm-3.6-3.6h3.6c.2 0 .5.2.5.5v2.2c1.2 0 4.5-.1 7.3 0v-2.3c0-.2.2-.5.5-.5h3.6v-4.6h-15.5z" fill="#e7c917"/><path d="m121.2 31.5c-.1 0-.2 0-.3-.1l-4.9-4.9c-.2-.2-.2-.5 0-.6l3-3c.2-.2.5-.2.6 0l4.9 4.9c.2.2.2.5 0 .6l-3 3c-.1.1-.2.1-.3.1zm-4.3-5.4 4.3 4.3 2.3-2.3-4.3-4.3z" fill="#e7c917"/><g fill="#3d2fe7"><path d="m126.3 21.2c-.1 0-.2 0-.3-.1-.2-.2-.2-.5 0-.6l3.4-3.4c.2-.2.5-.2.6 0s.2.5 0 .6l-3.4 3.4c-.1 0-.2.1-.3.1z"/><path d="m120.3 19.3c-.2 0-.5-.2-.5-.5v-4.8c0-.2.2-.5.5-.5s.5.2.5.5v4.8c-.1.3-.3.5-.5.5z"/><path d="m133 27.2h-4.8c-.2 0-.5-.2-.5-.5s.2-.5.5-.5h4.8c.2 0 .5.2.5.5s-.3.5-.5.5z"/><path d="m95.1 46.2c-.2 0-.5-.2-.5-.5v-15.8c0-.2.2-.5.5-.5s.5.2.5.5v15.9c-.1.2-.3.4-.5.4z"/><path d="m105 50.9h-5.3c-.4 0-.6-.3-.6-.6s.3-.6.6-.6h5.3c.4 0 .6.3.6.6s-.2.6-.6.6z"/><path d="m95.1 55.1c-2.7 0-4.9-2.2-4.9-4.9s2.2-4.9 4.9-4.9 4.9 2.2 4.9 4.9-2.2 4.9-4.9 4.9zm0-8.9c-2.2 0-4 1.8-4 4s1.8 4 4 4 4-1.8 4-4-1.8-4-4-4z"/><path d="m97 48.1h-1.7v-.7h-.5v.7h-1.2v.5h2.4l-2.8 3.7h1.6v.7h.5v-.7h1.3v-.5h-2.4z"/><path d="m70.8 74c-.1 0-.2 0-.3-.1-2.5-2.3-4.4-5.1-5.8-8.2-.1-.2 0-.5.2-.6s.5 0 .6.2c1.3 3 3.2 5.7 5.6 7.9.2.2.2.5 0 .6 0 .1-.2.2-.3.2z"/></g><path d="m122.5 64c-8 0-14.5-6.5-14.5-14.5s6.5-14.5 14.5-14.5 14.5 6.5 14.5 14.5-6.5 14.5-14.5 14.5zm0-28c-7.5 0-13.5 6-13.5 13.5s6 13.5 13.5 13.5 13.5-6 13.5-13.5-6-13.5-13.5-13.5z" fill="#e7c917"/><path d="m121.2 47.9c.1.4.3.7.5.9s.6.3 1 .3c.2 0 .4 0 .6-.1s.4-.2.5-.3c.2-.1.3-.3.4-.5s.1-.4.1-.6c0-.4-.1-.6-.2-.8s-.3-.4-.6-.5c-.2-.1-.5-.2-.8-.2s-.6 0-.8 0v-1c.4 0 .8 0 1.1-.1s.5-.1.7-.3c.2-.1.3-.3.3-.4.1-.2.1-.4.1-.6 0-.5-.1-.8-.4-1s-.6-.3-1-.3c-.3 0-.6.1-.8.3-.3.2-.4.4-.6.7l-1.2-.4c.2-.5.6-.9 1-1.2.5-.3 1-.4 1.5-.4.3 0 .7 0 1 .1s.6.2.8.4.4.4.6.7c.1.3.2.6.2 1s-.1.8-.4 1.2-.6.6-1 .7c.3 0 .5.1.7.3.2.1.4.3.5.5s.3.4.3.6c.1.2.1.5.1.7 0 .4-.1.8-.2 1.1-.2.3-.4.6-.6.8-.3.2-.6.4-.9.5s-.7.2-1.1.2c-.6 0-1.2-.1-1.7-.4s-.8-.8-1-1.4z" fill="#3d2fe7"/><path d="m117.9 53.2h.6v.5s0-.1.1-.2.1-.1.2-.2.2-.1.3-.2c.1 0 .2-.1.4-.1s.4 0 .6.1.3.2.4.4c.1-.2.2-.3.4-.4s.4-.1.6-.1.4 0 .6.1.3.2.4.3.2.3.2.4c0 .2.1.3.1.5v1.8h-.6v-1.8c0-.1 0-.2 0-.3s0-.2-.1-.3c0-.1-.1-.2-.2-.2s-.2-.1-.4-.1c-.3 0-.5.1-.6.3s-.2.4-.2.7v1.7h-.7v-1.7c0-.2 0-.3 0-.4s0-.2-.1-.3c0-.1-.1-.2-.2-.2-.1-.1-.2-.1-.4-.1-.1 0-.2 0-.3.1-.1 0-.2.1-.3.2s-.1.2-.2.3c0 .1-.1.3-.1.5v1.6h-.6v-2.9z" fill="#3d2fe7"/><path d="m123.5 52.1c0-.1 0-.2.1-.3s.2-.1.3-.1.2 0 .3.1.1.2.1.3 0 .2-.1.3-.2.1-.3.1-.2 0-.3-.1-.1-.2-.1-.3zm.1 1.1h.6v3.2h-.6z" fill="#3d2fe7"/><path d="m125.2 53.2h.6v.5c.1-.2.2-.3.4-.4s.4-.2.6-.2.3 0 .4.1c.1 0 .3.1.4.2s.2.2.3.4.1.3.1.5v2h-.6v-1.9c0-.1 0-.3-.1-.4 0-.1-.1-.2-.2-.3s-.1-.1-.2-.1-.2 0-.3 0-.2 0-.3.1c-.1 0-.2.1-.3.2s-.1.2-.2.3c0 .1-.1.3-.1.5v1.6h-.6v-3.1z" fill="#3d2fe7"/></svg>