<?xml version="1.0" encoding="utf-8"?>
<!-- Generator: Adobe Illustrator 21.1.0, SVG Export Plug-In . SVG Version: 6.00 Build 0)  -->
<svg version="1.0" id="Layer_1" xmlns="http://www.w3.org/2000/svg" xmlns:xlink="http://www.w3.org/1999/xlink" x="0px" y="0px"
	 viewBox="0 0 40 40" style="enable-background:new 0 0 40 40;" xml:space="preserve">
<style type="text/css">
	.st0{fill:none;}
	.st1{fill:#3D2FE7;}
	.st2{fill:none;stroke:#3D2FE7;stroke-width:0.9;stroke-linecap:round;stroke-linejoin:round;stroke-miterlimit:10;}
	.st3{fill:#E7C917;}
</style>
<g>
	<rect class="st0" width="40" height="40"/>
	<g>
		<g>
			<path class="st1" d="M16.4,30.2c-3.4,0-6.7-1.3-9.3-3.8c-2.5-2.5-3.8-5.8-3.8-9.3s1.4-6.8,3.8-9.3c5.1-5.1,13.4-5.1,18.5,0
				c2.5,2.5,3.8,5.8,3.8,9.3s-1.4,6.8-3.8,9.3C23.1,28.9,19.7,30.2,16.4,30.2z M16.4,4.9c-3.1,0-6.3,1.2-8.6,3.6
				c-2.3,2.3-3.6,5.4-3.6,8.6s1.3,6.3,3.6,8.6c4.8,4.8,12.5,4.8,17.3,0c2.3-2.3,3.6-5.4,3.6-8.6s-1.3-6.3-3.6-8.6
				C22.6,6.1,19.5,4.9,16.4,4.9z"/>
			<path class="st1" d="M27.1,6.8c-0.1,0-0.2,0-0.3-0.1c-1.4-1.4-3.1-2.5-4.9-3.2c-0.2-0.1-0.3-0.4-0.2-0.6c0.1-0.2,0.4-0.3,0.6-0.2
				c1.9,0.8,3.7,1.9,5.2,3.4c0.2,0.2,0.2,0.5,0,0.6C27.3,6.7,27.2,6.8,27.1,6.8z"/>
			<path class="st1" d="M16.4,26.8c-2.6,0-5.1-1-6.9-2.9c-3.8-3.8-3.8-10,0-13.8c1.8-1.8,4.3-2.9,6.9-2.9s5.1,1,6.9,2.9l0,0l0,0
				c3.8,3.8,3.8,10,0,13.8C21.4,25.8,19,26.8,16.4,26.8z M16.4,8.2c-2.4,0-4.6,0.9-6.3,2.6c-3.5,3.5-3.5,9.1,0,12.5
				c1.7,1.7,3.9,2.6,6.3,2.6s4.6-0.9,6.3-2.6c3.5-3.5,3.5-9.1,0-12.5l0,0C20.9,9.1,18.7,8.2,16.4,8.2z"/>
			<g>
				<g>
					<path class="st2" d="M18,16.3"/>
					<path class="st2" d="M13.1,16.3"/>
					<path class="st2" d="M18,17.9"/>
					<path class="st2" d="M13.1,17.9"/>
				</g>
			</g>
			<path class="st1" d="M27.6,28.7c-0.1,0-0.2,0-0.3-0.1L25,26.3c-0.2-0.2-0.2-0.5,0-0.6s0.5-0.2,0.6,0l2.2,2.2
				c0.2,0.2,0.2,0.5,0,0.6C27.8,28.7,27.7,28.7,27.6,28.7z"/>
			<path class="st3" d="M34.5,37.4c-0.6,0-1.2-0.2-1.6-0.7l-5.6-5.6c-0.9-0.9-0.9-2.3,0-3.2c0.9-0.9,2.3-0.9,3.2,0l5.6,5.6
				c0.4,0.4,0.7,1,0.7,1.6c0,0.6-0.2,1.2-0.7,1.6l0,0C35.6,37.2,35,37.4,34.5,37.4z M28.8,28.2c-0.4,0-0.7,0.1-1,0.4
				c-0.3,0.3-0.4,0.6-0.4,1c0,0.4,0.1,0.7,0.4,1l5.6,5.6c0.5,0.5,1.4,0.5,1.9,0l0,0c0.3-0.3,0.4-0.6,0.4-1c0-0.4-0.1-0.7-0.4-1
				l-5.6-5.6C29.6,28.3,29.2,28.2,28.8,28.2z"/>
		</g>
	</g>
</g>
</svg>
