<svg enable-background="new 0 0 192 90" viewBox="0 0 192 90" xmlns="http://www.w3.org/2000/svg"><g fill="#3d2fe7"><path d="m112 51.3h-6c-.2 0-.5-.2-.5-.5s.2-.5.5-.5h6c4.5 0 8.2-3.7 8.2-8.2v-11.7c0-.2.2-.5.5-.5s.5.2.5.5v11.8c0 5-4.1 9.1-9.2 9.1z"/><path d="m120.2 19.9c-.2 0-.4-.1-.4-.3-1.8-6.3-7.6-10.7-14.1-10.7s-12.3 4.4-14.1 10.6c-.1.2-.3.4-.6.3-.2-.1-.4-.3-.3-.6 1.9-6.6 8-11.2 14.9-11.2s13.1 4.7 15 11.3c.1.2-.1.5-.3.6-.1 0-.1 0-.1 0z"/><path d="m102.7 51.3h-3.4c-5 0-9.1-4.1-9.1-9.1v-11.9c0-.2.2-.5.5-.5s.5.2.5.5v11.9c0 4.5 3.7 8.2 8.2 8.2h3.4c.2 0 .5.2.5.5s-.4.4-.6.4z"/><path d="m105.7 44.8c-1.4 0-2.8-.5-3.9-1.6-.2-.2-.2-.5 0-.6.2-.2.5-.2.6 0 1.8 1.8 4.7 1.8 6.5 0 .2-.2.5-.2.6 0 .2.2.2.5 0 .6-1 1-2.4 1.6-3.8 1.6z"/><path d="m99.6 57.7c-.2 0-.5-.2-.5-.5v-6c0-.2.2-.5.5-.5s.5.2.5.5v6c0 .3-.2.5-.5.5z"/><path d="m111.7 57.7c-.2 0-.5-.2-.5-.5v-6.4c0-.2.2-.5.5-.5s.5.2.5.5v6.4c-.1.3-.3.5-.5.5z"/><path d="m115.6 35.9c-.2 0-.5-.2-.5-.5 0-.9-.8-1.7-1.7-1.7s-1.7.8-1.7 1.7c0 .2-.2.5-.5.5s-.5-.2-.5-.5c0-1.4 1.2-2.6 2.6-2.6s2.6 1.2 2.6 2.6c.2.3 0 .5-.3.5z"/><path d="m100.3 35.6c-.2 0-.5-.2-.5-.5 0-.9-.8-1.7-1.7-1.7s-1.7.8-1.7 1.7c0 .2-.2.5-.5.5s-.5-.2-.5-.5c0-1.4 1.2-2.6 2.6-2.6s2.6 1.2 2.6 2.6c.2.3 0 .5-.3.5z"/><path d="m98.2 39.9c-3 0-5.5-2.5-5.5-5.5s2.5-5.5 5.5-5.5 5.5 2.5 5.5 5.5-2.5 5.5-5.5 5.5zm0-10.1c-2.5 0-4.6 2.1-4.6 4.6s2.1 4.6 4.6 4.6 4.6-2.1 4.6-4.6-2.1-4.6-4.6-4.6z"/><path d="m113.5 39.9c-3 0-5.5-2.5-5.5-5.5s2.5-5.5 5.5-5.5 5.5 2.5 5.5 5.5-2.5 5.5-5.5 5.5zm0-10.1c-2.5 0-4.6 2.1-4.6 4.6s2.1 4.6 4.6 4.6 4.6-2.1 4.6-4.6c-.1-2.5-2.1-4.6-4.6-4.6z"/><path d="m108.8 34.9h-6c-.2 0-.5-.2-.5-.5s.2-.5.5-.5h6c.2 0 .5.2.5.5s-.2.5-.5.5z"/><path d="m93.2 34.9h-5.7c-.2 0-.5-.2-.5-.5s.2-.5.5-.5h5.7c.2 0 .5.2.5.5s-.3.5-.5.5z"/><path d="m123.9 34.9h-4.8c-.2 0-.5-.2-.5-.5s.2-.5.5-.5h4.8c.2 0 .5.2.5.5s-.3.5-.5.5z"/></g><path d="m97.6 57.3h-7.1" fill="#f5f7f9"/><path d="m97.6 57.7h-7.1c-.2 0-.5-.2-.5-.5s.2-.5.5-.5h7.1c.2 0 .5.2.5.5s-.3.5-.5.5z" fill="#3d2fe7"/><path d="m129.3 78.5c-.2 0-.5-.2-.5-.5v-11.2c0-5-4.1-9.1-9.1-9.1h-17.9c-.2 0-.5-.2-.5-.5s.2-.5.5-.5h17.9c5.5 0 10 4.5 10 10v11.2c.1.4-.1.6-.4.6z" fill="#3d2fe7"/><path d="m99.9 62c-.1 0-.2 0-.3-.1-.2-.2-.2-.4 0-.6l2.9-3.3c.2-.2.4-.2.6 0s.2.4 0 .6l-2.9 3.3c-.1 0-.2.1-.3.1z" fill="#3d2fe7"/><path d="m111.5 62.1c-.1 0-.2-.1-.3-.2l-3-3.4c-.2-.2-.1-.5 0-.6.2-.2.5-.1.6 0l3 3.4c.2.2.1.5 0 .6 0 .2-.1.2-.3.2z" fill="#3d2fe7"/><path d="m91.5 30.8h-1.7c-1.7 0-3.2-1.4-3.2-3.2v-5.3c0-1.7 1.4-3.2 3.2-3.2h1.7c1.7 0 3.2 1.4 3.2 3.2v5.3c0 1.7-1.4 3.2-3.2 3.2zm-1.7-10.8c-1.3 0-2.3 1-2.3 2.3v5.3c0 1.3 1 2.3 2.3 2.3h1.7c1.3 0 2.3-1 2.3-2.3v-5.3c0-1.3-1-2.3-2.3-2.3z" fill="#3d2fe7"/><path d="m121.4 30.8h-1.7c-1.7 0-3.2-1.4-3.2-3.2v-5.3c0-1.7 1.4-3.2 3.2-3.2h1.7c1.7 0 3.2 1.4 3.2 3.2v5.3c-.1 1.8-1.5 3.2-3.2 3.2zm-1.8-10.8c-1.2 0-2.3 1-2.3 2.3v5.3c0 1.2 1 2.3 2.3 2.3h1.7c1.2 0 2.3-1 2.3-2.3v-5.3c0-1.2-1-2.3-2.3-2.3z" fill="#3d2fe7"/><path d="m112.5 20h-13.2c-.2 0-.5-.2-.5-.5s.2-.5.5-.5h13.1c.2 0 .5.2.5.5s-.2.5-.4.5z" fill="#3d2fe7"/><path d="m111.3 23h-10.7c-.2 0-.5-.2-.5-.5s.2-.5.5-.5h10.7c.2 0 .5.2.5.5s-.3.5-.5.5z" fill="#3d2fe7"/><path d="m105.7 38.6c-.2 0-.5-.2-.5-.5v-12.5c0-.2.2-.5.5-.5s.5.2.5.5v12.6c-.1.2-.3.4-.5.4z" fill="#3d2fe7"/><path d="m108.2 62.8h-5c-.3 0-.5-.2-.5-.5v-5c0-.3.2-.5.5-.5h5c.3 0 .5.2.5.5v5c0 .3-.3.5-.5.5zm-4.6-1h4v-4h-4z" fill="#e7c917"/><path d="m107.5 67.7c-.2 0-.4-.2-.4-.4l-.4-4.5h-2.1l-.4 4.4c0 .2-.2.4-.5.4-.2 0-.4-.2-.4-.5l.5-4.8c0-.2.2-.4.4-.4h2.9c.2 0 .4.2.4.4l.5 4.9c0 .2-.2.4-.5.5.1 0 .1 0 0 0z" fill="#e7c917"/><path d="m105.5 70c-.1 0-.3-.1-.4-.2l-9-12.2c-.1-.2-.1-.5.1-.6s.5-.1.6.1l9 12.2c.1.2.1.5-.1.6 0 0-.1.1-.2.1z" fill="#3d2fe7"/><path d="m105.5 75c-.1 0-.3-.1-.4-.2l-13-17.2c-.1-.2-.1-.5.1-.6s.5-.1.6.1l13 17.2c.1.2.1.5-.1.6 0 0-.1.1-.2.1z" fill="#3d2fe7"/><path d="m103.7 72.6c-.1 0-.2 0-.3-.1-.2-.2-.2-.4-.1-.6l11.5-14.9c.2-.2.4-.2.6-.1.2.2.2.4.1.6l-11.4 14.9c-.1.2-.2.2-.4.2z" fill="#3d2fe7"/><path d="m105.5 75c-.1 0-.2 0-.3-.1-.2-.2-.2-.4-.1-.6l13.7-17.3c.2-.2.4-.2.6-.1.2.2.2.4.1.6l-13.6 17.2c-.1.2-.3.3-.4.3z" fill="#3d2fe7"/><path d="m76.4 73.7c-3.7 0-7.5-1.4-10.3-4.3-2.8-2.8-4.3-6.4-4.3-10.3s1.5-7.6 4.3-10.3 6.4-4.3 10.3-4.3 7.6 1.5 10.3 4.3 4.3 6.4 4.3 10.3-1.5 7.6-4.3 10.3c-2.8 2.9-6.6 4.3-10.3 4.3zm0-28.3c-3.5 0-7 1.3-9.7 4-5.3 5.3-5.3 14 0 19.4 5.3 5.3 14 5.3 19.4 0 5.3-5.3 5.3-14 0-19.4-2.7-2.6-6.2-4-9.7-4z" fill="#e7c917"/><path d="m88.4 47.6c-.1 0-.2 0-.3-.1-1.6-1.6-3.4-2.8-5.5-3.6-.2-.1-.3-.4-.2-.6s.4-.3.6-.2c2.2.9 4.1 2.2 5.8 3.8.2.2.2.5 0 .6s-.3.1-.4.1z" fill="#3d2fe7"/><path d="m76.4 70c-2.8 0-5.6-1.1-7.7-3.2-4.2-4.2-4.2-11.1 0-15.3s11.1-4.2 15.3 0 4.2 11.1 0 15.3c-2 2.1-4.8 3.2-7.6 3.2zm0-20.8c-2.5 0-5.1 1-7 2.9-3.9 3.9-3.9 10.2 0 14.1s10.2 3.9 14.1 0 3.9-10.2 0-14.1c-2-1.9-4.5-2.9-7.1-2.9z" fill="#e7c917"/><path d="m78.2 63.8c-2.6 0-4.7-2.1-4.7-4.7s2.1-4.7 4.7-4.7c.2 0 .5.2.5.5s-.2.5-.5.5c-2.1 0-3.8 1.7-3.8 3.8s1.7 3.8 3.8 3.8c.2 0 .5.2.5.5s-.2.3-.5.3z" fill="#3d2fe7"/><path d="m78.2 58.7h-5.4c-.2 0-.5-.2-.5-.5s.2-.5.5-.5h5.4c.2 0 .5.2.5.5s-.2.5-.5.5z" fill="#3d2fe7"/><path d="m78.2 60.5h-5.4c-.2 0-.5-.2-.5-.5s.2-.5.5-.5h5.4c.2 0 .5.2.5.5s-.2.5-.5.5z" fill="#3d2fe7"/><path d="m88.9 72.1c-.1 0-.2 0-.3-.1l-2.5-2.5c-.2-.2-.2-.5 0-.6s.5-.2.6 0l2.5 2.5c.2.2.2.5 0 .6-.1 0-.2.1-.3.1z" fill="#e7c917"/><path d="m96.6 81.9c-.6 0-1.2-.2-1.6-.7l-6.6-6.6c-.9-.9-.9-2.3 0-3.2l.3-.3c.9-.9 2.3-.9 3.2 0l6.6 6.6c.9.9.9 2.3 0 3.2l-.3.3c-.4.5-1 .7-1.6.7zm-6.3-10.5c-.4 0-.7.1-1 .4l-.3.3c-.5.5-.5 1.4 0 1.9l6.6 6.6c.5.5 1.4.5 1.9 0l.3-.3c.5-.5.5-1.4 0-1.9l-6.6-6.6c-.2-.3-.5-.4-.9-.4z" fill="#e7c917"/><path d="m62.4 44.1c-.1 0-.2 0-.3-.1l-2.9-3c-.2-.2-.2-.5 0-.6s.5-.2.6 0l2.9 2.9c.2.2.2.5 0 .6 0 .2-.2.2-.3.2z" fill="#3d2fe7"/><path d="m67.6 42.5c-.2 0-.5-.2-.5-.5v-4.2c0-.2.2-.5.5-.5s.5.2.5.5v4.2c-.1.3-.3.5-.5.5z" fill="#3d2fe7"/><path d="m60.8 49.3h-4.2c-.2 0-.5-.2-.5-.5s.2-.5.5-.5h4.2c.2 0 .5.2.5.5s-.2.5-.5.5z" fill="#3d2fe7"/><circle cx="127.5" cy="47.8" fill="#e6e6e6" r="1.3"/><circle cx="79.2" cy="31.6" fill="#fff" r="1.3"/><path d="m69.1 79.4c-.8 0-1.2-.3-1.5-.6-.3-.2-.5-.4-.9-.4s-.6.2-.9.4c-.3.3-.7.6-1.5.6s-1.2-.3-1.5-.6c-.3-.2-.5-.4-.9-.4-.2 0-.5-.2-.5-.5s.2-.5.5-.5c.8 0 1.2.3 1.5.6.3.2.5.4.9.4s.6-.2.9-.4c.3-.3.7-.6 1.5-.6s1.2.3 1.5.6c.3.2.5.4.9.4s.6-.2.9-.4c.3-.3.7-.6 1.5-.6.2 0 .5.2.5.5s-.2.5-.5.5c-.4 0-.6.2-.9.4-.3.3-.7.6-1.5.6z" fill="#3d2fe7"/><path d="m131.4 19.6c-.1 0-.3 0-.3-.1-.2-.2-.2-.5 0-.7l2.9-3c.2-.2.5-.2.7 0s.2.5 0 .7l-2.9 3c-.1.1-.3.1-.4.1z" fill="#e7c917"/><path d="m134.4 19.6c-.1 0-.3 0-.3-.1l-3-2.9c-.2-.2-.2-.5 0-.7s.5-.2.7 0l3 2.9c.2.2.2.5 0 .7-.1 0-.3.1-.4.1z" fill="#e7c917"/></svg>