<svg enable-background="new 0 0 250 76.8" viewBox="0 0 250 76.8" xmlns="http://www.w3.org/2000/svg"><circle cx="30.3" cy="44.1" r="16" style="fill:none;stroke:#36325d;stroke-width:1.5;stroke-linecap:round;stroke-linejoin:round;stroke-miterlimit:10"/><path d="m26 50.2h3.3v-10.4c0-.3 0-.6 0-.9l-2.7 2.3c-.1.1-.1.1-.2.1s-.1 0-.2 0-.2 0-.3-.1c-.1 0-.1-.1-.2-.2l-.6-.8 4.5-3.9h1.5v13.8h3v1.4h-8.1z" fill="#36325d"/><path d="m35.1 50.4c0-.2 0-.4.1-.5s.2-.3.3-.4.3-.2.4-.3c.2-.1.3-.1.5-.1s.4 0 .5.1c.2.1.3.2.4.3s.2.3.3.4c.1.2.1.3.1.5s0 .4-.1.5c-.1.2-.2.3-.3.4s-.3.2-.4.3c-.2.1-.3.1-.5.1s-.4 0-.5-.1c-.2-.1-.3-.2-.4-.3s-.2-.3-.3-.4c0-.1-.1-.3-.1-.5z" fill="#36325d"/><circle cx="81.9" cy="44.1" r="16" style="fill:none;stroke:#36325d;stroke-width:1.5;stroke-linecap:round;stroke-linejoin:round;stroke-miterlimit:10"/><path d="m81.6 36.3c.6 0 1.2.1 1.8.3s1 .5 1.4.8c.4.4.7.8.9 1.3s.3 1.1.3 1.8c0 .6-.1 1.1-.3 1.6s-.4.9-.7 1.4c-.3.4-.6.9-1 1.3s-.8.8-1.2 1.3l-4 4.1c.3-.1.6-.1.8-.2s.6-.1.8-.1h5c.2 0 .4.1.5.2s.2.3.2.5v1.1h-10v-.6c0-.1 0-.3.1-.4s.1-.3.3-.4l4.8-4.8c.4-.4.8-.8 1.1-1.2s.6-.7.8-1.1.4-.8.5-1.1c.1-.4.2-.8.2-1.2s-.1-.8-.2-1.2c-.1-.3-.3-.6-.6-.8-.2-.2-.5-.4-.9-.5-.3-.1-.7-.2-1.1-.2s-.7.1-1 .2-.6.3-.9.5c-.2.2-.5.4-.6.7-.2.3-.3.6-.4.9-.1.2-.1.3-.3.4-.1.1-.3.1-.4.1h-.1-.1l-1-.2c.1-.7.3-1.3.6-1.8s.6-1 1.1-1.3c.4-.4.9-.6 1.5-.8.9-.5 1.5-.6 2.1-.6z" fill="#36325d"/><path d="m87.4 50.4c0-.2 0-.4.1-.5.1-.2.2-.3.3-.4s.3-.2.4-.3.3-.1.5-.1.4 0 .5.1c.2.1.3.2.4.3s.2.3.3.4.1.3.1.5 0 .4-.1.5c-.1.2-.2.3-.3.4s-.3.2-.4.3c-.2.1-.3.1-.5.1s-.4 0-.5-.1c-.2-.1-.3-.2-.4-.3s-.2-.3-.3-.4c-.1-.2-.1-.3-.1-.5z" fill="#36325d"/><circle cx="134.1" cy="44.1" r="16.1" style="fill:none;stroke:#36325d;stroke-width:1.5;stroke-linecap:round;stroke-linejoin:round;stroke-miterlimit:10"/><path d="m134.1 36.3c.6 0 1.2.1 1.8.3.5.2 1 .4 1.4.8s.7.7.9 1.2.3 1 .3 1.6c0 .5-.1.9-.2 1.3s-.3.7-.5 1-.5.5-.8.7-.7.4-1.1.5c1 .3 1.7.7 2.2 1.3s.7 1.4.7 2.3c0 .7-.1 1.3-.4 1.9-.3.5-.6 1-1.1 1.4s-1 .7-1.6.9-1.2.3-1.9.3c-.8 0-1.5-.1-2-.3-.6-.2-1-.5-1.4-.8s-.7-.8-1-1.2c-.2-.5-.5-1-.6-1.5l.8-.3c.1-.1.3-.1.4-.1s.3 0 .4.1.2.2.2.3v.1.1c.1.2.2.4.4.7.1.3.3.5.6.7.2.2.5.4.9.6s.8.2 1.3.2 1-.1 1.4-.3.7-.4 1-.7.5-.6.6-.9.2-.7.2-1c0-.4-.1-.8-.2-1.1s-.3-.6-.6-.9c-.3-.2-.7-.4-1.2-.6-.5-.1-1.1-.2-1.9-.2v-1.4c.6 0 1.2-.1 1.6-.2s.8-.3 1.1-.5.5-.5.6-.8.2-.7.2-1.1-.1-.8-.2-1.1-.3-.6-.6-.8c-.2-.2-.5-.4-.8-.5s-.7-.2-1-.2c-.4 0-.7.1-1 .2s-.6.3-.8.5-.5.4-.6.7c-.2.3-.3.6-.4.9-.1.2-.1.3-.3.4-.1.1-.3.1-.4.1h-.1-.1l-1-.2c.1-.7.3-1.3.6-1.8s.6-1 1.1-1.3c.4-.4.9-.6 1.5-.8.4-.4 1-.5 1.6-.5z" fill="#36325d"/><path d="m139.6 50.2c0-.2 0-.4.1-.5.1-.2.2-.3.3-.4s.3-.2.4-.3c.2-.1.3-.1.5-.1s.4 0 .5.1c.2.1.3.2.4.3s.2.3.3.4c.1.2.1.3.1.5s0 .4-.1.5c-.1.2-.2.3-.3.4s-.3.2-.4.3c-.2.1-.3.1-.5.1s-.4 0-.5-.1c-.2-.1-.3-.2-.4-.3s-.2-.3-.3-.4-.1-.3-.1-.5z" fill="#36325d"/><path d="m200.5 20.7c-12.9 0-23.4 10.5-23.4 23.4s10.5 23.4 23.4 23.4 23.4-10.5 23.4-23.4-10.5-23.4-23.4-23.4m0 50.7c-15.1 0-27.4-12.3-27.4-27.4s12.3-27.4 27.4-27.4 27.4 12.3 27.4 27.4-12.3 27.4-27.4 27.4" fill="#3d30e7"/><path d="m202.1 33.4v-3.7h-2v3.7h-7.6v3h11.9l-13 19.5v.1h8.6v3.5h2v-3.5h7.4v-3h-12.4l13-19.5v-.2h-7.9z" fill="#3d30e7"/><g fill="none" stroke="#e7c917" stroke-linecap="round" stroke-linejoin="round" stroke-miterlimit="10"><path d="m10.9 37.5c.5-1.6 2.3-6.6 7.4-10.2 4.8-3.4 9.7-3.6 11.4-3.6" stroke-width="1.5"/><path d="m229.8 54.2c-1.9 6.6-7.7 14.4-15.5 17.2" stroke-width="1.5"/><path d="m50.8 44.1h9.9" stroke-width="2"/><path d="m102.3 44.1h10.2" stroke-width="2"/><path d="m155.1 44.1h11.8" stroke-width="2"/><path d="m177.9 11 6.2 5.7" stroke-width="1.5"/><path d="m200.7 5v8.8" stroke-width="1.5"/><path d="m223.9 8-5.5 8.7" stroke-width="1.5"/></g></svg>