<?xml version="1.0" encoding="utf-8"?>
<!-- Generator: Adobe Illustrator 21.1.0, SVG Export Plug-In . SVG Version: 6.00 Build 0)  -->
<svg version="1.0" id="Layer_1" xmlns="http://www.w3.org/2000/svg" xmlns:xlink="http://www.w3.org/1999/xlink" x="0px" y="0px"
	 viewBox="0 0 40 40" style="enable-background:new 0 0 40 40;" xml:space="preserve">
<style type="text/css">
	.st0{fill:none;}
	.st1{fill:#3D2FE7;}
	.st2{fill:#E7C917;}
</style>
<g>
	<rect class="st0" width="40" height="40"/>
	<g>
		<path class="st1" d="M21.4,37.5c0,0-0.1,0-0.1,0c-6.8-2.1-10.5-6.4-12.1-8.8c-1.2-1.9-1.9-4.1-1.9-6.3V6c0-0.1,0.1-0.2,0.1-0.3
			c0.1-0.1,0.2-0.1,0.3-0.1c0.1,0,6.1,0.3,10-2c0.1,0,1.6-1,3.6-1s3.5,1,3.6,1c3.9,2.3,9.9,2,10,2c0.1,0,0.2,0,0.3,0.1
			c0.1,0.1,0.1,0.2,0.1,0.3v16.3c0,2.3-0.6,4.5-1.9,6.3c-1.6,2.4-5.3,6.8-12.1,8.8C21.5,37.4,21.4,37.5,21.4,37.5z M8.2,6.5v15.8
			c0,2.1,0.6,4.1,1.7,5.8c1.5,2.3,5,6.4,11.5,8.4c6.5-2,10-6.1,11.5-8.4c1.1-1.7,1.7-3.7,1.7-5.8V6.5c-1.6,0-6.5,0-10.1-2.1
			c0,0-1.4-0.9-3.1-0.9c-1.7,0-3.1,0.9-3.1,0.9C14.7,6.4,9.8,6.5,8.2,6.5z"/>
		<g>
			<path class="st1" d="M25.4,16.4c-0.2,0-0.5-0.2-0.5-0.5c0-2-1.6-3.6-3.6-3.6S17.8,14,17.8,16c0,0.2-0.2,0.5-0.5,0.5
				s-0.5-0.2-0.5-0.5c0-2.5,2-4.5,4.5-4.5s4.5,2,4.5,4.5C25.9,16.2,25.7,16.4,25.4,16.4z"/>
			<path class="st2" d="M27.3,26.3H15.5c-0.2,0-0.5-0.2-0.5-0.5V16c0-0.2,0.2-0.5,0.5-0.5h11.7c0.2,0,0.5,0.2,0.5,0.5v9.9
				C27.7,26.1,27.5,26.3,27.3,26.3z M16,25.4h10.8v-9H16V25.4z"/>
			<path class="st1" d="M21.4,22c-1.1,0-2-0.9-2-2s0.9-2,2-2c1.1,0,2,0.9,2,2S22.5,22,21.4,22z M21.4,18.9c-0.6,0-1.1,0.5-1.1,1.1
				s0.5,1.1,1.1,1.1s1.1-0.5,1.1-1.1S22,18.9,21.4,18.9z"/>
			<path class="st1" d="M21.4,23.8c-0.2,0-0.5-0.2-0.5-0.5v-1.9c0-0.2,0.2-0.5,0.5-0.5s0.5,0.2,0.5,0.5v1.9
				C21.9,23.6,21.7,23.8,21.4,23.8z"/>
		</g>
		<path class="st1" d="M21.4,8.4C21.2,8.4,21,8.2,21,8V3.5C21,3.2,21.2,3,21.4,3s0.5,0.2,0.5,0.5V8C21.9,8.2,21.7,8.4,21.4,8.4z"/>
		<path class="st1" d="M5,17.5c-0.2,0-0.5-0.2-0.5-0.5v-4.8c0-0.2,0.2-0.5,0.5-0.5s0.5,0.2,0.5,0.5v4.8C5.4,17.3,5.2,17.5,5,17.5z"
			/>
		<path class="st1" d="M21.4,36.8c-0.2,0-0.5-0.2-0.5-0.5v-4.5c0-0.2,0.2-0.5,0.5-0.5s0.5,0.2,0.5,0.5v4.5
			C21.9,36.6,21.7,36.8,21.4,36.8z"/>
	</g>
</g>
</svg>
