<svg xmlns="http://www.w3.org/2000/svg" xmlns:xlink="http://www.w3.org/1999/xlink" viewBox="0 0 797.6 506.4" xmlns:v="https://vecta.io/nano"><style><![CDATA[.J{fill:#3d2fe7}.K{fill:#e7c917}]]></style><path d="M276.5 495.9H17.9c-.7 0-1.4-.6-1.4-1.3h0c0-.9.5-1.4 1.4-1.4h258.5c.7 0 1.4.5 1.4 1.4 0 .7-.6 1.3-1.3 1.3m-265.4 0H4.2c-.7 0-1.4-.6-1.4-1.3h0c0-.9.5-1.4 1.4-1.4h6.9c.7 0 1.4.5 1.4 1.4 0 .7-.6 1.3-1.4 1.3h0 0zm785.1 0H509.7c-.7 0-1.4-.6-1.4-1.3h0c0-.9.5-1.4 1.4-1.4h286.5c.7 0 1.4.5 1.4 1.4 0 .7-.6 1.3-1.4 1.3h0 0zm-422.6 0h-37.7c-.7 0-1.4-.6-1.4-1.3h0c0-.9.5-1.4 1.4-1.4h37.7c.7 0 1.4.5 1.4 1.4 0 .7-.6 1.3-1.4 1.3h0 0zm81.8 0h-30.2c-.7 0-1.4-.6-1.4-1.3h0c0-.9.5-1.4 1.4-1.4h30.2c.7 0 1.4.5 1.4 1.4s-.6 1.3-1.4 1.3h0z" class="J"/><path d="M335.8 264h-70c-.7 0-1.4-.6-1.4-1.3h0c0-.9.5-1.4 1.4-1.4h70c3.1 0 5.5-1.9 5.5-4.3s-2.4-4.3-5.5-4.3h-70c-.7 0-1.4-.6-1.4-1.3h0c0-.9.5-1.4 1.4-1.4h70c4.5 0 8.1 3.1 8.1 6.8-.1 3.8-3.8 7.2-8.1 7.2h0zm-187.3 46.9c-.7 0-1.4-.6-1.4-1.3h0v-12c0-19.3 15.8-35.2 35.4-35.2h13.4c.7 0 1.4.6 1.4 1.3h0c0 .9-.5 1.4-1.4 1.4h-13.4c-18 0-32.8 14.7-32.8 32.7v12c.2.4-.3 1.1-1.2 1.1z" fill="#3c30e7"/><g class="J"><path d="M348.5 265h-84.4c-.7 0-1.4-.6-1.4-1.3h0c0-.9.5-1.4 1.4-1.4h84.4c.7 0 1.4.6 1.4 1.3h0c0 .8-.6 1.4-1.4 1.4h0 0zm46.5 0h-20.9c-.7 0-1.4-.6-1.4-1.3h0c0-.9.5-1.4 1.4-1.4H395c.7 0 1.4.6 1.4 1.3h0c0 .8-.6 1.4-1.4 1.4h0 0zm172.6 45.9c-.7 0-1.4-.6-1.4-1.3h0v-12c0-18-14.8-32.7-32.8-32.7h-49.6c-.7 0-1.4-.6-1.4-1.3h0c0-.9.5-1.4 1.4-1.4h49.6c19.4 0 35.4 15.7 35.4 35.2v12c.1.7-.3 1.4-1 1.5h-.2 0zm-352.1-91h-.9c-6.7 0-12.2-5.5-12.2-12.1v-46c0-.7.5-1.4 1.4-1.4s1.4.5 1.4 1.4v46c0 5.3 4.3 9.6 9.6 9.6h.9c.7 0 1.4.6 1.4 1.3h0c-.1.8-.9 1.2-1.6 1.2zm46.3 0c-.7 0-1.4-.6-1.4-1.3h0c0-.9.5-1.4 1.4-1.4 5.3 0 9.6-4.3 9.6-9.6v-42.1c0-.7.5-1.4 1.4-1.4s1.4.5 1.4 1.4v42.1c0 6.8-5.5 12.3-12.3 12.3h-.1 0zm-25.6-9.8h-3.9-.2c-12.4-.3-22.3-10.4-22.3-22.9v-22.7c0-.7.5-1.4 1.4-1.4s1.4.5 1.4 1.4v22.7a20.36 20.36 0 0 0 20.4 20.4h3.4c.7 0 1.4.6 1.4 1.3h0c0 .9-.9 1.2-1.6 1.2h0zm7.8 0c-.7 0-1.4-.6-1.4-1.3h0c0-.9.5-1.4 1.4-1.4a20.36 20.36 0 0 0 20.4-20.4v-21.7c0-.7.5-1.4 1.4-1.4s1.4.5 1.4 1.4v21.9c-.2 12.6-10.5 22.9-23.2 22.9h0z"/><path d="M257.7 179.8c-.7 0-1.4-.6-1.4-1.3h0a3.12 3.12 0 0 0-3.1-3.1 3.12 3.12 0 0 0-3.1 3.1c0 .7-.6 1.4-1.3 1.4h0c-.9 0-1.4-.5-1.4-1.4 0-3.1 2.6-5.6 5.7-5.6s5.7 2.6 5.7 5.6c.1.6-.4 1.3-1.1 1.3h0zm-29-.7c-.7 0-1.4-.6-1.4-1.3h0a3.12 3.12 0 0 0-3.1-3.1 3.12 3.12 0 0 0-3.1 3.1c0 .7-.6 1.4-1.3 1.4h0c-.9 0-1.4-.5-1.4-1.4 0-3.1 2.6-5.6 5.7-5.6s5.7 2.6 5.7 5.6c.3.7-.4 1.3-1.1 1.3zm44.4-12.6c-37.8 0-48.6-9.7-51.7-14.5-5.5 8.9-16.8 11.5-17.3 11.6-.3 0-.9 0-1-.2-.3-.2-.5-.7-.5-1v-13c0-19.8 16.1-35.9 36-35.9s36 16.1 36 35.9v15.9c-.3.7-.8 1.2-1.5 1.2h0zm-51.6-18.7c.7 0 1.2.5 1.2 1 0 .2 3.6 14.9 49.1 15.1v-14.5c0-18.3-14.9-33.4-33.5-33.4s-33.5 14.9-33.5 33.4v11.3c3.6-1.2 12-4.4 15.3-12 .4-.5.9-.9 1.4-.9zm46.5 7.9c-36.9 0-39.5-12.5-39.6-13-.2-.7.3-1.4 1-1.5.7-.2 1.4.3 1.5 1 0 .2 3.1 10.9 37.1 10.9.7 0 1.4.6 1.4 1.3h0c0 1-.7 1.3-1.4 1.3zM238.5 193c-2.8 0-5.5-1.1-7.6-3.1-.5-.5-.5-1.4 0-1.9s1.4-.5 1.9 0c3.1 3.1 8.2 3.1 11.5 0 .5-.5 1.4-.5 1.9 0s.5 1.4 0 1.9c-2.4 1.9-5 3.1-7.7 3.1z"/></g><path d="M363.6 249.6c-.7 0-1.4-.6-1.4-1.3h0v-8.2c0-.7.5-1.4 1.4-1.4s1.4.5 1.4 1.4v8.2c0 .7-.6 1.3-1.4 1.3h0 0zm9.4 5c-.3 0-.6-.1-.9-.3-.5-.5-.5-1.4 0-1.9l5.8-5.8c.5-.5 1.4-.5 1.9 0s.5 1.4 0 1.9l-5.8 5.8c-.3.1-.6.3-1 .3h0zm-18.9 0c-.3 0-.6-.1-.9-.3l-5.8-5.8c-.5-.5-.5-1.4 0-1.9s1.4-.5 1.9 0l5.8 5.8c.5.5.5 1.4 0 1.9-.3.1-.6.3-1 .3z" class="K"/><g class="J"><path d="M171.5 470.6h-43.6c-4.3 0-7.9-3.6-7.9-7.9V346.6c0-16.3 13.4-29.6 29.7-29.6s29.7 13.3 29.7 29.6v116.1c0 4.3-3.6 7.9-7.9 7.9zm-21.8-151c-14.9 0-27.1 12.1-27.1 27v116.1a5.34 5.34 0 0 0 5.3 5.3h43.6a5.34 5.34 0 0 0 5.3-5.3V346.6c.1-14.9-12.1-27-27.1-27zm440.9 151h-43.8c-4.3 0-7.9-3.4-7.9-7.9V346.4c0-16.3 13.4-29.6 29.7-29.6s29.7 13.3 29.7 29.6v116.3c.2 4.5-3.4 7.9-7.7 7.9h0zm-21.9-151c-14.9 0-27.1 12.1-27.1 27v116.3a5.34 5.34 0 0 0 5.3 5.3h43.8a5.34 5.34 0 0 0 5.3-5.3V346.6c0-14.9-12.2-27-27.3-27h0z"/><path d="M540.3 374.2h-48.1c-.7 0-1.4-.6-1.4-1.3h0c0-.9.5-1.4 1.4-1.4h48.1c.7 0 1.4.6 1.4 1.3h0c0 .7-.6 1.3-1.4 1.4h0 0zm-85.8 0h-26.7c-.7 0-1.4-.6-1.4-1.3h0c0-.9.5-1.4 1.4-1.4h26.8c.7 0 1.4.6 1.4 1.3h0c-.1.7-.7 1.3-1.5 1.4h0 0zm-64.5 0h-80c-.7 0-1.4-.6-1.4-1.3h0c0-.9.5-1.4 1.4-1.4h80c.7 0 1.4.6 1.4 1.3h0c0 .7-.6 1.3-1.4 1.4h0 0zm-131.4 0h-80.5c-.7 0-1.4-.6-1.4-1.3h0c0-.9.5-1.4 1.4-1.4h80.5c.7 0 1.4.6 1.4 1.3h0a1.7 1.7 0 0 1-1.4 1.4h0 0zm8 67H178c-.7 0-1.4-.6-1.4-1.3h0c0-.9.5-1.4 1.4-1.4h88.6c.7 0 1.4.6 1.4 1.3h0c0 .8-.6 1.4-1.4 1.4h0 0zm133.4 0h-94.6c-.7 0-1.4-.6-1.4-1.3h0c0-.9.5-1.4 1.4-1.4H400c.7 0 1.4.6 1.4 1.3h0c-.1.8-.7 1.4-1.4 1.4h0 0zm54.2 0h-25.9c-.7 0-1.4-.6-1.4-1.3h0c0-.9.5-1.4 1.4-1.4h25.9c.7 0 1.4.6 1.4 1.3h0c0 .8-.6 1.4-1.4 1.4h0 0zm86.1 0h-58c-.7 0-1.4-.6-1.4-1.3h0c0-.9.5-1.4 1.4-1.4h58c.7 0 1.4.6 1.4 1.3h0c0 .8-.6 1.4-1.4 1.4h0 0zM160.2 492c-.7 0-1.4-.6-1.4-1.3h0v-20h-18.4v20c0 .7-.6 1.4-1.3 1.4h0c-.9 0-1.4-.5-1.4-1.4v-21.2c0-.7.5-1.4 1.4-1.4h21.1c.7 0 1.4.6 1.4 1.3h0v21.2c-.2.7-.7 1.4-1.4 1.4zm420.1 0c-.7 0-1.4-.6-1.4-1.3h0v-20h-18.5v20c0 .7-.6 1.4-1.3 1.4h0c-.9 0-1.4-.5-1.4-1.4v-21.2c0-.7.5-1.4 1.4-1.4h21.1c.7 0 1.4.6 1.4 1.3h0v21.2c-.1.7-.6 1.4-1.3 1.4h0zM237.6 184.1c-.7 0-1.4-.6-1.4-1.3h0v-20.9c0-.7.5-1.4 1.4-1.4s1.4.5 1.4 1.4v21c0 .7-.7 1.2-1.4 1.2zM264 296.2c-.7 0-1.4-.6-1.4-1.3h0v-58.5c0-7.4-6-13.3-13.4-13.3-.7 0-1.4-.6-1.4-1.3h0c0-.9.5-1.4 1.4-1.4 8.8 0 16 7.2 16 15.9v58.5c0 .8-.5 1.4-1.2 1.4h0z"/><path d="M248.9 239.7c-.3 0-.5-.2-.9-.3l-20.9-15.6c-.3-.2-.5-.7-.5-1v-14.5c0-.7.5-1.4 1.4-1.4s1.4.5 1.4 1.4v13.9l18.2 13.7-.2-13v-7.7c0-.7.5-1.4 1.4-1.4s1.4.5 1.4 1.4v7.7l.2 15.6c0 .5-.3.9-.7 1.2-.4-.2-.6 0-.8 0zM304 462.2h-21.1c-.7 0-1.4-.6-1.4-1.3h0v-21c0-.7.5-1.4 1.4-1.4s1.4.5 1.4 1.4v19.7h18.5l6.4-93.4c.9-13.5-8.9-25.7-22.1-27.7-.7-.2-1.2-.7-1-1.5.2-.7.7-1.2 1.5-1 14.6 2.2 25.4 15.6 24.4 30.3l-6.5 94.6c-.3.8-.8 1.3-1.5 1.3h0zm-45.4-88h-32.4c-14.6 0-26.6-11.8-26.6-26.5v-10.4c0-.7.5-1.4 1.4-1.4s1.4.5 1.4 1.4v10.4c0 13.2 10.8 23.9 24 23.9h32.4c.7 0 1.4.6 1.4 1.3h0c-.1.9-1 1.3-1.6 1.3h0z"/><path d="M287.7 441.2h-21.1c-.6 0-1.2-.5-1.2-1.1v-.1l-13.2-109.8c-.3-5.1 1.4-10.1 4.8-13.9s8.2-5.8 13.4-5.8h.7c4.8 0 9.3 1.9 12.5 5.3 3.5 3.6 5.3 8.5 5.1 13.5l.5 110.7c0 .3-.1.6-.3.9-.1.1-.8.3-1.2.3h0zm-19.9-2.6h18.7l-.5-109.3c.2-4.4-1.4-8.6-4.3-11.6-2.7-2.9-6.5-4.4-10.6-4.4h-.7c-4.5 0-8.4 1.7-11.5 5-2.9 3.3-4.5 7.4-4.1 11.8l13 108.5h0z"/><path d="M282.9 460.2h-10.5c-.7 0-1.4-.6-1.4-1.3h0v-18.8c0-.7.5-1.4 1.4-1.4h10.5c.7 0 1.4.6 1.4 1.3h0v18.8c-.2.7-.7 1.4-1.4 1.4h0zm-9.2-2.6h7.9v-16.3h-7.9v16.3z"/><path d="M293.4 481.1h-10.5c-.7 0-1.4-.6-1.4-1.3h0v-18.9c0-.7.5-1.4 1.4-1.4h10.5c.7 0 1.4.6 1.4 1.3h0v18.8c0 .8-.6 1.5-1.4 1.5h0 0zm-9.3-2.6h7.9v-16.3h-7.9v16.3z"/><path d="M329.1 493.7h-46.2c-.7 0-1.4-.6-1.4-1.3h0v-12.7c0-.7.5-1.4 1.4-1.4h10.6l35.7 6.3c.7.2 1 .7 1 1.2v6.3c.3 1.1-.4 1.6-1.1 1.6zm-45-2.5h43.6v-3.9l-34.5-6.2h-9.1v10.1h0zm188.1-11.7H461c-.7 0-1.4-.6-1.4-1.3h0v-17.8c0-.7.5-1.4 1.4-1.4h11.2c.7 0 1.4.6 1.4 1.3h0v18c0 .7-.7 1.2-1.4 1.2zm-9.9-2.5h8.6v-15.2h-8.6V477zm-41.6 2.5h-11.2c-.7 0-1.4-.6-1.4-1.3h0v-17.8c0-.7.5-1.4 1.4-1.4h11.2c.7 0 1.4.6 1.4 1.3h0v18c0 .7-.7 1.2-1.4 1.2zm-9.9-2.5h8.6v-15.2h-8.6V477zm-157.2 10.4h-12.2a3.68 3.68 0 0 1-3.4-2.4c-.5-1.5 0-3.1 1.2-4.1l32.6-23.1c.2-.2.5-.2.7-.2H283c.7 0 1.4.6 1.4 1.3h0v14.7c0 .5-.3 1-.9 1.2l-29.3 12.7c-.3-.1-.5-.1-.6-.1h0zm19.2-27.2l-32.1 22.7c-.5.3-.3 1-.3 1.2s.3.7 1 .7h12l28.3-12.1v-12.5h-8.9 0z"/><path d="M396 506.4h-19.9c-1.9 0-3.4-1.2-4.1-2.9-.5-1.7 0-3.8 1.5-4.8l35.4-21.4c.2-.2.5-.2.7-.2h11.2c.7 0 1.4.6 1.4 1.3h0v13.3c0 .5-.2.9-.7 1.2l-24.7 13.3c-.3 0-.4.2-.8.2h0zm13.9-26.9l-35 21.2c-.7.5-.7 1.4-.5 1.9.2.7.9 1.2 1.7 1.2h19.7l23.7-12.8v-11.3h-9.6v-.2h0zm95.8 26.9h-19.9c-.2 0-.3 0-.7-.2l-24.7-13.3c-.3-.2-.7-.7-.7-1.2v-13.3c0-.7.5-1.4 1.4-1.4h11.2c.2 0 .5 0 .7.2l35.2 21.4c1.5 1.2 2.2 3.1 1.5 5-.6 1.6-2.2 2.8-4 2.8h0zm-19.8-2.6h19.7c.9 0 1.5-.7 1.7-1.2s.2-1.4-.7-1.9l-34.8-21h-9.6V491l23.7 12.8h0zm-27.4-340.9c-.7 0-1.4-.6-1.4-1.3h0c0-1.9-1.5-3.2-3.3-3.2s-3.3 1.5-3.3 3.2c0 .7-.6 1.4-1.3 1.4h0c-.9 0-1.4-.5-1.4-1.4 0-3.2 2.5-5.8 5.7-5.8h.1c3.2 0 5.8 2.5 5.8 5.7v.1c.5.8-.2 1.3-.9 1.3zm-30.2-.7c-.7 0-1.4-.6-1.4-1.3h0c0-1.9-1.5-3.2-3.3-3.2-1.7 0-3.3 1.5-3.3 3.3 0 .7-.6 1.4-1.3 1.4h0c-.9 0-1.4-.5-1.4-1.4 0-3.2 2.6-5.8 5.7-5.8h.1c3.2 0 5.8 2.5 5.8 5.7v.1c.3.5-.2 1.2-.9 1.2h0zm9.2 2.9c-.7 0-1.4-.6-1.4-1.3h0v-9.7c0-.7.5-1.4 1.4-1.4s1.4.5 1.4 1.4v9.7c0 .7-.6 1.3-1.4 1.3h0zm1.1 51c-18 0-32.8-14.7-32.8-32.7v-27c0-.5.3-1 1-1.2.5-.2 1.2.2 1.4.7l7.7 15.2H461l7.8-15.2c.3-.5.9-.9 1.4-.7s1 .7 1 1.2v27c.2 18-14.6 32.7-32.6 32.7zm-30.2-54.4v21.7c0 16.6 13.6 30.1 30.2 30.1s30.2-13.5 30.2-30.1v-21.7l-5.7 11.1c-.2.5-.7.7-1.2.7h-46.7c-.5 0-.9-.3-1.2-.7l-5.6-11.1h0z"/></g><path d="M438.4 189.8c-6.1 0-11.1-4.9-11.2-11.1h0c0-.7.5-1.4 1.4-1.4h19.6c.7 0 1.4.6 1.4 1.3h0c-.2 6.2-5.2 11.2-11.2 11.2h0zm-8.4-10c.7 4.1 4.1 7.2 8.4 7.2s7.9-3.1 8.4-7.2H430zm40.2-28.4c-.7 0-1.4-.6-1.4-1.3h0c0-16.6-13.6-30.1-30.2-30.1s-30.2 13.5-30.2 30.1c0 .7-.6 1.4-1.3 1.4h0c-.9 0-1.4-.5-1.4-1.4 0-18 14.8-32.7 32.8-32.7s32.8 14.7 32.8 32.7c.1.8-.5 1.3-1.1 1.3zm-41.7 310.3h-25.4c-.7 0-1.2-.5-1.2-1l-16-107.6c-.5-6 1.5-12 5.7-16.4 4.1-4.4 10-7 16-7h.7c5.7 0 11 2.2 14.8 6.2 4.1 4.3 6.2 9.9 6 16.1l.7 108.5c0 .3-.1.6-.3.9-.5.2-.7.3-1 .3h0zm-24.4-2.5h23l-.7-107.3c.2-5.5-1.7-10.4-5.3-14.2-3.4-3.4-8.1-5.5-13-5.5h-.7c-5.3 0-10.3 2.2-14.1 6.2-3.8 3.9-5.5 9.1-5 14.4l15.8 106.4zm75.3 2.5H454c-.3 0-.6-.1-.9-.3-.2-.2-.3-.5-.3-.9l.7-108.6c-.2-6.2 1.9-11.8 6-16.1 3.9-3.9 9.1-6.2 14.8-6.2h.7c6 0 11.8 2.6 16 7 4.1 4.4 6.2 10.4 5.7 16.4l-16 107.6c-.2.6-.8 1.1-1.3 1.1zm-24.2-2.5h23L494 352.8c.5-5.3-1.4-10.4-5-14.4-3.6-3.9-8.6-6.2-14.1-6.2h-.7c-5 0-9.6 1.9-13 5.5-3.6 3.8-5.5 8.7-5.3 14.2l-.7 107.3h0z" fill="#3c30e7"/><g class="J"><path d="M485.8 332.2h-89.6c-.7 0-1.4-.6-1.4-1.3h0V322c0-.7.5-1.4 1.4-1.4h89.6c.7 0 1.4.6 1.4 1.3h0v8.9c-.2.8-.7 1.4-1.4 1.4h0zm-88.4-2.5h87v-6.3h-87v6.3h0zm-10.5-121.3c-.3 0-.7-.2-1-.3l-26.3-28.4c-4.3-4.3-4.3-11.1 0-15.2 4.3-4.3 11.2-4.3 15.3 0l36.9 33.7c.5.5.5 1.4 0 1.9s-1.4.5-1.9 0l-37.1-34c-3.2-3.2-8.4-3.3-11.6-.1l-.1.1c-3.2 3.1-3.3 8.3-.1 11.5l.1.1.2.2 26.1 28.2c.5.5.5 1.4 0 1.9.2.4-.1.4-.5.4zm-9.6 9.6c-.3 0-.7-.2-1-.3l-26.4-28.6c-9.3-9.4-9.3-24.6.2-34 4.6-4.6 10.6-7 17.2-7 6.5 0 12.5 2.6 17.2 7l23.5 23.3c.5.5.5 1.4 0 1.9s-1.4.5-1.9 0l-23.3-23.4c-4.1-4.1-9.5-6.3-15.3-6.3s-11.2 2.2-15.3 6.3c-8.4 8.4-8.4 22.1-.2 30.4l26.4 28.6c.5.5.5 1.4 0 1.9-.4 0-.7.2-1.1.2h0zm115.2-9.4c-.3 0-.6-.1-.9-.3-.5-.5-.5-1.4 0-1.9l26.4-28.6c3.2-3.1 3.3-8.3.1-11.5l-.1-.1c-3.2-3.2-8.4-3.3-11.6-.1l-.1.1-38.1 31.8c-.5.5-1.4.3-1.9-.2s-.3-1.4.2-1.9l37.9-31.8c4.1-4.1 11-4.1 15.3 0 4.3 4.3 4.3 11.1 0 15.2l-.2.2-26.3 28.6c0 .3-.4.5-.7.5h0zm9.4 9.4c-.3 0-.6-.1-.9-.3-.5-.5-.5-1.4 0-1.9l26.4-28.6c8.4-8.4 8.4-22.1 0-30.4-4.1-4.1-9.5-6.3-15.3-6.3s-11.3 2.2-15.3 6.3l-24.5 23.3c-.5.5-1.4.5-1.9 0s-.5-1.4 0-1.9l24.6-23.3c4.6-4.6 10.6-7 17.2-7s12.5 2.6 17.2 7c9.4 9.4 9.4 24.6.2 34l-26.4 28.6c-.6.3-1 .5-1.3.5h0zm-76.7 8.4c-.7 0-1.4-.6-1.4-1.3h0v-12.5c0-.7.5-1.4 1.4-1.4s1.4.5 1.4 1.4v12.5c0 .6-.6 1.3-1.4 1.3h0 0zm29.2-6c-.7 0-1.4-.6-1.4-1.3h0v-8.6c0-.7.5-1.4 1.4-1.4s1.4.5 1.4 1.4v8.6c-.2.8-.7 1.3-1.4 1.3z"/><path d="M485.4 250.5c-.3 0-.5 0-.7-.2-.5-.3-.7-1.2-.3-1.7l20.1-27.4-17.3-17.3-20.8 20.2c-1.5 1.5-3.8 2.4-6 2.4h-3.9c-.3 3.8-2.7 14-15.3 14-12.5 0-16.3-10.6-17.2-14h-4.1c-2.2 0-4.1-.9-5.8-2.2l-22-20.4-17.3 17.3 21.1 27.4c.5.5.3 1.4-.2 1.9s-1.4.3-1.9-.2l-21.6-28.6c-.4-.5-.3-1.3.2-1.7l19-19c.5-.5 1.2-.5 1.7 0l22.8 21.2c1 1 2.6 1.5 3.9 1.5h5.1c.7 0 1.2.5 1.2 1s2.1 13 14.8 13c12.5 0 12.7-12.1 12.7-12.7 0-.7.5-1.2 1.4-1.2h5.1a6.1 6.1 0 0 0 4.1-1.7l21.8-21.2c.5-.5 1.4-.5 1.9 0l19.1 19c.5.5.5 1.2.2 1.7l-20.8 28.2c-.3.5-.6.7-1 .7h0zm.4 72.9h-89.6c-.6 0-1.2-.5-1.2-1.1v-.1l-4.5-51.3c0-.3.2-.7.3-1 .2-.3.5-.3 1-.3h98.5c.3 0 .7.2 1 .3.3.2.3.7.3 1l-4.5 51.3c-.1.6-.8 1.2-1.3 1.2h0zm-88.6-2.6h87.4l4.3-48.8h-95.8l4.1 48.8z"/></g><path d="M441 310.5c-6 0-11-5-11-10.9s5-10.9 11-10.9 11 5 11 10.9-5 10.9-11 10.9zm0-19.7c-5 0-8.9 3.9-8.9 8.9s3.9 8.9 8.9 8.9 8.9-3.9 8.9-8.9c-.2-4.9-4.1-8.9-8.9-8.9h0z" class="K"/><g class="J"><path d="M448.7 345.6h-15.6c-.7 0-1.4-.6-1.4-1.3h0c0-.9.5-1.4 1.4-1.4h15.8c.7 0 1.4.6 1.4 1.3h0c-.1.9-.9 1.4-1.6 1.4h0zm-231-7.2h-21.6c-.7 0-1.4-.6-1.4-1.3h0v-83.3c0-18.1 14.8-32.8 32.9-32.8.7 0 1.4.6 1.4 1.3h0c0 .9-.5 1.4-1.4 1.4-16.6 0-30.4 13.5-30.4 30.3v81.9h20.4c.7 0 1.4.6 1.4 1.3h0c.1.9-.6 1.2-1.3 1.2zm132.8-47.9c-.3 0-.6-.1-.9-.3-.5-.5-.5-1.4 0-1.9l22.8-24.5-2.9-2.7h-17l-25.6 28.6c-.5.5-1.4.5-1.9.2-.5-.5-.5-1.4-.2-1.9l25.9-28.9c.2-.3.5-.3 1-.3h18.2c.3 0 .7.2.9.3l3.9 3.9c.5.5.5 1.2 0 1.7L351 290c.2.3-.1.5-.5.5h0z"/><path d="M285.3 313.3c-6.4 0-12.7-.7-18.9-2.2-34-8.2-50.3-36.1-51-37.3-.3-.7-.2-1.4.5-1.7s1.4-.2 1.7.5c.7 1.2 16.5 28.1 49.4 36.1 24.9 6 52.5-.7 81.9-19.7 2.4-1.5 2.9-4.6 1.5-7-.7-1.2-1.9-1.9-3.3-2.2s-2.6 0-3.8.7c-26.9 17.4-51.7 23.6-73.8 18.3-28.5-6.8-41.9-29.2-42.6-30.3-.3-.7-.2-1.4.5-1.7s1.4-.2 1.7.5c.2.2 13.6 22.6 40.8 29.1 21.3 5.1 45.5-1 71.7-18 1.7-1 3.8-1.5 5.7-1 2 .3 3.8 1.5 4.8 3.3 2.2 3.4 1.2 8.2-2.2 10.4-22.4 14.6-44.3 22.2-64.6 22.2h0z"/><path d="M208.8 276.1c-.5 0-1-.3-1.2-.9l-6.9-18.1c-.1-.7.1-1.3.7-1.7.7-.1 1.3.1 1.7.7l6.4 16.9 24.2-9.1-6.4-16.9c-1.2-3.2-3.6-5.8-6.7-7.2s-6.7-1.5-9.8-.3c-.7.1-1.3-.1-1.7-.7-.1-.7.1-1.3.7-1.7 3.9-1.4 8.1-1.4 11.8.3 3.8 1.7 6.7 4.8 8.1 8.6l6.9 18.1a.91.91 0 0 1 0 1c-.1.3-.4.5-.7.7l-26.6 9.9c-.3.4-.3.4-.5.4h0zm36.2 62.3h-14.8c-.7 0-1.4-.6-1.4-1.3h0c0-.9.5-1.4 1.4-1.4H245c.7 0 1.4.6 1.4 1.3h0c0 .8-.6 1.4-1.4 1.4h0zm114.3 23.3c-.7 0-1.4-.6-1.4-1.3h0v-67.1c0-.7.5-1.4 1.4-1.4s1.4.5 1.4 1.4v67.1c-.2.6-.7 1.3-1.4 1.3h0z"/></g><path d="M441.7 258.2c-.7 0-1.4-.6-1.4-1.3h0v-9.4c0-.7.5-1.4 1.4-1.4s1.4.5 1.4 1.4v9.4c-.2.8-.7 1.3-1.4 1.3zm10.8 5.8c-.3 0-.6-.1-.9-.3-.5-.5-.5-1.4 0-1.9l6.7-6.7c.5-.5 1.4-.5 1.9 0s.5 1.4 0 1.9l-6.7 6.7c-.3.1-.7.3-1 .3h0zm-21.8 0c-.3 0-.6-.1-.9-.3l-6.7-6.7c-.5-.5-.5-1.4 0-1.9s1.4-.5 1.9 0l6.7 6.7c.5.5.5 1.4 0 1.9-.3.1-.7.3-1 .3h0zM170 348.5c-.7 0-1.4-.6-1.4-1.3h0c0-10.3-8.4-18.8-18.9-18.8s-18.9 8.4-18.9 18.8c0 .7-.6 1.4-1.3 1.4h0c-.9 0-1.4-.5-1.4-1.4 0-11.8 9.6-21.4 21.5-21.4 11.8 0 21.5 9.6 21.5 21.4.1.8-.4 1.3-1.1 1.3h0zm418.9 0c-.7 0-1.4-.6-1.4-1.3h0c0-10.3-8.4-18.8-18.9-18.8s-18.9 8.4-18.9 18.8c0 .7-.6 1.4-1.3 1.4h0c-.9 0-1.4-.5-1.4-1.4 0-11.8 9.6-21.4 21.5-21.4 11.8 0 21.5 9.6 21.5 21.4.1.8-.4 1.3-1.1 1.3z" class="K"/><g class="J"><path d="M397 270.5c-.6 0-1.2-.5-1.2-1.1v-.1l-2.1-30.1c0-.7.5-1.4 1.2-1.4s1.4.5 1.4 1.2l2.1 30.1c-.2.7-.7 1.4-1.4 1.4h0zm86.4 0c-.9 0-1.4-.7-1.2-1.4l2.1-30.1c0-.7.7-1.2 1.4-1.2s1.2.7 1.2 1.4l-2.1 30.1c-.2.7-.7 1.2-1.4 1.2zm-38.5 24.6h-3.4v-1.4h-1.2v1.4h-2.6v1h5.1l-6 7.9h3.4v1.7h1.2V304h2.6v-1h-5.1l6-7.9zm-376.6 5.2H52.7c-5.3 0-9.6-4.3-9.6-9.6h0v-32.5c0-5.3 4.3-9.6 9.6-9.6h0 15.6c5.3 0 9.6 4.3 9.6 9.6h0v32.5c0 5.1-4.3 9.6-9.6 9.6zM52.7 251c-3.9 0-7 3.3-7 7v32.5c0 4 3.3 7 7 7h15.6c3.9 0 7-3.3 7-7V258c0-3.9-3.3-7-7-7H52.7z"/><path d="M79.1 343.6H41.7c-7 0-12.7-5.7-12.7-12.7v-.1-20.9c0-7 5.7-12.7 12.7-12.7h37.4c7 0 12.7 5.7 12.7 12.7v.1 20.9c-.1 7-5.7 12.7-12.7 12.7zM41.7 300c-5.5 0-10.1 4.5-10.1 10.1V331c0 5.5 4.5 10.1 10.1 10.1h37.4c5.5 0 10.1-4.5 10.1-10.1v-20.9c0-5.5-4.5-10.1-10.1-10.1H41.7z"/><path d="M87.8 404.5H33.1c-9.3 0-16.8-7.6-16.8-16.8v-29.9c0-9.3 7.5-16.8 16.8-16.8h54.7c9.3 0 16.8 7.6 16.8 16.8v29.9c0 9.3-7.5 16.8-16.8 16.8zm-54.7-60.9c-7.9 0-14.2 6.4-14.2 14.3v29.9c0 7.8 6.3 14.2 14.2 14.3h.1 54.6c7.9 0 14.2-6.4 14.2-14.3v-29.9c0-7.8-6.3-14.2-14.2-14.3h-.1-54.6z"/><path d="M60.4 425.8c-.7 0-1.4-.6-1.4-1.3h0V275.2c0-.7.5-1.4 1.4-1.4s1.4.5 1.4 1.4v149.2c-.1.8-.7 1.4-1.4 1.4h0z"/><path d="M70 326.9H49.1c-5.1 0-9.4-4.3-9.4-9.4v-.7c0-.7.5-1.4 1.4-1.4s1.4.5 1.4 1.4v.7c0 3.8 3.1 6.9 6.9 6.9h20.7c3.8 0 6.8-3.1 6.9-6.9v-6c0-.7.5-1.4 1.4-1.4s1.4.5 1.4 1.4v6c-.4 5.3-4.7 9.4-9.8 9.4h0zm4.1 56.5H48.6c-7.7 0-14.1-6.4-14.1-14.1v-3.1c0-.7.5-1.4 1.4-1.4s1.4.5 1.4 1.4v3.1c0 6.4 5.1 11.5 11.5 11.5h25.5c6.3 0 11.5-5.2 11.5-11.5v-3.1c0-.7.5-1.4 1.4-1.4s1.4.5 1.4 1.4v3.1c-.5 7.8-6.8 14.1-14.5 14.1z"/></g><g class="K"><path d="M82.7 487.7H38.1c-.7 0-1.2-.5-1.2-1l-8.4-49.8c0-.3 0-.7.3-1 .2-.3.7-.5 1-.5H91c.3 0 .7.2 1 .5a1.93 1.93 0 0 1 .3 1l-8.2 49.6c-.2.6-.8 1.2-1.4 1.2zm-43.6-2.6h42.5l7.9-47.1H31.4l7.7 47.1z"/><path d="M96 437.9H24.9c-.7 0-1.4-.6-1.4-1.3h0v-11.7c0-.7.5-1.4 1.4-1.4H96c.7 0 1.4.5 1.4 1.4v11.7c-.2.7-.7 1.3-1.4 1.3h0zm-69.9-2.6h68.6v-9.1H26.1v9.1h0z"/></g><path d="M82,445.8l-5.3,31.8" fill="#fff"/><path d="M76.7 478.7h-.2c-.7-.2-1.2-.9-1-1.5l5.3-31.8c.2-.7.9-1.2 1.5-1 .7.2 1.2.9 1 1.5L78 477.7c-.1.7-.8 1-1.3 1h0z" class="K"/><g class="J"><path d="M721.6 412.2h-82.1c-3.1 0-5.5-2.6-5.5-5.5v-2.1c0-3.1 2.6-5.5 5.5-5.5h82.1c3.1 0 5.5 2.6 5.5 5.5v2.1c.2 3.1-2.4 5.5-5.5 5.5zm-82.1-10.7c-1.7 0-2.9 1.4-2.9 2.9v2.1c0 1.7 1.4 2.9 2.9 2.9h82.1c1.7 0 2.9-1.4 2.9-2.9v-2.1c0-1.7-1.4-2.9-2.9-2.9h-82.1z"/><path d="M635.4 491.7h-.3c-.7-.2-1-.9-1-1.5l19.4-79.5c.2-.7.9-1.2 1.5-1 .7.2 1 .9 1 1.5l-19.4 79.5c-.2.6-.7 1-1.2 1h0zm90.5 0c-.5 0-1-.3-1.2-1l-19.4-79.5c-.2-.7.2-1.4 1-1.5.7-.2 1.4.2 1.5 1l19.4 79.5c.2.7-.2 1.4-1 1.5h-.3 0zm-45.6 0c-.7 0-1.4-.6-1.4-1.3h0v-79.5c0-.7.5-1.4 1.4-1.4s1.4.5 1.4 1.4v79.5c0 .6-.6 1.3-1.4 1.3h0 0zm-7.5-33.3h-23.6c-.7 0-1.4-.6-1.4-1.3h0c0-.9.5-1.4 1.4-1.4h23.6c.7 0 1.4.5 1.4 1.4-.1.7-.6 1.3-1.4 1.3zm38.5 0h-23.7c-.7 0-1.4-.6-1.4-1.3h0c0-.9.5-1.4 1.4-1.4h23.6c.7 0 1.4.5 1.4 1.4.1.7-.4 1.3-1.3 1.3z"/></g><g class="K"><path d="M640.428 358.968c-.2 0-.2 0 0 0a1.08 1.08 0 0 1-1-1c.3-12.5 8.6-23.7 20.4-27.8a.88.88 0 0 1 1.2.5c.2.5-.2 1-.5 1.2-11 3.9-18.7 14.4-19 26.1-.3.6-.6 1-1.1 1zm44 30.5h-14.7c-8.7 0-17.1-3.8-22.8-10.3-.3-.3-.3-1 0-1.4.3-.3 1-.3 1.4 0 5.4 6.1 13.2 9.6 21.4 9.6h14.7c15.8 0 28.6-12.9 28.6-28.7s-12.9-28.7-28.6-28.7h-9.3c-.5 0-.9-.3-.9-.9 0-.5.3-.9.9-.9h9.3c16.8 0 30.5 13.7 30.5 30.6s-13.7 30.7-30.5 30.7h0z"/><path d="M684.428 385.168c-.5 0-.9-.3-.9-.9 0-.5.3-.9.9-.9 9.9 0 18.9-6 22.5-15.5a.88.88 0 0 1 1.2-.5.88.88 0 0 1 .5 1.2c-3.8 10.1-13.4 16.6-24.2 16.6zm24.3-20.9h0c-.6-.2-1-.7-.8-1.2.3-1.9.7-3.6.7-5.5 0-.5.3-.9.9-.9s.9.3.9.9a24.58 24.58 0 0 1-.7 6c-.1.3-.4.7-1 .7zm-3-24.9h-.2c-.5-.2-.9-.7-.7-1.2.3-1.9.7-3.6.7-5.5 0-.5.3-.9.9-.9s.9.3.9.9c0 2.1-.2 4-.7 6-.1.5-.4.7-.9.7zm-61.6 40.2c-5.1 0-9.6-4.8-10.1-11-.3-6.4 3.8-11.9 9.3-12.2s10.1 4.6 10.6 11c.3 6.4-3.8 11.8-9.3 12.2h-.5 0zm-.3-21.3h-.3c-4.5.3-7.7 4.8-7.4 10.1s4.1 9.4 8.6 9.3c4.5-.3 7.7-4.8 7.4-10.1-.6-5.4-4.2-9.3-8.3-9.3zm-3.8 14.1c-1.5 0-2.7-1.9-2.7-4.6s1.2-4.6 2.7-4.6 2.7 1.9 2.7 4.6-1.1 4.6-2.7 4.6h0zm0-7.4c-.2 0-.9 1-.9 2.7s.7 2.7.9 2.7.9-1 .9-2.7-.7-2.7-.9-2.7zm8.1 7.4c-1.5 0-2.7-1.9-2.7-4.6s1.2-4.6 2.7-4.6 2.7 1.9 2.7 4.6-1.2 4.6-2.7 4.6zm0-7.4c-.2 0-.9 1-.9 2.7s.7 2.7.9 2.7.9-1 .9-2.7-.8-2.7-.9-2.7zm28.1-22.5h-.3c-.2-.2-.5-.3-.5-.5s-3.8-12-11-13.7c-.3-.2-.7-.3-.7-.9 0-.5.2-.9.5-1 .2 0 9.8-4.3 17.5 10.1.3.7.5 1.5.2 2.4-.2.8-.8 1.4-1.5 1.7l-3.8 1.9h-.4zm-8.4-15c5 3.1 8.1 10.1 8.9 12.7l2.7-1.4c.3-.2.5-.3.5-.7.2-.3 0-.5 0-.9-4.2-8.3-9.2-9.7-12.1-9.7h0z"/><path d="M676.228 342.468s-.2 0 0 0l-18-2.9c-.5 0-.7-.5-.9-.9-.5-10 6.7-12.5 6.9-12.5h.5c8.1 2.1 12.2 14.4 12.3 14.9.2.3 0 .7-.2.9-.1.3-.3.5-.6.5h0zm-17-4.7l15.4 2.4c-1.2-3.3-4.6-10.6-10.1-12.2-1 .6-5.3 3-5.3 9.8h0zm-14.7 41.8c-.5 0-.9-.3-.9-.9 0-.5.3-.9.9-1 4.5-.3 7.7-4.8 7.4-10.1-.3-5-3.8-8.9-7.7-9.3h-.9c-.5 0-.9-.3-.9-.9 0-.5.3-.9.9-1h5.5c5.3-.3 10.1 4.6 10.5 11 .3 6.4-3.8 11.8-9.3 12.2h-5.5 0zm4.9-1.9h.5c4.3-.3 7.7-4.8 7.4-10.1-.3-5.2-3.9-9.3-8.2-9.3 2.6 1.9 4.5 5.3 4.6 9.1.4 4.3-1.3 8-4.3 10.3z"/><path d="M651.028 337.168c-.4 0-.7-.2-.9-.5-.3-.7-3.9-6.2-10.6-7.6-.3 0-.7-.3-.7-.9 0-.3.2-.9.5-1 .3-.2 9.4-4.3 18.9 4 .2.2.3.5.3.9 0 .3-.2.5-.5.7-2.4 1-4.5 2.4-6.5 4 0 .4-.3.4-.5.4zm-7.7-8.8c4.1 1.7 6.9 5 8.1 6.5 1.5-1.2 3.1-2.1 4.8-2.9-5.2-3.9-10-4.1-12.9-3.6z"/><path d="M642.928 347.768c-.3 0-.5-.2-.7-.3-8.7-11.2-3.3-19.4-3.1-19.7a.74.74 0 0 1 1-.3c7.4 1.5 11.3 7.7 11.8 8.4.2.4.1.9-.2 1.2-3.4 2.7-6 6.4-7.9 10.3-.2.2-.5.4-.9.4h0zm-2.5-18.4c-.9 1.7-3.3 7.7 2.4 15.8 1.7-3.4 4.1-6.5 7-8.9-1.2-1.7-4.3-5.5-9.4-6.9h0zm31.3 66.7h-7.2c-.3 0-.7-.2-.9-.7l-2.9-7.7c-.2-.3 0-.7.2-.9.2-.3.7-.5 1-.3 2.5.7 5.1 1 7.7 1l4.3.2c.3 0 .5.2.7.3.2.2.2.5.2.9l-2.4 6.4c.2.6-.2.8-.7.8zm-6.5-1.9h6l1.7-4.6h-3.1c-2.2 0-4.5-.2-6.5-.7l1.9 5.3h0zm25 1.9h-7.2c-.3 0-.7-.2-.9-.7l-2.4-6.4c-.2-.3 0-.7.2-.9a1.08 1.08 0 0 1 .7-.3l4.3-.2c2.6 0 5.3-.3 7.7-1 .4-.2.8 0 1 .3.2.2.2.5.2.9l-2.9 7.7c.2.4-.2.6-.7.6zm-6.5-1.9h6l2.1-5.3c-2.2.5-4.3.7-6.5.7h-3.1l1.5 4.6z"/></g><g class="J"><use xlink:href="#B"/><use xlink:href="#B" x="-13" y="-1"/></g><path d="M73 140.5c-3.8 0-5.7-1.5-7.4-2.9-1.5-1.2-2.9-2.4-5.8-2.4s-4.3 1-5.8 2.4c-1.7 1.4-3.6 2.9-7.4 2.9s-5.7-1.5-7.4-2.9c-1.5-1.2-2.9-2.4-5.8-2.4-.7 0-1.4-.6-1.4-1.3 0-.9.5-1.4 1.4-1.4 3.8 0 5.7 1.5 7.4 2.9 1.5 1.2 2.9 2.4 5.8 2.4s4.3-1 5.8-2.4c1.7-1.4 3.6-2.9 7.4-2.9s5.7 1.5 7.4 2.9c1.5 1.2 2.9 2.4 5.8 2.4s4.3-1 5.8-2.4c1.7-1.4 3.6-2.9 7.4-2.9.7 0 1.4.5 1.4 1.4 0 .7-.6 1.4-1.3 1.4-2.9 0-4.3 1-5.8 2.4-1.8 1.3-3.7 2.8-7.5 2.8h0zm0 13.1c-3.8 0-5.7-1.5-7.4-2.9-1.5-1.2-2.9-2.4-5.8-2.4s-4.3 1-5.8 2.4c-1.7 1.4-3.6 2.9-7.4 2.9s-5.7-1.5-7.4-2.9c-1.5-1.2-2.9-2.4-5.8-2.4-.7 0-1.4-.6-1.4-1.3 0-.9.5-1.4 1.4-1.4 3.8 0 5.7 1.5 7.4 2.9 1.5 1.2 2.9 2.4 5.8 2.4s4.3-1 5.8-2.4c1.7-1.4 3.6-2.9 7.4-2.9s5.7 1.5 7.4 2.9c1.5 1.2 2.9 2.4 5.8 2.4s4.3-1 5.8-2.4c1.7-1.4 3.6-2.9 7.4-2.9.7 0 1.4.5 1.4 1.4s-.5 1.4-1.4 1.4c-2.9 0-4.3 1-5.8 2.4-1.7 1.2-3.6 2.8-7.4 2.8h0zm0 13c-3.8 0-5.7-1.5-7.4-2.9-1.5-1.2-2.9-2.4-5.8-2.4s-4.3 1-5.8 2.4c-1.7 1.4-3.6 2.9-7.4 2.9s-5.7-1.5-7.4-2.9c-1.5-1.2-2.9-2.4-5.8-2.4-.7 0-1.4-.6-1.4-1.3 0-.9.5-1.4 1.4-1.4 3.8 0 5.7 1.5 7.4 2.9 1.5 1.2 2.9 2.4 5.8 2.4s4.3-1 5.8-2.4c1.7-1.4 3.6-2.9 7.4-2.9s5.7 1.5 7.4 2.9c1.5 1.2 2.9 2.4 5.8 2.4s4.3-1 5.8-2.4c1.7-1.4 3.6-2.9 7.4-2.9.7 0 1.4.5 1.4 1.4s-.5 1.4-1.4 1.4c-2.9 0-4.3 1-5.8 2.4-1.7 1.3-3.6 2.8-7.4 2.8h0zm0 13.1c-3.8 0-5.7-1.5-7.4-2.9-1.5-1.2-2.9-2.4-5.8-2.4s-4.3 1-5.8 2.4c-1.7 1.4-3.6 2.9-7.4 2.9s-5.7-1.5-7.4-2.9c-1.5-1.2-2.9-2.4-5.8-2.4-.7 0-1.4-.6-1.4-1.3 0-.9.5-1.4 1.4-1.4 3.8 0 5.7 1.5 7.4 2.9 1.5 1.2 2.9 2.4 5.8 2.4s4.3-1 5.8-2.4c1.7-1.4 3.6-2.9 7.4-2.9s5.7 1.5 7.4 2.9c1.5 1.2 2.9 2.4 5.8 2.4s4.3-1 5.8-2.4c1.7-1.4 3.6-2.9 7.4-2.9.7 0 1.4.5 1.4 1.4s-.5 1.4-1.4 1.4c-2.9 0-4.3 1-5.8 2.4-1.7 1.2-3.6 2.8-7.4 2.8h0zm0 13c-3.8 0-5.7-1.5-7.4-2.9-1.5-1.2-2.9-2.4-5.8-2.4s-4.3 1-5.8 2.4c-1.7 1.4-3.6 2.9-7.4 2.9s-5.7-1.5-7.4-2.9c-1.5-1.2-2.9-2.4-5.8-2.4-.7 0-1.4-.6-1.4-1.3 0-.9.5-1.4 1.4-1.4 3.8 0 5.7 1.5 7.4 2.9 1.5 1.2 2.9 2.4 5.8 2.4s4.3-1 5.8-2.4c1.7-1.4 3.6-2.9 7.4-2.9s5.7 1.5 7.4 2.9c1.5 1.2 2.9 2.4 5.8 2.4s4.3-1 5.8-2.4c1.7-1.4 3.6-2.9 7.4-2.9.7 0 1.4.5 1.4 1.4s-.5 1.4-1.4 1.4c-2.9 0-4.3 1-5.8 2.4-1.7 1.3-3.6 2.8-7.4 2.8h0z" class="K"/><path d="M103.9 216.6H15.6V109.1h88.3v107.5zM18.2 214h83.1V111.7H18.2V214h0zm76.6-8.6H24.7v-85.2h70.1v85.2zm-67.5-2.5h65v-80h-65v80z" class="J"/><path d="M83 105.1c-.3 0-.6-.1-.9-.3L61.4 84l-20.9 20.8c-.5.5-1.4.5-1.9 0s-.5-1.4 0-1.9l22.8-22.7L84 102.9c.5.5.5 1.4 0 1.9a1.93 1.93 0 0 1-1 .3z" class="K"/><g class="J"><path d="M676 192.6h-5.1c-.5 0-.9-.3-.9-.9 0-.5.3-.9.9-.9h5.1c11.3 0 20.6-9.3 20.6-20.7s-9.2-20.7-20.6-20.7h-5.1c-.5 0-.9-.3-.9-.9 0-.5.3-.9.9-.9h5.1c12.3 0 22.3 10 22.3 22.4-.1 12.6-10 22.6-22.3 22.6h0z"/><path d="M672 192.6c-12.3 0-22.3-10-22.3-22.4s9.9-22.4 22.3-22.4c12.3 0 22.3 10 22.3 22.4s-9.9 22.4-22.3 22.4zm0-42.8c-11.3 0-20.6 9.3-20.6 20.7s9.2 20.7 20.6 20.7c11.3 0 20.6-9.3 20.6-20.7s-9.3-20.7-20.6-20.7z"/></g><path d="M680.8 185.4c-.3 0-.5-.2-.7-.3-.2-.4-.1-1 .3-1.2 4.6-2.9 7.5-7.9 7.5-13.4 0-8.6-7-15.8-15.8-15.8-3.6 0-7.2 1.2-9.9 3.6-.3.3-.9.2-1.2-.2-.3-.3-.2-.9.2-1.2 3.1-2.6 7-4 11.1-4 9.6 0 17.5 7.9 17.5 17.6 0 6.2-3.1 11.7-8.2 15 0-.1-.8-.1-.8-.1zm-8.8 2.4c-9.6 0-17.5-7.9-17.5-17.6 0-1.7.3-3.4.9-5.2.2-.5.7-.7 1-.5.5.2.7.7.5 1-.5 1.5-.7 3.1-.7 4.6 0 8.6 7 15.8 15.8 15.8.5 0 .9.3.9.9 0 .7-.4 1-.9 1z" class="K"/><g class="J"><path d="M675.6 180.4c-5.5 0-10.1-4.5-10.1-10.2S670 160 675.6 160c.5 0 .9.3.9.9 0 .5-.3.9-.9.9-4.6 0-8.4 3.8-8.4 8.4s3.8 8.4 8.4 8.4c.5 0 .9.3.9.9s-.4.9-.9.9z"/><path d="M675.6 169h-11.8c-.5 0-.9-.3-.9-.9 0-.5.3-.9.9-.9h11.8c.5 0 .9.3.9.9s-.4.9-.9.9zm0 4h-11.8c-.5 0-.9-.3-.9-.9s.3-.9.9-.9h11.8c.5 0 .9.3.9.9s-.4.9-.9.9h0zm-19.1 40.6c-4.9 0-8.8-4-8.8-8.9s3.9-8.9 8.8-8.9 8.8 4 8.8 8.9c.1 5-3.9 8.9-8.8 8.9zm0-17a8.24 8.24 0 0 0-8.2 8.2 8.24 8.24 0 0 0 8.2 8.2 8.24 8.24 0 0 0 8.2-8.2 8.24 8.24 0 0 0-8.2-8.2z"/></g><use xlink:href="#C" class="K"/><g class="J"><use xlink:href="#D"/><path d="M657.9 204.3h-4.7c-.2 0-.3-.1-.3-.3s.1-.3.3-.3h4.7c.2 0 .3.1.3.3.1.1-.1.3-.3.3zm0 1.5h-4.7c-.2 0-.3-.1-.3-.3s.1-.3.3-.3h4.7c.2 0 .3.1.3.3.1.2-.1.3-.3.3h0z"/><use xlink:href="#E"/></g><use xlink:href="#F" class="K"/><g class="J"><path d="M672.8 260.4c-2.2 0-4-1.8-4-4 0-2.3 1.8-4 4-4 .2 0 .3.1.3.3s-.1.3-.3.3c-1.8 0-3.3 1.5-3.3 3.4 0 1.8 1.5 3.4 3.3 3.4.2 0 .3.1.3.3s0 .3-.3.3z"/><path d="M672.8 255.9h-4.7c-.2 0-.3-.1-.3-.3s.1-.3.3-.3h4.7c.2 0 .3.1.3.3s0 .3-.3.3zm0 1.6h-4.7c-.2 0-.3-.1-.3-.3s.1-.3.3-.3h4.7c.2 0 .3.1.3.3.1.1 0 .3-.3.3h0zM664 315c-5.7 0-10.2-4.6-10.2-10.3s4.6-10.3 10.2-10.3c5.7 0 10.2 4.6 10.2 10.3.1 5.7-4.5 10.3-10.2 10.3zm0-19.7c-5.2 0-9.5 4.3-9.5 9.5s4.3 9.5 9.5 9.5 9.5-4.3 9.5-9.5-4.3-9.5-9.5-9.5z"/></g><path d="M668 311.7c-.2 0-.2-.1-.3-.2-.1-.2 0-.4.2-.6 2.1-1.3 3.5-3.6 3.5-6.2 0-4-3.2-7.3-7.3-7.3-1.7 0-3.3.6-4.6 1.7-.2.2-.4.1-.6-.1s-.1-.4.1-.6c1.4-1.2 3.2-1.8 5.1-1.8 4.4 0 8 3.6 8 8.1 0 2.9-1.4 5.4-3.8 6.9.1.1-.3.1-.3.1zm-4 1.1c-4.4 0-8-3.6-8-8.1 0-.8.2-1.6.4-2.4.1-.2.3-.3.5-.2s.3.3.2.5c-.2.7-.3 1.4-.3 2.1 0 4 3.2 7.3 7.3 7.3.2 0 .4.2.4.4-.1.2-.2.4-.5.4z" class="K"/><g class="J"><path d="M665.7 309.4c-2.5 0-4.7-2.1-4.7-4.7s2.1-4.7 4.7-4.7c.2 0 .4.2.4.4s-.2.4-.4.4c-2.1 0-3.9 1.7-3.9 3.9a3.84 3.84 0 0 0 3.9 3.9c.2 0 .4.2.4.4s-.2.4-.4.4z"/><path d="M665.7 304.2h-5.4c-.2 0-.4-.2-.4-.4s.2-.4.4-.4h5.4c.2 0 .4.2.4.4s-.2.4-.4.4zm0 1.8h-5.4c-.2 0-.4-.2-.4-.4s.2-.4.4-.4h5.4c.2 0 .4.2.4.4s-.2.4-.4.4h0z"/><use xlink:href="#G"/></g><use xlink:href="#H" class="K"/><g class="J"><use xlink:href="#D" x="96.3" y="-47"/><use xlink:href="#I"/><use xlink:href="#G" x="-121.5" y="-2.7"/></g><path d="M634.7 161.1c-.1 0-.2-.1-.3-.1-.1-.2 0-.4.1-.5 1.8-1.2 3-3.1 3-5.3 0-3.4-2.8-6.3-6.3-6.3-1.4 0-2.9.5-3.9 1.4-.1.1-.3.1-.5-.1-.1-.1-.1-.3.1-.5a6.99 6.99 0 0 1 4.4-1.6c3.8 0 6.9 3.1 6.9 7 0 2.5-1.2 4.6-3.3 5.9.2.1-.2.1-.2.1zm-3.5 1c-3.8 0-6.9-3.1-6.9-7 0-.7.1-1.4.3-2.1.1-.2.3-.3.4-.2.2.1.3.3.2.4-.2.6-.3 1.2-.3 1.8 0 3.4 2.8 6.3 6.3 6.3.2 0 .3.1.3.3s-.1.5-.3.5z" class="K"/><g class="J"><path d="M632.7 159.2c-2.2 0-4-1.8-4-4 0-2.3 1.8-4 4-4 .2 0 .3.1.3.3s-.1.3-.3.3c-1.8 0-3.3 1.5-3.3 3.4 0 1.8 1.5 3.4 3.3 3.4.2 0 .3.1.3.3 0 .1-.1.3-.3.3z"/><path d="M632.7 154.6H628c-.2 0-.3-.1-.3-.3s.1-.3.3-.3h4.7c.2 0 .3.1.3.3s-.1.3-.3.3zm0 1.6H628c-.2 0-.3-.1-.3-.3s.1-.3.3-.3h4.7c.2 0 .3.1.3.3s-.1.3-.3.3h0zm88.4-48.8c-4.9 0-8.8-4-8.8-8.9s3.9-8.9 8.8-8.9 8.8 4 8.8 8.9c0 5-3.9 8.9-8.8 8.9zm0-17a8.24 8.24 0 0 0-8.2 8.2 8.24 8.24 0 0 0 8.2 8.2 8.24 8.24 0 0 0 8.2-8.2 8.24 8.24 0 0 0-8.2-8.2z"/></g><use xlink:href="#C" x="64.6" y="-106.2" class="K"/><g class="J"><use xlink:href="#D" x="64.6" y="-106.2"/><path d="M722.5 98.1h-4.7c-.2 0-.3-.1-.3-.3s.1-.3.3-.3h4.7c.2 0 .3.1.3.3.1.1-.1.3-.3.3zm0 1.5h-4.7c-.2 0-.3-.1-.3-.3s.1-.3.3-.3h4.7c.2 0 .3.1.3.3s-.1.3-.3.3h0zM645 77.8c-4.9 0-8.8-4-8.8-8.9s3.9-8.9 8.8-8.9 8.8 4 8.8 8.9-3.9 8.9-8.8 8.9zm0-17.1a8.24 8.24 0 0 0-8.2 8.2 8.24 8.24 0 0 0 8.2 8.2 8.24 8.24 0 0 0 8.2-8.2 8.24 8.24 0 0 0-8.2-8.2z"/></g><path d="M648.5 74.9c-.1 0-.2-.1-.3-.1-.1-.2 0-.4.1-.5 1.8-1.2 3-3.1 3-5.3 0-3.4-2.8-6.3-6.3-6.3-1.4 0-2.9.5-3.9 1.4-.1.1-.3.1-.5-.1-.1-.1-.1-.3.1-.5a6.99 6.99 0 0 1 4.4-1.6c3.8 0 6.9 3.1 6.9 7 0 2.5-1.2 4.6-3.3 5.9.1.1-.2.1-.2.1zm-3.5.9c-3.8 0-6.9-3.1-6.9-7 0-.7.1-1.4.3-2.1.1-.2.3-.3.4-.2.2.1.3.3.2.4-.2.6-.3 1.2-.3 1.8 0 3.4 2.8 6.3 6.3 6.3.2 0 .3.1.3.3s-.1.5-.3.5z" class="K"/><g class="J"><use xlink:href="#J"/><use xlink:href="#I" x="-107.8" y="-88.9"/><use xlink:href="#E" x="-51" y="-194.4"/></g><use xlink:href="#F" x="-51" y="-194.4" class="K"/><g class="J"><path d="M621.8 66c-2.2 0-4-1.8-4-4 0-2.3 1.8-4 4-4 .2 0 .3.1.3.3s-.1.3-.3.3c-1.8 0-3.3 1.5-3.3 3.4 0 1.8 1.5 3.4 3.3 3.4.2 0 .3.1.3.3.1.2-.1.3-.3.3z"/><path d="M621.8 61.5h-4.7c-.2 0-.3-.1-.3-.3s.1-.3.3-.3h4.7c.2 0 .3.1.3.3.1.1-.1.3-.3.3zm0 1.6h-4.7c-.2 0-.3-.1-.3-.3s.1-.3.3-.3h4.7c.2 0 .3.1.3.3.1.1-.1.3-.3.3h0zm-21 28.7c-4.9 0-8.8-4-8.8-8.9s3.9-8.9 8.8-8.9 8.8 4 8.8 8.9c.1 4.9-3.9 8.9-8.8 8.9zm0-17a8.24 8.24 0 0 0-8.2 8.2 8.24 8.24 0 0 0 8.2 8.2A8.24 8.24 0 0 0 609 83a8.24 8.24 0 0 0-8.2-8.2z"/></g><use xlink:href="#H" x="-151.9" y="-74.9" class="K"/><g class="J"><use xlink:href="#J" x="-44.1" y="14.1"/><use xlink:href="#I" x="-151.9" y="-74.9"/><path d="M729.2 210h-5.1c-.5 0-.9-.3-.9-.9 0-.5.3-.9.9-.9h5.1c11.3 0 20.6-9.3 20.6-20.7s-9.2-20.7-20.6-20.7h-5.1c-.5 0-.9-.3-.9-.9 0-.5.3-.9.9-.9h5.1c12.3 0 22.3 10 22.3 22.4 0 12.6-9.9 22.6-22.3 22.6h0z"/><use xlink:href="#K"/></g><use xlink:href="#L" class="K"/><g class="J"><use xlink:href="#M"/><path d="M728.9 186.4h-11.8c-.5 0-.9-.3-.9-.9 0-.5.3-.9.9-.9h11.8c.5 0 .9.3.9.9-.1.5-.4.9-.9.9zm0 3.9h-11.8c-.5 0-.9-.3-.9-.9 0-.5.3-.9.9-.9h11.8c.5 0 .9.3.9.9-.1.6-.4.9-.9.9h0zm-106.7 23.2h-5.1c-.5 0-.9-.3-.9-.9 0-.5.3-.9.9-.9h5.1c11.3 0 20.6-9.3 20.6-20.7s-9.2-20.7-20.6-20.7h-5.1c-.5 0-.9-.3-.9-.9s.3-.9.9-.9h5.1c12.3 0 22.3 10 22.3 22.4 0 12.6-10 22.6-22.3 22.6h0z"/><use xlink:href="#K" x="-107" y="3.5"/></g><use xlink:href="#L" x="-107" y="3.5" class="K"/><g class="J"><use xlink:href="#M" x="-107" y="3.5"/><path d="M621.9 189.9H610c-.5 0-.9-.3-.9-.9 0-.5.3-.9.9-.9h11.8c.5 0 .9.3.9.9 0 .5-.3.9-.8.9zm0 3.9H610c-.5 0-.9-.3-.9-.9 0-.5.3-.9.9-.9h11.8c.5 0 .9.3.9.9s-.3.9-.8.9h0zm67.8 49.6H685c-.5 0-.8-.3-.8-.8s.3-.8.8-.8h4.7c10.4 0 18.9-8.5 18.9-19 0-10.4-8.5-19-18.9-19H685c-.5 0-.8-.3-.8-.8s.3-.8.8-.8h4.7c11.3 0 20.5 9.2 20.5 20.6-.1 11.5-9.2 20.6-20.5 20.6h0z"/><path d="M686.1 243.4c-11.3 0-20.5-9.2-20.5-20.6s9.1-20.6 20.5-20.6c11.3 0 20.5 9.2 20.5 20.6-.1 11.5-9.2 20.6-20.5 20.6zm0-39.3c-10.4 0-18.9 8.5-18.9 19s8.5 19 18.9 19 18.9-8.5 18.9-19-8.5-19-18.9-19z"/></g><use xlink:href="#N" class="K"/><g class="J"><use xlink:href="#O"/><use xlink:href="#P"/><path d="M640.6 259.6h-4.7c-.5 0-.8-.3-.8-.8s.3-.8.8-.8h4.7c10.4 0 18.9-8.5 18.9-19 0-10.4-8.5-19-18.9-19h-4.7c-.5 0-.8-.3-.8-.8s.3-.8.8-.8h4.7c11.3 0 20.5 9.2 20.5 20.6s-9.1 20.6-20.5 20.6h0z"/><path d="M637 259.6c-11.3 0-20.5-9.2-20.5-20.6s9.1-20.6 20.5-20.6c11.3 0 20.5 9.2 20.5 20.6s-9.2 20.6-20.5 20.6zm0-39.4c-10.4 0-18.9 8.5-18.9 19s8.5 19 18.9 19 18.9-8.5 18.9-19-8.5-19-18.9-19z"/></g><path d="M645 252.9c-.3 0-.5-.2-.6-.3-.2-.4-.1-.9.3-1.1 4.3-2.7 6.9-7.3 6.9-12.3 0-7.9-6.5-14.6-14.5-14.6-3.3 0-6.6 1.1-9.1 3.3-.3.3-.8.2-1.1-.2-.3-.3-.2-.8.2-1.1 2.8-2.4 6.5-3.6 10.2-3.6 8.8 0 16 7.3 16 16.1 0 5.7-2.8 10.8-7.6 13.8.1 0-.7 0-.7 0zm-8 2.2c-8.8 0-16-7.3-16-16.1 0-1.6.3-3.2.8-4.7.2-.5.6-.6.9-.5.5.2.6.6.5.9-.5 1.4-.6 2.8-.6 4.3 0 7.9 6.5 14.6 14.5 14.6.5 0 .8.3.8.8s-.4.7-.9.7z" class="K"/><g class="J"><path d="M640.3 248.3c-5 0-9.3-4.1-9.3-9.3s4.1-9.3 9.3-9.3c.5 0 .8.3.8.8s-.3.8-.8.8c-4.3 0-7.7 3.5-7.7 7.7 0 4.3 3.5 7.8 7.7 7.8.5 0 .8.3.8.8 0 .4-.3.7-.8.7z"/><use xlink:href="#Q"/><path d="M705.8 292.5h-4.7c-.5 0-.8-.3-.8-.8s.3-.8.8-.8h4.7c10.4 0 18.9-8.5 18.9-19 0-10.4-8.5-19-18.9-19h-4.7c-.5 0-.8-.3-.8-.8s.3-.8.8-.8h4.7c11.3 0 20.5 9.2 20.5 20.6 0 11.5-9.1 20.6-20.5 20.6h0z"/><path d="M702.2 292.5c-11.3 0-20.5-9.2-20.5-20.6s9.1-20.6 20.5-20.6c11.3 0 20.5 9.2 20.5 20.6 0 11.5-9.2 20.6-20.5 20.6zm0-39.4c-10.4 0-18.9 8.5-18.9 19 0 10.4 8.5 19 18.9 19s18.9-8.5 18.9-19c0-10.4-8.5-19-18.9-19z"/></g><path d="M710.2 285.9c-.3 0-.5-.2-.6-.3-.2-.4-.1-.9.3-1.1 4.3-2.7 6.9-7.3 6.9-12.3 0-7.9-6.5-14.6-14.5-14.6-3.3 0-6.6 1.1-9.1 3.3-.3.3-.8.2-1.1-.2-.3-.3-.2-.8.2-1.1 2.8-2.4 6.5-3.6 10.2-3.6 8.8 0 16 7.3 16 16.1 0 5.7-2.8 10.8-7.6 13.8.1 0-.7 0-.7 0zm-8 2.2c-8.8 0-16-7.3-16-16.1 0-1.6.3-3.2.8-4.7.2-.5.6-.6.9-.5.5.2.6.6.5.9-.5 1.4-.6 2.8-.6 4.3 0 7.9 6.5 14.6 14.5 14.6.5 0 .8.3.8.8-.1.4-.4.7-.9.7z" class="K"/><g class="J"><path d="M705.5 281.3c-5 0-9.3-4.1-9.3-9.3s4.1-9.3 9.3-9.3c.5 0 .8.3.8.8s-.3.8-.8.8c-4.3 0-7.7 3.5-7.7 7.7s3.5 7.8 7.7 7.8c.5 0 .8.3.8.8s-.3.7-.8.7z"/><use xlink:href="#Q" x="65.2" y="33"/><use xlink:href="#R"/><path d="M751.9 137.9c-11.3 0-20.5-9.2-20.5-20.6s9.1-20.6 20.5-20.6c11.3 0 20.5 9.2 20.5 20.6 0 11.5-9.1 20.6-20.5 20.6zm0-39.4c-10.4 0-18.9 8.5-18.9 19s8.5 19 18.9 19 18.9-8.5 18.9-19-8.5-19-18.9-19z"/></g><path d="M760 131.3c-.3 0-.5-.2-.6-.3-.2-.4-.1-.9.3-1.1 4.3-2.7 6.9-7.3 6.9-12.3 0-7.9-6.5-14.6-14.5-14.6-3.3 0-6.6 1.1-9.1 3.3-.3.3-.8.2-1.1-.2-.3-.3-.2-.8.2-1.1 2.8-2.4 6.5-3.6 10.2-3.6 8.8 0 16 7.3 16 16.1 0 5.7-2.8 10.8-7.6 13.8.1 0-.7 0-.7 0zm-8.1 2.2c-8.8 0-16-7.3-16-16.1 0-1.6.3-3.2.8-4.7.2-.5.6-.6.9-.5.5.2.6.6.5.9-.5 1.4-.6 2.8-.6 4.3 0 7.9 6.5 14.6 14.5 14.6.5 0 .8.3.8.8s-.4.7-.9.7z" class="K"/><g class="J"><path d="M755.3 126.7c-5 0-9.3-4.1-9.3-9.3s4.1-9.3 9.3-9.3c.5 0 .8.3.8.8s-.3.8-.8.8c-4.3 0-7.7 3.5-7.7 7.7s3.5 7.8 7.7 7.8c.5 0 .8.3.8.8s-.4.7-.8.7z"/><path d="M755.3 116.3h-10.9c-.5 0-.8-.3-.8-.8s.3-.8.8-.8h10.9c.5 0 .8.3.8.8s-.4.8-.8.8zm0 3.6h-10.9c-.5 0-.8-.3-.8-.8s.3-.8.8-.8h10.9c.5 0 .8.3.8.8-.1.5-.4.8-.8.8h0z"/><use xlink:href="#R" x="-171.6" y="-2.7"/><path d="M580.4 135.2c-11.3 0-20.5-9.2-20.5-20.6S569 94 580.4 94c11.3 0 20.5 9.2 20.5 20.6-.1 11.5-9.2 20.6-20.5 20.6zm0-39.3c-10.4 0-18.9 8.5-18.9 19s8.5 19 18.9 19 18.9-8.5 18.9-19-8.5-19-18.9-19z"/></g><use xlink:href="#N" x="-105.7" y="-108.2" class="K"/><g class="J"><use xlink:href="#O" x="-105.7" y="-108.2"/><use xlink:href="#P" x="-105.7" y="-108.2"/><path d="M645.7 138.5h-6.1a.94.94 0 1 1 0-2h6.1c13.4 0 24.3-11 24.3-24.4s-10.9-24.4-24.3-24.4h-6.1a.94.94 0 0 1-1-1 .94.94 0 0 1 1-1h6.1c14.6 0 26.3 11.8 26.3 26.4s-11.7 26.4-26.3 26.4h0z"/><path d="M641.1 138.5c-14.6 0-26.3-11.8-26.3-26.5 0-14.6 11.7-26.4 26.3-26.4s26.3 11.8 26.3 26.4c0 14.7-11.8 26.5-26.3 26.5zm0-50.6c-13.4 0-24.3 11-24.3 24.4s10.9 24.4 24.3 24.4 24.3-11 24.3-24.4-11-24.4-24.3-24.4z"/></g><path d="M651.4 130c-.4 0-.6-.2-.8-.4-.3-.5-.1-1.1.4-1.4 5.5-3.5 8.9-9.4 8.9-15.9 0-10.2-8.3-18.7-18.6-18.7-4.3 0-8.5 1.4-11.7 4.3-.4.4-1 .2-1.4-.2s-.2-1 .2-1.4c3.6-3.1 8.3-4.7 13.2-4.7 11.3 0 20.6 9.4 20.6 20.8 0 7.3-3.6 13.8-9.7 17.7-.1-.1-1.1-.1-1.1-.1zm-10.3 2.8c-11.3 0-20.6-9.4-20.6-20.8 0-2 .4-4.1 1-6.1.2-.6.8-.8 1.2-.6.6.2.8.8.6 1.2-.6 1.8-.8 3.7-.8 5.5 0 10.2 8.3 18.7 18.6 18.7a.94.94 0 0 1 1 1c0 .6-.4 1.1-1 1.1z" class="K"/><g class="J"><path d="M645.3 124.1c-6.5 0-11.9-5.3-11.9-12s5.3-12 11.9-12a.94.94 0 0 1 1 1 .94.94 0 0 1-1 1c-5.5 0-9.9 4.5-9.9 10s4.5 10 9.9 10a.94.94 0 1 1 0 2z"/><path d="M645.3 110.7h-14a.94.94 0 0 1-1-1 .94.94 0 0 1 1-1h14a.94.94 0 0 1 1 1 .94.94 0 0 1-1 1zm0 4.6h-14a1 1 0 1 1 0-2h14a1 1 0 1 1 0 2h0zm45.4-21.6h-5.4c-.5 0-.9-.4-.9-.9s.4-.9.9-.9h5.4c11.8 0 21.5-9.7 21.5-21.6s-9.7-21.6-21.5-21.6h-5.4c-.5 0-.9-.4-.9-.9s.4-.9.9-.9h5.4c12.9 0 23.2 10.4 23.2 23.4s-10.3 23.4-23.2 23.4h0z"/><path d="M686.6 93.7c-12.9 0-23.2-10.4-23.2-23.4 0-12.9 10.4-23.4 23.2-23.4 12.9 0 23.2 10.4 23.2 23.4s-10.4 23.4-23.2 23.4zm0-44.7c-11.8 0-21.5 9.7-21.5 21.6s9.7 21.6 21.5 21.6 21.5-9.7 21.5-21.6S698.4 49 686.6 49z"/></g><path d="M695.7 86.2c-.4 0-.5-.2-.7-.4-.2-.4-.1-1 .4-1.3 4.8-3.1 7.9-8.3 7.9-14 0-9-7.3-16.5-16.5-16.5-3.8 0-7.5 1.3-10.4 3.8-.4.4-.9.2-1.3-.2s-.2-.9.2-1.3c3.2-2.7 7.3-4.1 11.6-4.1 10 0 18.2 8.3 18.2 18.3 0 6.5-3.2 12.2-8.6 15.6.1.1-.8.1-.8.1zm-9.1 2.5c-10 0-18.2-8.3-18.2-18.3 0-1.8.4-3.6.9-5.4.2-.5.7-.7 1.1-.5.5.2.7.7.5 1.1-.5 1.6-.7 3.2-.7 4.9 0 9 7.3 16.5 16.5 16.5.5 0 .9.4.9.9s-.5.8-1 .8z" class="K"/><g class="J"><path d="M690.3 81c-5.7 0-10.6-4.7-10.6-10.6s4.6-10.6 10.6-10.6c.5 0 .9.4.9.9s-.4.9-.9.9c-4.8 0-8.8 4-8.8 8.8a8.75 8.75 0 0 0 8.8 8.8c.5 0 .9.4.9.9s-.3.9-.9.9z"/><path d="M690.3 69.1H678c-.5 0-.9-.4-.9-.9s.4-.9.9-.9h12.3c.5 0 .9.4.9.9s-.3.9-.9.9zm0 4.1H678c-.5 0-.9-.4-.9-.9s.4-.9.9-.9h12.3c.5 0 .9.4.9.9s-.3.9-.9.9h0zm5.1 69.3h-4.2a.7.7 0 1 1 0-1.4h4.2c9.3 0 16.9-7.6 16.9-17 0-9.3-7.6-17-16.9-17h-4.2a.7.7 0 1 1 0-1.4h4.2c10.1 0 18.3 8.2 18.3 18.4s-8.1 18.4-18.3 18.4h0z"/><path d="M692.2 142.5c-10.1 0-18.3-8.2-18.3-18.4s8.2-18.4 18.3-18.4 18.3 8.2 18.3 18.4-8.2 18.4-18.3 18.4zm0-35.3c-9.3 0-16.9 7.6-16.9 17 0 9.3 7.6 17 16.9 17s16.9-7.6 16.9-17c0-9.3-7.6-17-16.9-17z"/></g><path d="M699.4 136.6c-.3 0-.4-.1-.6-.3-.2-.4-.1-.8.3-1 3.8-2.4 6.2-6.5 6.2-11 0-7.1-5.8-13-13-13-3 0-5.9 1-8.2 3-.3.3-.7.1-1-.1-.3-.3-.1-.7.1-1 2.5-2.1 5.8-3.3 9.2-3.3 7.9 0 14.4 6.5 14.4 14.4a14.29 14.29 0 0 1-6.8 12.3c.1 0-.6 0-.6 0zm-7.2 1.9c-7.9 0-14.4-6.5-14.4-14.4 0-1.4.3-2.8.7-4.2.1-.4.6-.6.8-.4.4.1.6.6.4.8-.4 1.3-.6 2.5-.6 3.8 0 7.1 5.8 13 13 13a.68.68 0 0 1 .7.7c.1.5-.2.7-.6.7z" class="K"/><g class="J"><path d="M695.1 132.5c-4.5 0-8.3-3.7-8.3-8.4s3.7-8.4 8.3-8.4a.68.68 0 1 1 0 1.4c-3.8 0-6.9 3.1-6.9 6.9s3.1 6.9 6.9 6.9a.68.68 0 0 1 .7.7c0 .4-.2.9-.7.9z"/><path d="M695.1 123.1h-9.7a.7.7 0 1 1 0-1.4h9.7a.68.68 0 0 1 .7.7c0 .4-.2.7-.7.7zm0 3.3h-9.7a.7.7 0 1 1 0-1.4h9.7a.68.68 0 0 1 .7.7c.1.4-.2.7-.7.7h0zm42.5-40.6h-3.1a.5.5 0 1 1 0-1h3.1c6.8 0 12.4-5.6 12.4-12.5s-5.6-12.5-12.4-12.5h-3.1a.5.5 0 1 1 0-1h3.1c7.4 0 13.4 6 13.4 13.5s-6 13.5-13.4 13.5h0z"/><path d="M735.2 85.8c-7.4 0-13.4-6-13.4-13.5s6-13.5 13.4-13.5 13.4 6 13.4 13.5-6 13.5-13.4 13.5zm0-25.8c-6.8 0-12.4 5.6-12.4 12.5S728.4 85 735.2 85s12.4-5.6 12.4-12.5S742 60 735.2 60z"/></g><path d="M740.5 81.5c-.2 0-.3-.1-.4-.2-.1-.3 0-.6.2-.7 2.8-1.8 4.5-4.8 4.5-8.1 0-5.2-4.2-9.6-9.5-9.6-2.2 0-4.3.7-6 2.2-.2.2-.5.1-.7-.1s-.1-.5.1-.7c1.9-1.6 4.2-2.4 6.7-2.4 5.8 0 10.5 4.8 10.5 10.6 0 3.7-1.9 7.1-5 9 .1 0-.4 0-.4 0zm-5.3 1.4c-5.8 0-10.5-4.8-10.5-10.6 0-1 .2-2.1.5-3.1.1-.3.4-.4.6-.3.3.1.4.4.3.6-.3.9-.4 1.9-.4 2.8 0 5.2 4.2 9.6 9.5 9.6a.47.47 0 1 1 0 1z" class="K"/><g class="J"><path d="M737.4 78.5c-3.3 0-6.1-2.7-6.1-6.1a6.06 6.06 0 0 1 6.1-6.1.47.47 0 1 1 0 1c-2.8 0-5.1 2.3-5.1 5.1s2.3 5.1 5.1 5.1a.47.47 0 1 1 0 1z"/><path d="M737.4 71.6h-7.1a.5.5 0 1 1 0-1h7.1a.5.5 0 1 1 0 1zm0 2.4h-7.1a.5.5 0 1 1 0-1h7.1a.5.5 0 1 1 0 1h0zm-11.5 85.3h-3a.5.5 0 1 1 0-1h3a12.04 12.04 0 0 0 12-12 12.04 12.04 0 0 0-12-12h-3a.5.5 0 1 1 0-1h3c7.2 0 13 5.8 13 13 0 7.1-5.8 13-13 13h0z"/><path d="M723.6 159.3c-7.2 0-13-5.8-13-13s5.8-13 13-13 13 5.8 13 13c0 7.1-5.8 13-13 13zm0-25a12.04 12.04 0 0 0-12 12 12.04 12.04 0 0 0 12 12 12.04 12.04 0 0 0 12-12 12.04 12.04 0 0 0-12-12z"/></g><use xlink:href="#S" class="K"/><g class="J"><use xlink:href="#T"/><use xlink:href="#U"/><path d="M728.3 249.3h-3a.47.47 0 1 1 0-1h3a12.04 12.04 0 0 0 12-12 12.04 12.04 0 0 0-12-12h-3a.47.47 0 1 1 0-1h3c7.2 0 13 5.8 13 13-.1 7.2-5.9 13-13 13h0z"/><path d="M726 249.3c-7.2 0-13-5.8-13-13s5.8-13 13-13 13 5.8 13 13c-.1 7.2-5.9 13-13 13zm0-24.9a12.04 12.04 0 0 0-12 12 12.04 12.04 0 0 0 12 12 12.04 12.04 0 0 0 12-12c0-6.6-5.5-12-12-12z"/></g><use xlink:href="#V" class="K"/><g class="J"><use xlink:href="#T" x="2.4" y="90.1"/><use xlink:href="#U" x="2.4" y="90.1"/><use xlink:href="#W"/><path d="M652.6 290c-7.2 0-13-5.8-13-13s5.8-13 13-13 13 5.8 13 13-5.8 13-13 13zm0-24.9a12.04 12.04 0 0 0-12 12 12.04 12.04 0 0 0 12 12 12.04 12.04 0 0 0 12-12 12.04 12.04 0 0 0-12-12z"/></g><use xlink:href="#S" x="-71" y="130.8" class="K"/><g class="J"><use xlink:href="#T" x="-71" y="130.8"/><use xlink:href="#U" x="-71" y="130.8"/><path d="M696.1 322.4h-3a.47.47 0 1 1 0-1h3a12.04 12.04 0 0 0 12-12 12.04 12.04 0 0 0-12-12h-3a.47.47 0 1 1 0-1h3c7.2 0 13 5.8 13 13-.1 7.2-5.8 13-13 13h0z"/><path d="M693.8 322.4c-7.2 0-13-5.8-13-13s5.8-13 13-13 13 5.8 13 13c-.1 7.2-5.8 13-13 13zm0-24.9a12.04 12.04 0 0 0-12 12 12.04 12.04 0 0 0 12 12 12.04 12.04 0 0 0 12-12 12.04 12.04 0 0 0-12-12z"/></g><use xlink:href="#S" x="-29.8" y="163.2" class="K"/><g class="J"><use xlink:href="#T" x="-29.8" y="163.2"/><path d="M695.9 308.7H689a.47.47 0 1 1 0-1h6.9a.47.47 0 1 1 0 1zm0 2.3H689a.47.47 0 1 1 0-1h6.9a.47.47 0 1 1 0 1h0z"/><use xlink:href="#W" x="-57.4" y="-122.6"/><path d="M595.3 167.4c-7.2 0-13-5.8-13-13s5.8-13 13-13 13 5.8 13 13c-.1 7.2-5.9 13-13 13zm0-25a12.04 12.04 0 0 0-12 12 12.04 12.04 0 0 0 12 12 12.04 12.04 0 0 0 12-12c0-6.6-5.5-12-12-12z"/></g><use xlink:href="#V" x="-130.7" y="-81.9" class="K"/><g class="J"><use xlink:href="#T" x="-128.4" y="8.2"/><use xlink:href="#U" x="-128.4" y="8.1"/></g><defs ><path id="B" d="M662.1 353.9c-.5 0-.8-.3-.8-.7h0c0-.9-.9-1.6-2-1.6s-2 .8-2 1.6c0 .4-.4.7-.8.7h0c-.5 0-.8-.3-.8-.7 0-1.6 1.6-2.9 3.5-2.9h.1c1.9 0 3.5 1.3 3.6 2.8h0c.1.5-.4.8-.8.8z"/><path id="C" d="M660 210.8c-.1 0-.2-.1-.3-.1-.1-.2 0-.4.1-.5 1.8-1.2 3-3.1 3-5.3 0-3.4-2.8-6.3-6.3-6.3-1.4 0-2.9.5-3.9 1.4-.1.1-.3.1-.5-.1-.1-.1-.1-.3.1-.5a6.99 6.99 0 0 1 4.4-1.6c3.8 0 6.9 3.1 6.9 7 0 2.5-1.2 4.6-3.3 5.9.1.1-.2.1-.2.1zm-3.5.9c-3.8 0-6.9-3.1-6.9-7 0-.7.1-1.4.3-2.1.1-.2.3-.3.4-.2.2.1.3.3.2.4-.2.6-.3 1.2-.3 1.8 0 3.4 2.8 6.3 6.3 6.3.2 0 .3.1.3.3 0 .4-.1.5-.3.5z"/><path id="D" d="M657.9 208.8c-2.2 0-4-1.8-4-4 0-2.3 1.8-4 4-4 .2 0 .3.1.3.3s-.1.3-.3.3c-1.8 0-3.3 1.5-3.3 3.4 0 1.8 1.5 3.4 3.3 3.4.2 0 .3.1.3.3s-.1.3-.3.3z"/><path id="E" d="M671.4 265.3c-4.9 0-8.8-4-8.8-8.9s3.9-8.9 8.8-8.9 8.8 4 8.8 8.9c.1 4.9-3.9 8.9-8.8 8.9zm0-17.1a8.24 8.24 0 0 0-8.2 8.2 8.24 8.24 0 0 0 8.2 8.2 8.24 8.24 0 0 0 8.2-8.2 8.24 8.24 0 0 0-8.2-8.2z"/><path id="F" d="M674.9 262.4c-.1 0-.2-.1-.3-.1-.1-.2 0-.4.1-.5 1.8-1.2 3-3.1 3-5.3 0-3.4-2.8-6.3-6.3-6.3-1.4 0-2.9.5-3.9 1.4-.1.1-.3.1-.5-.1-.1-.1-.1-.3.1-.5a6.99 6.99 0 0 1 4.4-1.6c3.8 0 6.9 3.1 6.9 7 0 2.5-1.2 4.6-3.3 5.9.1.1-.2.1-.2.1zm-3.5.9c-3.8 0-6.9-3.1-6.9-7 0-.7.1-1.4.3-2.1.1-.2.3-.3.4-.2.2.1.3.3.2.4-.2.6-.3 1.2-.3 1.8 0 3.4 2.8 6.3 6.3 6.3.2 0 .3.1.3.3.1.4-.1.5-.3.5z"/><path id="G" d="M752.7 166.7c-4.9 0-8.8-4-8.8-8.9s3.9-8.9 8.8-8.9 8.8 4 8.8 8.9c.1 4.9-3.9 8.9-8.8 8.9zm0-17a8.24 8.24 0 0 0-8.2 8.2 8.24 8.24 0 0 0 8.2 8.2 8.24 8.24 0 0 0 8.2-8.2 8.24 8.24 0 0 0-8.2-8.2z"/><path id="H" d="M756.2 163.8c-.1 0-.2-.1-.3-.1-.1-.2 0-.4.1-.5 1.8-1.2 3-3.1 3-5.3 0-3.4-2.8-6.3-6.3-6.3-1.4 0-2.9.5-3.9 1.4-.1.1-.3.1-.5-.1-.1-.1-.1-.3.1-.5a6.99 6.99 0 0 1 4.4-1.6c3.8 0 6.9 3.1 6.9 7 0 2.5-1.2 4.6-3.3 5.9.1.1-.2.1-.2.1zm-3.5 1c-3.8 0-6.9-3.1-6.9-7 0-.7.1-1.4.3-2.1.1-.2.3-.3.4-.2.2.1.3.3.2.4-.2.6-.3 1.2-.3 1.8 0 3.4 2.8 6.3 6.3 6.3.2 0 .3.1.3.3s-.1.5-.3.5z"/><path id="I" d="M754.2 157.3h-4.7c-.2 0-.3-.1-.3-.3s.1-.3.3-.3h4.7c.2 0 .3.1.3.3s-.1.3-.3.3zm0 1.6h-4.7c-.2 0-.3-.1-.3-.3s.1-.3.3-.3h4.7c.2 0 .3.1.3.3s-.1.3-.3.3h0z"/><path id="J" d="M646.4 72.9c-2.2 0-4-1.8-4-4 0-2.3 1.8-4 4-4 .2 0 .3.1.3.3s-.1.3-.3.3c-1.8 0-3.3 1.5-3.3 3.4s1.5 3.4 3.3 3.4c.2 0 .3.1.3.3s-.1.3-.3.3z"/><path id="K" d="M725.3 210c-12.3 0-22.3-10-22.3-22.4s9.9-22.4 22.3-22.4c12.3 0 22.3 10 22.3 22.4-.1 12.4-10 22.4-22.3 22.4zm0-42.9c-11.3 0-20.6 9.3-20.6 20.7s9.2 20.7 20.6 20.7c11.3 0 20.6-9.3 20.6-20.7s-9.3-20.7-20.6-20.7z"/><path id="L" d="M734 202.7c-.3 0-.5-.2-.7-.3-.2-.4-.1-1 .3-1.2 4.6-2.9 7.5-7.9 7.5-13.4 0-8.6-7-15.8-15.8-15.8-3.6 0-7.2 1.2-9.9 3.6-.3.3-.9.2-1.2-.2-.3-.3-.2-.9.2-1.2 3.1-2.6 7-4 11.1-4 9.6 0 17.5 7.9 17.5 17.6 0 6.2-3.1 11.7-8.2 15 .1-.1-.8-.1-.8-.1zm-8.7 2.4c-9.6 0-17.5-7.9-17.5-17.6 0-1.7.3-3.4.9-5.2.2-.5.7-.7 1-.5.5.2.7.7.5 1-.5 1.5-.7 3.1-.7 4.6 0 8.6 7 15.8 15.8 15.8.5 0 .9.3.9.9-.1.7-.4 1-.9 1z"/><path id="M" d="M728.9 197.7c-5.5 0-10.1-4.5-10.1-10.2s4.5-10.2 10.1-10.2c.5 0 .9.3.9.9 0 .5-.3.9-.9.9-4.6 0-8.4 3.8-8.4 8.4s3.8 8.4 8.4 8.4c.5 0 .9.3.9.9-.1.6-.4.9-.9.9z"/><path id="N" d="M694.1 236.8c-.3 0-.5-.2-.6-.3-.2-.4-.1-.9.3-1.1 4.3-2.7 6.9-7.3 6.9-12.3 0-7.9-6.5-14.6-14.5-14.6-3.3 0-6.6 1.1-9.1 3.3-.3.3-.8.2-1.1-.2-.3-.3-.2-.8.2-1.1 2.8-2.4 6.5-3.6 10.2-3.6 8.8 0 16 7.3 16 16.1 0 5.7-2.8 10.8-7.6 13.8.1 0-.7 0-.7 0zm-8 2.2c-8.8 0-16-7.3-16-16.1 0-1.6.3-3.2.8-4.7.2-.5.6-.6.9-.5.5.2.6.6.5.9-.5 1.4-.6 2.8-.6 4.3 0 7.9 6.5 14.6 14.5 14.6.5 0 .8.3.8.8-.1.4-.5.7-.9.7z"/><path id="O" d="M689.4 232.2c-5 0-9.3-4.1-9.3-9.3s4.1-9.3 9.3-9.3c.5 0 .8.3.8.8s-.3.8-.8.8c-4.3 0-7.7 3.5-7.7 7.7 0 4.3 3.5 7.8 7.7 7.8.5 0 .8.3.8.8 0 .4-.4.7-.8.7z"/><path id="P" d="M689.4 221.8h-10.9c-.5 0-.8-.3-.8-.8s.3-.8.8-.8h10.9c.5 0 .8.3.8.8s-.4.8-.8.8zm0 3.6h-10.9c-.5 0-.8-.3-.8-.8s.3-.8.8-.8h10.9c.5 0 .8.3.8.8s-.4.8-.8.8h0z"/><path id="Q" d="M640.3 237.9h-10.9c-.5 0-.8-.3-.8-.8s.3-.8.8-.8h10.9c.5 0 .8.3.8.8s-.3.8-.8.8zm0 3.6h-10.9c-.5 0-.8-.3-.8-.8s.3-.8.8-.8h10.9c.5 0 .8.3.8.8s-.3.8-.8.8h0z"/><path id="R" d="M755.6 137.9h-4.7c-.5 0-.8-.3-.8-.8s.3-.8.8-.8h4.7c10.4 0 18.9-8.5 18.9-19 0-10.4-8.5-19-18.9-19h-4.7c-.5 0-.8-.3-.8-.8s.3-.8.8-.8h4.7c11.3 0 20.5 9.2 20.5 20.6-.1 11.5-9.2 20.6-20.5 20.6h0z"/><path id="S" d="M728.7 155c-.2 0-.3-.1-.4-.2-.1-.2 0-.6.2-.7 2.7-1.7 4.4-4.6 4.4-7.8 0-5-4.1-9.2-9.2-9.2-2.1 0-4.2.7-5.8 2.1-.2.2-.5.1-.7-.1s-.1-.5.1-.7c1.8-1.5 4.1-2.3 6.5-2.3 5.6 0 10.2 4.6 10.2 10.2 0 3.6-1.8 6.8-4.8 8.7h-.5zm-5.1 1.4c-5.6 0-10.2-4.6-10.2-10.2 0-1 .2-2 .5-3 .1-.3.4-.4.6-.3.3.1.4.4.3.6-.3.9-.4 1.8-.4 2.7 0 5 4.1 9.2 9.2 9.2a.47.47 0 1 1 0 1z"/><path id="T" d="M725.7 152.1c-3.2 0-5.9-2.6-5.9-5.9s2.6-5.9 5.9-5.9a.47.47 0 1 1 0 1 4.91 4.91 0 0 0-4.9 4.9 4.91 4.91 0 0 0 4.9 4.9.47.47 0 1 1 0 1z"/><path id="U" d="M725.7 145.5h-6.9a.47.47 0 1 1 0-1h6.9a.47.47 0 1 1 0 1zm0 2.3h-6.9a.47.47 0 1 1 0-1h6.9a.47.47 0 1 1 0 1h0z"/><path id="V" d="M731 245.1c-.2 0-.3-.1-.4-.2-.1-.2 0-.6.2-.7 2.7-1.7 4.4-4.6 4.4-7.8 0-5-4.1-9.2-9.2-9.2-2.1 0-4.2.7-5.8 2.1-.2.2-.5.1-.7-.1s-.1-.5.1-.7c1.8-1.5 4.1-2.3 6.5-2.3 5.6 0 10.2 4.6 10.2 10.2 0 3.6-1.8 6.8-4.8 8.7h-.5zm-5 1.4c-5.6 0-10.2-4.6-10.2-10.2 0-1 .2-2 .5-3 .1-.3.4-.4.6-.3.3.1.4.4.3.6-.3.9-.4 1.8-.4 2.7 0 5 4.1 9.2 9.2 9.2a.47.47 0 1 1 0 1z"/><path id="W" d="M654.9 290h-3a.47.47 0 1 1 0-1h3a12.04 12.04 0 0 0 12-12 12.04 12.04 0 0 0-12-12h-3a.47.47 0 1 1 0-1h3c7.2 0 13 5.8 13 13s-5.8 13-13 13h0z"/></defs></svg>