<svg xmlns="http://www.w3.org/2000/svg" xmlns:xlink="http://www.w3.org/1999/xlink" width="58" height="50" xmlns:v="https://vecta.io/nano"><defs><path id="A" d="M.025.017h18.213v30.077H.025z"/><path id="B" d="M0 .02h4.175v9.167H0z"/></defs><g fill="none" fill-rule="evenodd"><path fill="#233090" stroke="#f8fafc" d="M.5.5h57v49H.5z"/><g transform="translate(34.761 4)"><mask id="C" fill="#fff"><use xlink:href="#A"/></mask><path fill="#f8fafc" d="M7.828 15.52l.252-1.005 3.5-14.31c.038-.158.105-.187.253-.187l6.214-.001c.187 0 .217.038.173.213l-7.353 28.788-.235.917c-.026.114-.067.158-.192.158a1009.2 1009.2 0 0 0-5.22 0c-.15.001-.165-.075-.193-.183l-2.036-7.804L.043 10.818c-.045-.172-.016-.206.161-.205h5.854c.15 0 .217.039.263.185l1.422 4.473.085.248" mask="url(#C)"/></g><g fill="#f8fafc"><path d="M34.056 24.317v9.444c0 .328 0 .328-.318.328-2.977 0-5.955-.019-8.932.01-1.058.011-1.971-.31-2.802-.927-.726-.538-1.316-1.195-1.697-2.025a2.915 2.915 0 0 1-.274-1.233l-.003-15.206c0-.182.061-.207.222-.207h5.667c.18-.001.228.042.227.226l-.004 12.716c0 .58.195.775.777.775l.842.002c.115.002.166-.035.152-.153-.006-.047-.001-.096-.001-.144l-.005-13.169c0-.216.06-.255.261-.254h5.668c.184 0 .224.049.224.228l-.004 9.589m-18.078-.861l.004 9.72c0 .17-.03.225-.221.224a687.574 687.574 0 0 0-5.748 0c-.196 0-.25-.04-.25-.24l.005-19.316c0-.32.04-.282-.285-.282-1.092-.001-2.185-.004-3.278.003-.163.001-.205-.041-.204-.2L6 7.695c0-.164.051-.195.207-.194L19.114 7.5c.175 0 .215.047.214.213a787.91 787.91 0 0 0 0 5.589c.001.172-.05.208-.218.207-.955-.008-1.91.002-2.864-.009-.207-.002-.274.038-.273.258l.005 9.698m7.203-9.66c-.985 0-1.97-.004-2.955.004-.16.001-.197-.041-.196-.198v-5.9c0-.152.028-.203.194-.202h5.931c.15 0 .187.041.187.189l.001 5.921c0 .175-.063.19-.207.189l-2.955-.003m11.576-3.121l.004 2.928c.002.162-.044.197-.2.196-1.97-.005-3.94-.006-5.91.001-.175 0-.203-.056-.203-.213V7.709c0-.167.042-.209.208-.208l5.89-.001c.184 0 .216.055.215.225l-.004 2.95m9.053 31.983v-1.124l-.005-4.426c0-.17.047-.214.226-.207h1.062c.154-.004.191.038.19.178l-.003 3.944.004 4.084c0 .147-.035.194-.201.191a48.93 48.93 0 0 0-1.67 0c-.156.002-.22-.04-.268-.184l-1.898-5.694a.509.509 0 0 0-.11-.203v.183l.003 5.674c0 .17-.034.235-.234.225l-1.062-.002c-.132.003-.174-.033-.171-.158l.003-1.026-.004-7.002c0-.164.037-.215.222-.21h1.712c.153-.003.208.046.252.174l1.862 5.432.054.149.036.002zm3.697-1.544l-.003 2.714c0 .14.035.184.171.176l.68-.007c.31-.01.54-.16.691-.44.125-.232.177-.488.212-.747.132-.973.093-1.952.064-2.93-.012-.387-.06-.772-.216-1.134s-.424-.545-.804-.55c-.207-.004-.415.01-.621-.006-.153-.012-.178.047-.177.19l.003 2.734zm-1.518-.025l-.004-3.982c0-.17.042-.209.202-.207l2.272.004c.234-.001.466.013.695.061.92.193 1.335.869 1.538 1.738a7.37 7.37 0 0 1 .178 1.514c.023 1.03.083 2.064-.134 3.084a3.426 3.426 0 0 1-.193.651c-.354.821-.958 1.293-1.831 1.323l-2.582.025c-.158.002-.141-.085-.141-.188v-4.023zm-21.536-1.726v.563c.002.194-.068.454.033.562.117.126.389.036.593.038.413.005.641-.145.785-.523a1.98 1.98 0 0 0 .056-1.245c-.105-.391-.346-.562-.765-.566-.186-.002-.373.007-.558-.003-.122-.006-.149.039-.147.149l.003 1.025m1.786 1.81l.18.04c.683.144 1.087.566 1.139 1.247l.083 1.869c.01.282.034.563.095.838.022.096.017.132-.095.13a68.313 68.313 0 0 0-1.323 0c-.103.002-.144-.039-.172-.13a2.751 2.751 0 0 1-.12-.731l-.029-1.67c-.05-.565-.314-.852-.886-.934-.648-.094-.658-.086-.658.538l.003 2.736c.001.148-.034.198-.193.194a31.18 31.18 0 0 0-1.261-.002c-.123.002-.165-.026-.165-.154a2405.2 2405.2 0 0 0-.001-8.09c0-.15.067-.154.183-.154l2.71.002c.98.001 1.572.456 1.798 1.386a3.41 3.41 0 0 1 .026 1.517c-.15.712-.559 1.198-1.314 1.369"/><path d="M36.447 38.52l-.061.182-.395 1.936-.265 1.325c-.01.056-.102.175.069.177l1.43.002-.778-3.623m.085-1.616l.89-.002c.134-.004.188.027.22.156l1.768 7.093.247.979c.043.146-.008.17-.154.168a28.854 28.854 0 0 0-1.314.003c-.17.005-.212-.06-.24-.188l-.34-1.516c-.028-.13-.083-.17-.231-.168h-1.827c-.154-.003-.2.054-.227.173l-.36 1.553c-.022.092-.047.144-.166.143a55.368 55.368 0 0 0-1.314 0c-.17.002-.127-.075-.103-.167l.954-3.758 1.095-4.306c.034-.136.09-.17.233-.166l.869.003m-16.919 1.63c-.016.023-.028.033-.03.045l-.712 3.448c-.023.111.033.12.13.119l.869-.003c.169-.003.395.067.488-.033.068-.073-.033-.275-.064-.42l-.68-3.156m.083-1.627l.848-.005c.18-.01.24.048.277.196l.897 3.605 1.098 4.388c.039.152.034.215-.17.21a30.448 30.448 0 0 0-1.317-.002c-.128.002-.177-.032-.202-.15l-.347-1.535c-.028-.127-.07-.188-.24-.185l-1.83.002c-.134 0-.19.028-.219.157l-.361 1.553c-.028.125-.082.161-.22.159a35.208 35.208 0 0 0-1.227-.001c-.147.002-.186-.02-.148-.167l1.55-6.065.505-1.996c.033-.137.093-.171.236-.167l.87.003"/><path d="M13.309 38.584h-.05l-.7 3.447c-.026.124.04.114.126.114h1.113c.284 0 .282 0 .228-.244l-.297-1.377-.42-1.94m.074-1.677l.915-.002c.119-.003.166.033.192.139l2.02 8.088c.036.146-.002.169-.15.167a37.875 37.875 0 0 0-1.337 0c-.145.004-.192-.047-.218-.163l-.35-1.554c-.026-.119-.075-.152-.203-.15-.617.004-1.234.007-1.851-.002-.151-.002-.202.045-.23.172l-.353 1.533c-.027.122-.077.167-.218.164a30.058 30.058 0 0 0-1.226 0c-.16.004-.186-.043-.152-.174l1.255-4.91.784-3.09c.04-.158.094-.238.298-.223.273.02.55.005.824.005"/></g><g transform="translate(6 36.2)"><mask id="D" fill="#fff"><use xlink:href="#B"/></mask><path fill="#f8fafc" d="M3.435 2.694c-.174 0-.348-.007-.52.003-.11.006-.136-.038-.135-.156a2.63 2.63 0 0 0-.083-.67c-.088-.342-.255-.503-.537-.515-.294-.014-.543.163-.633.48-.137.479-.077.923.228 1.303.193.242.426.43.665.61l.675.524c.881.712 1.184 1.697 1.049 2.891-.03.267-.07.532-.162.781-.205.553-.549.933-1.062 1.095a2.98 2.98 0 0 1-1.545.082C.691 8.976.285 8.495.112 7.745a5.223 5.223 0 0 1-.11-1.263c.001-.131.03-.185.157-.182l1.06.002c.111-.003.152.029.149.164a3.6 3.6 0 0 0 .045.718c.076.448.318.678.712.673.355-.004.589-.236.656-.669.073-.467-.018-.878-.32-1.226-.357-.41-.803-.686-1.193-1.044l-.52-.512C-.108 3.418.004 1.932.337 1.119a1.6 1.6 0 0 1 .926-.924A2.539 2.539 0 0 1 2.73.08c.763.163 1.194.692 1.321 1.58.042.295.044.592.045.89 0 .125-.041.152-.14.148l-.521-.003" mask="url(#D)"/></g><path fill="#f8fafc" d="M29.152 41.084l-.003-3.983c0-.155.032-.203.175-.2h1.198c.169-.008.19.06.19.225l-.008 6.195c0 .196.044.244.215.24l1.574-.008c.122-.002.166.032.164.177l-.001 1.407c.001.122-.03.162-.141.162a305.143 305.143 0 0 0-3.22.001c-.144.001-.144-.074-.144-.194l.001-4.022"/></g></svg>