<svg xmlns="http://www.w3.org/2000/svg" xmlns:xlink="http://www.w3.org/1999/xlink" width="58" height="50" viewBox="0 0 58 50">
    <defs>
        <path id="a" d="M.025.017h18.213v30.077H.025z"/>
        <path id="c" d="M0 .02h4.175v9.167H0z"/>
    </defs>
    <g fill="none" fill-rule="evenodd">
        <path fill="#233090" stroke="#F8FAFC" d="M.5.5h57v49H.5z"/>
        <g transform="translate(34.761 4)">
            <mask id="b" fill="#fff">
                <use xlink:href="#a"/>
            </mask>
            <path fill="#F8FAFC" d="M7.828 15.52c.094-.373.175-.689.252-1.005 1.169-4.77 2.338-9.538 3.5-14.31.038-.158.105-.187.253-.187 2.071.004 4.143.006 6.214-.001.187 0 .217.038.173.213-2.454 9.595-4.903 19.192-7.353 28.788-.078.305-.165.61-.235.917-.026.114-.067.158-.192.158-1.74-.004-3.48-.005-5.22 0-.15.001-.165-.075-.193-.183-.677-2.602-1.358-5.203-2.036-7.804C2.009 18.343 1.03 14.58.043 10.818c-.045-.172-.016-.206.161-.205 1.952.005 3.903.005 5.854 0 .15 0 .217.039.263.185.468 1.492.946 2.982 1.422 4.473.02.063.043.125.085.248" mask="url(#b)"/>
        </g>
        <path fill="#F8FAFC" d="M34.056 24.317v9.444c0 .328 0 .328-.318.328-2.977 0-5.955-.019-8.932.01-1.058.011-1.971-.31-2.802-.927-.726-.538-1.316-1.195-1.697-2.025a2.915 2.915 0 0 1-.274-1.233c.002-5.068.002-10.137-.003-15.206 0-.182.061-.207.222-.207 1.889.006 3.778.006 5.667 0 .18-.001.228.042.227.226-.005 4.239-.004 8.477-.004 12.716 0 .58.195.775.777.775.28 0 .561-.005.842.002.115.002.166-.035.152-.153-.006-.047-.001-.096-.001-.144 0-4.39.002-8.779-.005-13.169 0-.216.06-.255.261-.254 1.89.008 3.779.008 5.668 0 .184 0 .224.049.224.228-.006 3.196-.004 6.392-.004 9.589M15.978 23.456c0 3.24-.001 6.48.004 9.72 0 .17-.03.225-.221.224a687.574 687.574 0 0 0-5.748 0c-.196 0-.25-.04-.25-.24.007-6.438.006-12.877.005-19.316 0-.32.04-.282-.285-.282-1.092-.001-2.185-.004-3.278.003-.163.001-.205-.041-.204-.2.005-1.89.006-3.78-.001-5.67 0-.164.051-.195.207-.194 4.303.004 8.605.004 12.907-.001.175 0 .215.047.214.213a787.91 787.91 0 0 0 0 5.589c.001.172-.05.208-.218.207-.955-.008-1.91.002-2.864-.009-.207-.002-.274.038-.273.258.008 3.232.005 6.465.005 9.698M23.181 13.796c-.985 0-1.97-.004-2.955.004-.16.001-.197-.041-.196-.198.006-1.967.005-3.934 0-5.9 0-.152.028-.203.194-.202 1.977.007 3.954.006 5.931 0 .15 0 .187.041.187.189-.005 1.974-.006 3.948.001 5.921 0 .175-.063.19-.207.189-.985-.006-1.97-.003-2.955-.003M34.757 10.675c0 .976-.004 1.952.004 2.928.002.162-.044.197-.2.196-1.97-.005-3.94-.006-5.91.001-.175 0-.203-.056-.203-.213.005-1.96.006-3.919 0-5.878 0-.167.042-.209.208-.208 1.963.006 3.926.007 5.89-.001.184 0 .216.055.215.225-.008.983-.004 1.966-.004 2.95M43.81 42.658v-1.124c0-1.475.003-2.95-.005-4.426 0-.17.047-.214.226-.207.354.014.709.011 1.062 0 .154-.004.191.038.19.178-.006 1.315-.003 2.63-.003 3.944 0 1.361-.003 2.723.004 4.084 0 .147-.035.194-.201.191-.557-.01-1.113-.009-1.67 0-.156.002-.22-.04-.268-.184-.627-1.9-1.263-3.796-1.898-5.694a.509.509 0 0 0-.11-.203v.183c0 1.891-.003 3.783.003 5.674 0 .17-.034.235-.234.225-.353-.017-.708-.01-1.062-.002-.132.003-.174-.033-.171-.158.009-.342.003-.684.003-1.026 0-2.334.002-4.668-.004-7.002 0-.164.037-.215.222-.21.57.012 1.142.01 1.712 0 .153-.003.208.046.252.174.617 1.812 1.24 3.622 1.862 5.432.017.05.036.1.054.149l.036.002zM47.507 41.114c0 .905.003 1.81-.003 2.714 0 .14.035.184.171.176.226-.012.453-.001.68-.007.31-.01.54-.16.691-.44.125-.232.177-.488.212-.747.132-.973.093-1.952.064-2.93-.012-.387-.06-.772-.216-1.134-.156-.365-.424-.545-.804-.55-.207-.004-.415.01-.621-.006-.153-.012-.178.047-.177.19.006.912.003 1.823.003 2.734zm-1.518-.025c0-1.327.004-2.655-.004-3.982 0-.17.042-.209.202-.207.757.01 1.515.006 2.272.004.234-.001.466.013.695.061.92.193 1.335.869 1.538 1.738a7.37 7.37 0 0 1 .178 1.514c.023 1.03.083 2.064-.134 3.084a3.426 3.426 0 0 1-.193.651c-.354.821-.958 1.293-1.831 1.323-.86.031-1.722.012-2.582.025-.158.002-.141-.085-.141-.188v-4.023zM24.453 39.363c0 .188-.002.376 0 .563.002.194-.068.454.033.562.117.126.389.036.593.038.413.005.641-.145.785-.523a1.98 1.98 0 0 0 .056-1.245c-.105-.391-.346-.562-.765-.566-.186-.002-.373.007-.558-.003-.122-.006-.149.039-.147.149.007.342.003.684.003 1.025m1.786 1.81c.06.014.12.028.18.04.683.144 1.087.566 1.139 1.247.047.622.058 1.246.083 1.869.01.282.034.563.095.838.022.096.017.132-.095.13a68.313 68.313 0 0 0-1.323 0c-.103.002-.144-.039-.172-.13a2.751 2.751 0 0 1-.12-.731c-.017-.556.02-1.113-.029-1.67-.05-.565-.314-.852-.886-.934-.648-.094-.658-.086-.658.538 0 .912-.004 1.824.003 2.736.001.148-.034.198-.193.194-.42-.011-.84-.008-1.261-.002-.123.002-.165-.026-.165-.154a2405.2 2405.2 0 0 0-.001-8.09c0-.15.067-.154.183-.154.903.003 1.806 0 2.71.002.98.001 1.572.456 1.798 1.386.122.503.132 1.012.026 1.517-.15.712-.559 1.198-1.314 1.369"/>
        <path fill="#F8FAFC" d="M36.447 38.52c-.028.083-.05.131-.061.182-.133.645-.264 1.29-.395 1.936-.09.441-.183.882-.265 1.325-.01.056-.102.175.069.177.473.005.946.002 1.43.002l-.778-3.623m.085-1.616c.297 0 .594.006.89-.002.134-.004.188.027.22.156.585 2.365 1.177 4.729 1.768 7.093.081.326.154.655.247.979.043.146-.008.17-.154.168a28.854 28.854 0 0 0-1.314.003c-.17.005-.212-.06-.24-.188-.11-.506-.233-1.01-.34-1.516-.028-.13-.083-.17-.231-.168-.609.009-1.218.01-1.827 0-.154-.003-.2.054-.227.173-.118.518-.244 1.035-.36 1.553-.022.092-.047.144-.166.143a55.368 55.368 0 0 0-1.314 0c-.17.002-.127-.075-.103-.167.32-1.252.635-2.505.954-3.758.365-1.435.736-2.87 1.095-4.306.034-.136.09-.17.233-.166.29.01.58.003.869.003M19.613 38.533c-.016.023-.028.033-.03.045-.238 1.15-.473 2.299-.712 3.448-.023.111.033.12.13.119.29-.004.58.002.869-.003.169-.003.395.067.488-.033.068-.073-.033-.275-.064-.42l-.68-3.156m.083-1.627c.283 0 .567.013.848-.005.18-.01.24.048.277.196.295 1.203.597 2.404.897 3.605.365 1.463.727 2.926 1.098 4.388.039.152.034.215-.17.21a30.448 30.448 0 0 0-1.317-.002c-.128.002-.177-.032-.202-.15-.109-.513-.234-1.023-.347-1.535-.028-.127-.07-.188-.24-.185-.61.012-1.22.008-1.83.002-.134 0-.19.028-.219.157-.112.52-.247 1.034-.361 1.553-.028.125-.082.161-.22.159a35.208 35.208 0 0 0-1.227-.001c-.147.002-.186-.02-.148-.167.521-2.02 1.034-4.043 1.55-6.065.17-.665.346-1.33.505-1.996.033-.137.093-.171.236-.167.29.01.58.003.87.003"/>
        <path fill="#F8FAFC" d="M13.309 38.584h-.05c-.232 1.15-.462 2.3-.7 3.447-.026.124.04.114.126.114h1.113c.284 0 .282 0 .228-.244l-.297-1.377-.42-1.94m.074-1.677c.305 0 .61.004.915-.002.119-.003.166.033.192.139.67 2.696 1.34 5.393 2.02 8.088.036.146-.002.169-.15.167a37.875 37.875 0 0 0-1.337 0c-.145.004-.192-.047-.218-.163-.114-.519-.241-1.035-.35-1.554-.026-.119-.075-.152-.203-.15-.617.004-1.234.007-1.851-.002-.151-.002-.202.045-.23.172-.113.512-.241 1.021-.353 1.533-.027.122-.077.167-.218.164a30.058 30.058 0 0 0-1.226 0c-.16.004-.186-.043-.152-.174.42-1.636.838-3.273 1.255-4.91.263-1.03.528-2.06.784-3.09.04-.158.094-.238.298-.223.273.02.55.005.824.005"/>
        <g transform="translate(6 36.2)">
            <mask id="d" fill="#fff">
                <use xlink:href="#c"/>
            </mask>
            <path fill="#F8FAFC" d="M3.435 2.694c-.174 0-.348-.007-.52.003-.11.006-.136-.038-.135-.156a2.63 2.63 0 0 0-.083-.67c-.088-.342-.255-.503-.537-.515-.294-.014-.543.163-.633.48-.137.479-.077.923.228 1.303.193.242.426.43.665.61.227.17.453.345.675.524.881.712 1.184 1.697 1.049 2.891-.03.267-.07.532-.162.781-.205.553-.549.933-1.062 1.095a2.98 2.98 0 0 1-1.545.082C.691 8.976.285 8.495.112 7.745a5.223 5.223 0 0 1-.11-1.263c.001-.131.03-.185.157-.182.353.011.707.009 1.06.002.111-.003.152.029.149.164-.007.24.004.48.045.718.076.448.318.678.712.673.355-.004.589-.236.656-.669.073-.467-.018-.878-.32-1.226-.357-.41-.803-.686-1.193-1.044-.18-.164-.359-.325-.52-.512-.856-.988-.744-2.474-.411-3.287a1.6 1.6 0 0 1 .926-.924A2.539 2.539 0 0 1 2.73.08c.763.163 1.194.692 1.321 1.58.042.295.044.592.045.89 0 .125-.041.152-.14.148-.174-.008-.348-.003-.521-.003" mask="url(#d)"/>
        </g>
        <path fill="#F8FAFC" d="M29.152 41.084c0-1.328.003-2.655-.003-3.983 0-.155.032-.203.175-.2.4.012.8.016 1.198 0 .169-.008.19.06.19.225-.005 2.065-.001 4.13-.008 6.195 0 .196.044.244.215.24.525-.014 1.05-.001 1.574-.008.122-.002.166.032.164.177-.008.469-.006.938-.001 1.407.001.122-.03.162-.141.162a305.143 305.143 0 0 0-3.22.001c-.144.001-.144-.074-.144-.194.002-1.34.001-2.681.001-4.022"/>
    </g>
</svg>
